<svg width="390" height="537" viewBox="0 0 390 537" fill="none" xmlns="http://www.w3.org/2000/svg">
<path d="M181.942 92.7869C182.108 92.5757 182.223 92.1738 181.941 91.8492C181.65 91.514 181.23 91.594 181.003 91.7474C180.798 91.8864 180.568 91.9986 180.143 91.9706C179.677 91.9399 178.952 91.7383 177.791 91.1297C176.155 90.273 174.812 89.3641 174.025 88.2268C173.271 87.1359 172.989 85.7756 173.608 83.8739C173.633 83.7985 173.664 83.658 173.618 83.4924C173.566 83.3066 173.443 83.1795 173.317 83.1093C173.131 83.0055 172.946 83.0275 172.904 83.0324L172.901 83.0328C172.774 83.0475 172.637 83.0933 172.533 83.1315C172.3 83.2169 171.973 83.3626 171.589 83.5458C170.813 83.9159 169.729 84.4738 168.525 85.1114C166.113 86.3881 163.187 88.0002 161.201 89.1103C160.868 89.2965 160.743 89.6904 160.864 90.0222L166.818 106.469C165.332 105.99 163.435 105.524 161.576 105.238C160.422 105.06 159.27 104.95 158.231 104.952C157.203 104.953 156.236 105.064 155.48 105.363C155.166 105.487 154.998 105.793 155.015 106.091C155.031 106.38 155.218 106.648 155.517 106.746L184.258 116.111C184.568 116.212 184.929 116.096 185.114 115.788M181.942 92.7869L181.464 92.4025M181.942 92.7869C181.022 93.9542 180.319 95.5563 179.816 97.138C179.324 98.6832 179.037 100.161 178.919 101.1C178.988 101.843 179.194 102.963 179.59 103.961C180.009 105.018 180.567 105.755 181.222 105.969C184.382 106.998 185.798 108.826 186.156 110.798C186.501 112.706 185.827 114.602 185.114 115.788M185.114 115.788L184.591 115.468M106.624 112.505L62.9637 -34.4394C62.6936 -35.3483 61.8226 -35.9426 60.8778 -35.8627L-27.852 -28.3512C-29.5233 -28.2097 -30.2886 -26.1975 -29.1336 -24.9812L103.257 114.451C104.705 115.976 107.223 114.52 106.624 112.505ZM228.411 129.477L292.072 -82.5751C292.326 -83.4209 293.105 -84 293.988 -84H347.115C348.637 -84 349.601 -82.3681 348.867 -81.0351L232.078 131.017C230.921 133.117 227.721 131.774 228.411 129.477ZM287.062 115.582L282.511 121.7C280.824 123.968 282.922 127.097 285.661 126.397L293.049 124.509C293.925 124.285 294.856 124.469 295.582 125.009L301.7 129.56C303.968 131.247 307.097 129.149 306.397 126.41L304.509 119.022C304.285 118.146 304.469 117.215 305.009 116.489L309.56 110.371C311.247 108.103 309.149 104.974 306.41 105.674L299.022 107.562C298.146 107.786 297.215 107.602 296.489 107.062L290.371 102.511C288.103 100.824 284.974 102.922 285.674 105.661L287.562 113.049C287.786 113.925 287.602 114.856 287.062 115.582ZM5.22684 186.756L-1.69734 183.562C-4.26383 182.379 -6.89385 185.076 -5.64526 187.612L-2.27667 194.453C-1.877 195.264 -1.86495 196.213 -2.24388 197.035L-5.43765 203.959C-6.62144 206.525 -3.92378 209.155 -1.38818 207.907L5.45267 204.538C6.26431 204.138 7.21297 204.126 8.0345 204.505L14.9587 207.699C17.5252 208.883 20.1552 206.185 18.9066 203.65L15.538 196.809C15.1383 195.997 15.1263 195.048 15.5052 194.227L18.699 187.303C19.8828 184.736 17.1851 182.106 14.6495 183.355L7.80867 186.723C6.99703 187.123 6.04836 187.135 5.22684 186.756ZM353.173 274.353L560.32 220.805C561.045 220.618 561.813 220.851 562.312 221.409L625.255 291.867C626.446 293.2 625.422 295.307 623.638 295.196L353.549 278.286C351.277 278.143 350.97 274.923 353.173 274.353ZM471.668 32.6893L348.497 142.663C346.69 144.277 348.771 147.113 350.852 145.874L498.657 57.8946C499.818 57.2035 499.974 55.5839 498.966 54.6841L474.332 32.6893C473.573 32.0118 472.427 32.0118 471.668 32.6893ZM355.383 393.012L577.653 517.779C579.288 518.697 578.876 521.157 577.031 521.491L498.012 535.817C497.377 535.932 496.725 535.733 496.262 535.284L353.011 396.191C351.331 394.56 353.341 391.866 355.383 393.012ZM412 341C412 352.598 402.598 362 391 362C379.402 362 370 352.598 370 341C370 329.402 379.402 320 391 320C402.598 320 412 329.402 412 341ZM28 331C28 342.598 18.598 352 7 352C-4.59798 352 -14 342.598 -14 331C-14 319.402 -4.59798 310 7 310C18.598 310 28 319.402 28 331ZM373.093 210.142L392.855 216.579C397.979 218.248 402.988 213.745 401.871 208.473L397.564 188.139C396.448 182.868 390.043 180.782 386.036 184.385L370.58 198.281C366.573 201.884 367.969 208.474 373.093 210.142ZM43.8995 137.611L-98.6128 52.8253C-99.4223 52.3437 -100.458 52.4921 -101.1 53.1816L-131.316 85.6528C-132.324 86.7359 -131.847 88.5005 -130.431 88.9294L42.2972 141.244C44.5572 141.929 45.9289 138.818 43.8995 137.611ZM216 5C216 25.9868 198.987 43 178 43C157.013 43 140 25.9868 140 5C140 -15.9868 157.013 -33 178 -33C198.987 -33 216 -15.9868 216 5ZM40.2659 387.152L-64.9147 411.778C-66.3463 412.113 -66.939 413.826 -66.0205 414.974L-50.9947 433.757C-50.4126 434.484 -49.405 434.713 -48.5653 434.309L41.5895 390.901C43.7427 389.865 42.5928 386.607 40.2659 387.152ZM44.4958 248H-53C-54.1046 248 -55 248.895 -55 250V292.934C-55 294.378 -53.5158 295.346 -52.194 294.764L45.3018 251.83C47.2822 250.958 46.6597 248 44.4958 248Z" stroke="black" stroke-width="2" stroke-linecap="round"/>
</svg>
