<svg width="120" height="120" viewBox="0 0 120 120" fill="none" xmlns="http://www.w3.org/2000/svg">
<rect x="108.75" y="84.375" width="3.75" height="3.75" fill="#F8B030"/>
<rect x="108.75" y="88.125" width="3.75" height="3.75" fill="#F2B13C"/>
<rect x="108.75" y="91.875" width="3.75" height="3.75" fill="#E3A12A"/>
<rect x="105" y="95.625" width="3.75" height="3.75" fill="#E3A12A"/>
<rect x="105" y="91.875" width="3.75" height="3.75" fill="#F2B13C"/>
<rect x="101.25" y="91.875" width="3.75" height="3.75" fill="#F2B13C"/>
<rect x="101.25" y="95.625" width="3.75" height="3.75" fill="#E3A12A"/>
<rect x="97.5" y="95.625" width="3.75" height="3.75" fill="#F2B13C"/>
<rect x="97.5" y="99.375" width="3.75" height="3.75" fill="#E3A12A"/>
<rect x="93.75" y="99.375" width="3.75" height="3.75" fill="#E3A12A"/>
<rect x="93.75" y="95.625" width="3.75" height="3.75" fill="#F2B13C"/>
<rect x="90" y="95.625" width="3.75" height="3.75" fill="#F2B13C"/>
<rect x="90" y="99.375" width="3.75" height="3.75" fill="#CC8D1E"/>
<rect x="75" y="99.375" width="3.75" height="3.75" fill="#DA9F36"/>
<rect x="60" y="99.375" width="3.75" height="3.75" fill="#F2B13C"/>
<rect x="45" y="99.375" width="3.75" height="3.75" fill="#CC8D1E"/>
<rect x="30" y="99.375" width="3.75" height="3.75" fill="#DA9F36"/>
<rect x="15" y="99.375" width="3.75" height="3.75" fill="#F2B13C"/>
<rect x="86.25" y="95.625" width="3.75" height="3.75" fill="#F2B13C"/>
<rect x="82.5" y="95.625" width="3.75" height="3.75" fill="#F2B13C"/>
<rect x="82.5" y="99.375" width="3.75" height="3.75" fill="#F2B13C"/>
<rect x="67.5" y="99.375" width="3.75" height="3.75" fill="#CC8D1E"/>
<rect x="52.5" y="99.375" width="3.75" height="3.75" fill="#DA9F36"/>
<rect x="37.5" y="99.375" width="3.75" height="3.75" fill="#F2B13C"/>
<rect x="22.5" y="99.375" width="3.75" height="3.75" fill="#CC8D1E"/>
<rect x="86.25" y="99.375" width="3.75" height="3.75" fill="#DA9F36"/>
<rect x="71.25" y="99.375" width="3.75" height="3.75" fill="#F2B13C"/>
<rect x="56.25" y="99.375" width="3.75" height="3.75" fill="#CC8D1E"/>
<rect x="41.25" y="99.375" width="3.75" height="3.75" fill="#DA9F36"/>
<rect x="26.25" y="99.375" width="3.75" height="3.75" fill="#F2B13C"/>
<rect x="11.25" y="99.375" width="3.75" height="3.75" fill="#E6A839"/>
<rect x="11.25" y="95.625" width="3.75" height="3.75" fill="#F2B13C"/>
<rect x="7.5" y="95.625" width="3.75" height="3.75" fill="#E6A839"/>
<rect x="7.5" y="91.875" width="3.75" height="3.75" fill="#F2B13C"/>
<rect x="82.5" y="103.125" width="3.75" height="3.75" fill="#F2B13C"/>
<rect x="67.5" y="103.125" width="3.75" height="3.75" fill="#F2B13C"/>
<rect x="52.5" y="103.125" width="3.75" height="3.75" fill="#CC8D1E"/>
<rect x="37.5" y="103.125" width="3.75" height="3.75" fill="#F2B13C"/>
<rect x="22.5" y="103.125" width="3.75" height="3.75" fill="#F2B13C"/>
<rect x="86.25" y="103.125" width="3.75" height="3.75" fill="#CC8D1E"/>
<rect x="71.25" y="103.125" width="3.75" height="3.75" fill="#F2B13C"/>
<rect x="56.25" y="103.125" width="3.75" height="3.75" fill="#F2B13C"/>
<rect x="41.25" y="103.125" width="3.75" height="3.75" fill="#CC8D1E"/>
<rect x="26.25" y="103.125" width="3.75" height="3.75" fill="#F2B13C"/>
<rect x="90" y="103.125" width="3.75" height="3.75" fill="#F2B13C"/>
<rect x="75" y="103.125" width="3.75" height="3.75" fill="#CC8D1E"/>
<rect x="60" y="103.125" width="3.75" height="3.75" fill="#F2B13C"/>
<rect x="45" y="103.125" width="3.75" height="3.75" fill="#F2B13C"/>
<rect x="30" y="103.125" width="3.75" height="3.75" fill="#CC8D1E"/>
<rect x="15" y="103.125" width="3.75" height="3.75" fill="#F2B13C"/>
<rect x="78.75" y="99.375" width="3.75" height="3.75" fill="#CC8D1E"/>
<rect x="63.75" y="99.375" width="3.75" height="3.75" fill="#DA9F36"/>
<rect x="48.75" y="99.375" width="3.75" height="3.75" fill="#F2B13C"/>
<rect x="33.75" y="99.375" width="3.75" height="3.75" fill="#CC8D1E"/>
<rect x="18.75" y="99.375" width="3.75" height="3.75" fill="#DA9F36"/>
<rect x="78.75" y="103.125" width="3.75" height="3.75" fill="#F2B13C"/>
<rect x="63.75" y="103.125" width="3.75" height="3.75" fill="#CC8D1E"/>
<rect x="48.75" y="103.125" width="3.75" height="3.75" fill="#F2B13C"/>
<rect x="33.75" y="103.125" width="3.75" height="3.75" fill="#F2B13C"/>
<rect x="18.75" y="103.125" width="3.75" height="3.75" fill="#CC8D1E"/>
<rect x="105" y="88.125" width="3.75" height="3.75" fill="#EAA01C"/>
<rect x="101.25" y="88.125" width="3.75" height="3.75" fill="#E69E1E"/>
<rect x="97.5" y="91.875" width="3.75" height="3.75" fill="#E49913"/>
<rect x="93.75" y="91.875" width="3.75" height="3.75" fill="#E49913"/>
<rect x="90" y="91.875" width="3.75" height="3.75" fill="#E49913"/>
<rect x="86.25" y="91.875" width="3.75" height="3.75" fill="#E49913"/>
<rect x="82.5" y="91.875" width="3.75" height="3.75" fill="#E49913"/>
<rect x="78.75" y="95.625" width="3.75" height="3.75" fill="#E49913"/>
<rect x="71.25" y="95.625" width="3.75" height="3.75" fill="#E49913"/>
<rect x="63.75" y="95.625" width="3.75" height="3.75" fill="#E49913"/>
<rect x="56.25" y="95.625" width="3.75" height="3.75" fill="#E49913"/>
<rect x="48.75" y="95.625" width="3.75" height="3.75" fill="#E49913"/>
<rect x="41.25" y="95.625" width="3.75" height="3.75" fill="#E49913"/>
<rect x="33.75" y="95.625" width="3.75" height="3.75" fill="#E49913"/>
<rect x="26.25" y="95.625" width="3.75" height="3.75" fill="#E49913"/>
<rect x="18.75" y="95.625" width="3.75" height="3.75" fill="#E49913"/>
<rect x="75" y="95.625" width="3.75" height="3.75" fill="#E49913"/>
<rect x="67.5" y="95.625" width="3.75" height="3.75" fill="#E49913"/>
<rect x="60" y="95.625" width="3.75" height="3.75" fill="#E49913"/>
<rect x="52.5" y="95.625" width="3.75" height="3.75" fill="#E49913"/>
<rect x="45" y="95.625" width="3.75" height="3.75" fill="#E49913"/>
<rect x="37.5" y="95.625" width="3.75" height="3.75" fill="#E49913"/>
<rect x="30" y="95.625" width="3.75" height="3.75" fill="#E49913"/>
<rect x="22.5" y="95.625" width="3.75" height="3.75" fill="#E49913"/>
<rect x="15" y="95.625" width="3.75" height="3.75" fill="#DE9615"/>
<rect x="11.25" y="91.875" width="3.75" height="3.75" fill="#D58E0F"/>
<rect x="26.25" y="91.875" width="3.75" height="3.75" fill="#E49913"/>
<rect x="41.25" y="91.875" width="3.75" height="3.75" fill="#E49913"/>
<rect x="56.25" y="91.875" width="3.75" height="3.75" fill="#E49913"/>
<rect x="15" y="91.875" width="3.75" height="3.75" fill="#DE9615"/>
<rect x="30" y="91.875" width="3.75" height="3.75" fill="#E49913"/>
<rect x="45" y="91.875" width="3.75" height="3.75" fill="#E49913"/>
<rect x="60" y="91.875" width="3.75" height="3.75" fill="#E49913"/>
<rect x="18.75" y="91.875" width="3.75" height="3.75" fill="#E49913"/>
<rect x="33.75" y="91.875" width="3.75" height="3.75" fill="#E49913"/>
<rect x="48.75" y="91.875" width="3.75" height="3.75" fill="#E49913"/>
<rect x="63.75" y="91.875" width="3.75" height="3.75" fill="#E49913"/>
<rect x="71.25" y="91.875" width="3.75" height="3.75" fill="#E49913"/>
<rect x="22.5" y="91.875" width="3.75" height="3.75" fill="#E49913"/>
<rect x="37.5" y="91.875" width="3.75" height="3.75" fill="#E49913"/>
<rect x="52.5" y="91.875" width="3.75" height="3.75" fill="#E49913"/>
<rect x="67.5" y="91.875" width="3.75" height="3.75" fill="#E49913"/>
<rect x="75" y="91.875" width="3.75" height="3.75" fill="#E49913"/>
<rect x="78.75" y="91.875" width="3.75" height="3.75" fill="#E49913"/>
<rect x="7.5" y="88.125" width="3.75" height="3.75" fill="#CE8503"/>
<rect x="11.25" y="84.375" width="3.75" height="3.75" fill="#D58E0F"/>
<rect x="26.25" y="84.375" width="3.75" height="3.75" fill="#E49913"/>
<rect x="41.25" y="84.375" width="3.75" height="3.75" fill="#E49913"/>
<rect x="56.25" y="84.375" width="3.75" height="3.75" fill="#E49913"/>
<rect x="15" y="84.375" width="3.75" height="3.75" fill="#DE9615"/>
<rect x="30" y="84.375" width="3.75" height="3.75" fill="#E49913"/>
<rect x="45" y="84.375" width="3.75" height="3.75" fill="#E49913"/>
<rect x="60" y="84.375" width="3.75" height="3.75" fill="#E49913"/>
<rect x="18.75" y="84.375" width="3.75" height="3.75" fill="#DE9615"/>
<rect x="33.75" y="84.375" width="3.75" height="3.75" fill="#E49913"/>
<rect x="48.75" y="84.375" width="3.75" height="3.75" fill="#E49913"/>
<rect x="63.75" y="84.375" width="3.75" height="3.75" fill="#E49913"/>
<rect x="71.25" y="84.375" width="3.75" height="3.75" fill="#E49913"/>
<rect x="22.5" y="84.375" width="3.75" height="3.75" fill="#E49913"/>
<rect x="37.5" y="84.375" width="3.75" height="3.75" fill="#E49913"/>
<rect x="52.5" y="84.375" width="3.75" height="3.75" fill="#E49913"/>
<rect x="67.5" y="84.375" width="3.75" height="3.75" fill="#E49913"/>
<rect x="75" y="84.375" width="3.75" height="3.75" fill="#E49913"/>
<rect x="86.25" y="84.375" width="3.75" height="3.75" fill="#E49913"/>
<rect x="78.75" y="84.375" width="3.75" height="3.75" fill="#E49913"/>
<rect x="90" y="84.375" width="3.75" height="3.75" fill="#E49913"/>
<rect x="82.5" y="84.375" width="3.75" height="3.75" fill="#E49913"/>
<rect x="93.75" y="84.375" width="3.75" height="3.75" fill="#E49913"/>
<rect x="97.5" y="84.375" width="3.75" height="3.75" fill="#E69E1E"/>
<rect x="101.25" y="84.375" width="3.75" height="3.75" fill="#E69E1E"/>
<rect x="105" y="84.375" width="3.75" height="3.75" fill="#EAA01C"/>
<rect x="82.5" y="73.125" width="3.75" height="3.75" fill="#EAA01C"/>
<rect x="11.25" y="80.625" width="3.75" height="3.75" fill="#D58E0F"/>
<rect x="26.25" y="80.625" width="3.75" height="3.75" fill="#E49913"/>
<rect x="41.25" y="80.625" width="3.75" height="3.75" fill="#E49913"/>
<rect x="56.25" y="80.625" width="3.75" height="3.75" fill="#E49913"/>
<rect x="15" y="80.625" width="3.75" height="3.75" fill="#D58E0F"/>
<rect x="30" y="80.625" width="3.75" height="3.75" fill="#E49913"/>
<rect x="45" y="80.625" width="3.75" height="3.75" fill="#E49913"/>
<rect x="60" y="80.625" width="3.75" height="3.75" fill="#E49913"/>
<rect x="18.75" y="80.625" width="3.75" height="3.75" fill="#DE9615"/>
<rect x="33.75" y="80.625" width="3.75" height="3.75" fill="#E49913"/>
<rect x="48.75" y="80.625" width="3.75" height="3.75" fill="#E49913"/>
<rect x="63.75" y="80.625" width="3.75" height="3.75" fill="#E49913"/>
<rect x="71.25" y="80.625" width="3.75" height="3.75" fill="#E49913"/>
<rect x="63.75" y="76.875" width="3.75" height="3.75" fill="#E49913"/>
<rect x="71.25" y="76.875" width="3.75" height="3.75" fill="#E49913"/>
<rect x="22.5" y="80.625" width="3.75" height="3.75" fill="#E49913"/>
<rect x="37.5" y="80.625" width="3.75" height="3.75" fill="#E49913"/>
<rect x="52.5" y="80.625" width="3.75" height="3.75" fill="#E49913"/>
<rect x="67.5" y="80.625" width="3.75" height="3.75" fill="#E49913"/>
<rect x="75" y="80.625" width="3.75" height="3.75" fill="#E49913"/>
<rect x="86.25" y="80.625" width="3.75" height="3.75" fill="#E69E1E"/>
<rect x="78.75" y="80.625" width="3.75" height="3.75" fill="#E49913"/>
<rect x="90" y="80.625" width="3.75" height="3.75" fill="#E69E1E"/>
<rect x="82.5" y="80.625" width="3.75" height="3.75" fill="#E49913"/>
<rect x="93.75" y="80.625" width="3.75" height="3.75" fill="#E69E1E"/>
<rect x="97.5" y="80.625" width="3.75" height="3.75" fill="#EAA01C"/>
<rect x="101.25" y="80.625" width="3.75" height="3.75" fill="#EAA01C"/>
<rect x="67.5" y="76.875" width="3.75" height="3.75" fill="#E49913"/>
<rect x="75" y="76.875" width="3.75" height="3.75" fill="#E49913"/>
<rect x="86.25" y="76.875" width="3.75" height="3.75" fill="#EAA01C"/>
<rect x="78.75" y="76.875" width="3.75" height="3.75" fill="#E49913"/>
<rect x="90" y="76.875" width="3.75" height="3.75" fill="#EAA01C"/>
<rect x="82.5" y="76.875" width="3.75" height="3.75" fill="#E69E1E"/>
<rect x="93.75" y="76.875" width="3.75" height="3.75" fill="#EAA01C"/>
<rect x="11.25" y="88.125" width="3.75" height="3.75" fill="#D58E0F"/>
<rect x="26.25" y="88.125" width="3.75" height="3.75" fill="#E49913"/>
<rect x="41.25" y="88.125" width="3.75" height="3.75" fill="#E49913"/>
<rect x="56.25" y="88.125" width="3.75" height="3.75" fill="#E49913"/>
<rect x="15" y="88.125" width="3.75" height="3.75" fill="#DE9615"/>
<rect x="30" y="88.125" width="3.75" height="3.75" fill="#E49913"/>
<rect x="45" y="88.125" width="3.75" height="3.75" fill="#E49913"/>
<rect x="60" y="88.125" width="3.75" height="3.75" fill="#E49913"/>
<rect x="18.75" y="88.125" width="3.75" height="3.75" fill="#DE9615"/>
<rect x="33.75" y="88.125" width="3.75" height="3.75" fill="#E49913"/>
<rect x="48.75" y="88.125" width="3.75" height="3.75" fill="#E49913"/>
<rect x="63.75" y="88.125" width="3.75" height="3.75" fill="#E49913"/>
<rect x="71.25" y="88.125" width="3.75" height="3.75" fill="#E49913"/>
<rect x="22.5" y="88.125" width="3.75" height="3.75" fill="#E49913"/>
<rect x="37.5" y="88.125" width="3.75" height="3.75" fill="#E49913"/>
<rect x="52.5" y="88.125" width="3.75" height="3.75" fill="#E49913"/>
<rect x="67.5" y="88.125" width="3.75" height="3.75" fill="#E49913"/>
<rect x="75" y="88.125" width="3.75" height="3.75" fill="#E49913"/>
<rect x="86.25" y="88.125" width="3.75" height="3.75" fill="#E49913"/>
<rect x="78.75" y="88.125" width="3.75" height="3.75" fill="#E49913"/>
<rect x="90" y="88.125" width="3.75" height="3.75" fill="#E49913"/>
<rect x="82.5" y="88.125" width="3.75" height="3.75" fill="#E49913"/>
<rect x="93.75" y="88.125" width="3.75" height="3.75" fill="#E49913"/>
<rect x="97.5" y="88.125" width="3.75" height="3.75" fill="#E49913"/>
<rect x="7.5" y="80.625" width="3.75" height="3.75" fill="#CE8503"/>
<rect x="7.5" y="84.375" width="3.75" height="3.75" fill="#CE8503"/>
<rect x="11.25" y="76.875" width="3.75" height="3.75" fill="#CE8503"/>
<rect x="26.25" y="76.875" width="3.75" height="3.75" fill="#E49913"/>
<rect x="15" y="76.875" width="3.75" height="3.75" fill="#D58E0F"/>
<rect x="30" y="76.875" width="3.75" height="3.75" fill="#E49913"/>
<rect x="18.75" y="76.875" width="3.75" height="3.75" fill="#DE9615"/>
<rect x="33.75" y="76.875" width="3.75" height="3.75" fill="#E49913"/>
<rect x="22.5" y="76.875" width="3.75" height="3.75" fill="#DE9615"/>
<rect x="37.5" y="76.875" width="3.75" height="3.75" fill="#E49913"/>
<rect x="11.25" y="73.125" width="3.75" height="3.75" fill="#CE8503"/>
<rect x="15" y="73.125" width="3.75" height="3.75" fill="#D58E0F"/>
<rect x="18.75" y="73.125" width="3.75" height="3.75" fill="#D58E0F"/>
<rect x="22.5" y="73.125" width="3.75" height="3.75" fill="#DE9615"/>
<rect x="11.25" y="69.375" width="3.75" height="3.75" fill="#CE8503"/>
<rect x="15" y="69.375" width="3.75" height="3.75" fill="#CE8503"/>
<rect x="105" y="80.625" width="3.75" height="3.75" fill="#F8B030"/>
<rect x="101.25" y="76.875" width="3.75" height="3.75" fill="#F8B030"/>
<rect x="97.5" y="76.875" width="3.75" height="3.75" fill="#F8B030"/>
<rect x="93.75" y="73.125" width="3.75" height="3.75" fill="#F8B030"/>
<rect x="90" y="73.125" width="3.75" height="3.75" fill="#F8B030"/>
<rect x="86.25" y="73.125" width="3.75" height="3.75" fill="#F8B030"/>
<rect x="82.5" y="69.375" width="3.75" height="3.75" fill="#F8B030"/>
<rect x="78.75" y="69.375" width="3.75" height="3.75" fill="#F0D890"/>
<rect x="75" y="69.375" width="3.75" height="3.75" fill="#F0D890"/>
<rect x="71.25" y="69.375" width="3.75" height="3.75" fill="#E9D28E"/>
<rect x="71.25" y="65.625" width="3.75" height="3.75" fill="#F0D890"/>
<rect x="67.5" y="65.625" width="3.75" height="3.75" fill="#E9D28E"/>
<rect x="60" y="65.625" width="3.75" height="3.75" fill="#E6CE86"/>
<rect x="52.5" y="65.625" width="3.75" height="3.75" fill="#E6CE86"/>
<rect x="33.75" y="65.625" width="3.75" height="3.75" fill="#E6CE86"/>
<rect x="33.75" y="61.875" width="3.75" height="3.75" fill="#A08B70"/>
<rect x="41.25" y="61.875" width="3.75" height="3.75" fill="#A08B70"/>
<rect x="48.75" y="61.875" width="3.75" height="3.75" fill="#A08B70"/>
<rect x="48.75" y="58.125" width="3.75" height="3.75" fill="#A08B70"/>
<rect x="48.75" y="54.375" width="3.75" height="3.75" fill="#A08B70"/>
<rect x="48.75" y="50.625" width="3.75" height="3.75" fill="#A08B70"/>
<rect x="48.75" y="46.875" width="3.75" height="3.75" fill="#A08B70"/>
<rect x="48.75" y="43.125" width="3.75" height="3.75" fill="#A08B70"/>
<rect x="48.75" y="39.375" width="3.75" height="3.75" fill="#B59F72"/>
<rect x="48.75" y="35.625" width="3.75" height="3.75" fill="#B59F72"/>
<rect x="48.75" y="31.875" width="3.75" height="3.75" fill="#B59F72"/>
<rect x="52.5" y="31.875" width="3.75" height="3.75" fill="#B59F72"/>
<rect x="52.5" y="28.125" width="3.75" height="3.75" fill="#B4A588"/>
<rect x="56.25" y="28.125" width="3.75" height="3.75" fill="#B4A588"/>
<rect x="56.25" y="31.875" width="3.75" height="3.75" fill="#B4A588"/>
<rect x="60" y="28.125" width="3.75" height="3.75" fill="#B4A588"/>
<rect x="60" y="24.375" width="3.75" height="3.75" fill="#B4A588"/>
<rect x="60" y="20.625" width="3.75" height="3.75" fill="#B4A588"/>
<rect x="52.5" y="20.625" width="3.75" height="3.75" fill="#B4A588"/>
<rect x="45" y="20.625" width="3.75" height="3.75" fill="#B4A588"/>
<rect x="45" y="16.875" width="3.75" height="3.75" fill="#B4A588"/>
<rect x="37.5" y="16.875" width="3.75" height="3.75" fill="#B4A588"/>
<rect x="37.5" y="13.125" width="3.75" height="3.75" fill="#B09B73"/>
<rect x="33.75" y="13.125" width="3.75" height="3.75" fill="#B09B73"/>
<rect x="52.5" y="24.375" width="3.75" height="3.75" fill="#B4A588"/>
<rect x="56.25" y="24.375" width="3.75" height="3.75" fill="#B4A588"/>
<rect x="56.25" y="20.625" width="3.75" height="3.75" fill="#B4A588"/>
<rect x="48.75" y="20.625" width="3.75" height="3.75" fill="#B4A588"/>
<rect x="48.75" y="16.875" width="3.75" height="3.75" fill="#B4A588"/>
<rect x="41.25" y="20.625" width="3.75" height="3.75" fill="#B4A588"/>
<rect x="41.25" y="16.875" width="3.75" height="3.75" fill="#B4A588"/>
<rect x="33.75" y="16.875" width="3.75" height="3.75" fill="#B09B73"/>
<rect x="48.75" y="28.125" width="3.75" height="3.75" fill="#B59F72"/>
<rect x="48.75" y="24.375" width="3.75" height="3.75" fill="#B59F72"/>
<rect x="41.25" y="58.125" width="3.75" height="3.75" fill="#A08B70"/>
<rect x="41.25" y="54.375" width="3.75" height="3.75" fill="#A08B70"/>
<rect x="41.25" y="50.625" width="3.75" height="3.75" fill="#A08B70"/>
<rect x="41.25" y="46.875" width="3.75" height="3.75" fill="#A08B70"/>
<rect x="41.25" y="43.125" width="3.75" height="3.75" fill="#A08B70"/>
<rect x="41.25" y="39.375" width="3.75" height="3.75" fill="#B59F72"/>
<rect x="41.25" y="35.625" width="3.75" height="3.75" fill="#B59F72"/>
<rect x="41.25" y="31.875" width="3.75" height="3.75" fill="#B59F72"/>
<rect x="41.25" y="28.125" width="3.75" height="3.75" fill="#B59F72"/>
<rect x="41.25" y="24.375" width="3.75" height="3.75" fill="#B59F72"/>
<rect x="33.75" y="58.125" width="3.75" height="3.75" fill="#A08B70"/>
<rect x="33.75" y="54.375" width="3.75" height="3.75" fill="#A08B70"/>
<rect x="33.75" y="50.625" width="3.75" height="3.75" fill="#A08B70"/>
<rect x="33.75" y="46.875" width="3.75" height="3.75" fill="#9F896D"/>
<rect x="33.75" y="43.125" width="3.75" height="3.75" fill="#9F896D"/>
<rect x="33.75" y="39.375" width="3.75" height="3.75" fill="#B59F72"/>
<rect x="33.75" y="35.625" width="3.75" height="3.75" fill="#B59F72"/>
<rect x="33.75" y="31.875" width="3.75" height="3.75" fill="#B59F72"/>
<rect x="33.75" y="28.125" width="3.75" height="3.75" fill="#B59F72"/>
<rect x="33.75" y="24.375" width="3.75" height="3.75" fill="#B59F72"/>
<rect x="33.75" y="20.625" width="3.75" height="3.75" fill="#B09866"/>
<rect x="30" y="58.125" width="3.75" height="3.75" fill="#A08B70"/>
<rect x="30" y="54.375" width="3.75" height="3.75" fill="#A08B70"/>
<rect x="30" y="50.625" width="3.75" height="3.75" fill="#9F896D"/>
<rect x="30" y="46.875" width="3.75" height="3.75" fill="#9C8566"/>
<rect x="30" y="43.125" width="3.75" height="3.75" fill="#9C8566"/>
<rect x="30" y="39.375" width="3.75" height="3.75" fill="#B09866"/>
<rect x="30" y="35.625" width="3.75" height="3.75" fill="#B09866"/>
<rect x="30" y="31.875" width="3.75" height="3.75" fill="#B09866"/>
<rect x="30" y="28.125" width="3.75" height="3.75" fill="#B09866"/>
<rect x="30" y="24.375" width="3.75" height="3.75" fill="#B09866"/>
<rect x="30" y="20.625" width="3.75" height="3.75" fill="#B09866"/>
<rect x="30" y="16.875" width="3.75" height="3.75" fill="#B09866"/>
<rect x="30" y="13.125" width="3.75" height="3.75" fill="#AA9262"/>
<rect x="26.25" y="54.375" width="3.75" height="3.75" fill="#9C8566"/>
<rect x="26.25" y="50.625" width="3.75" height="3.75" fill="#9C8566"/>
<rect x="26.25" y="46.875" width="3.75" height="3.75" fill="#9C8566"/>
<rect x="26.25" y="43.125" width="3.75" height="3.75" fill="#9C8566"/>
<rect x="26.25" y="39.375" width="3.75" height="3.75" fill="#B09866"/>
<rect x="26.25" y="35.625" width="3.75" height="3.75" fill="#B09866"/>
<rect x="26.25" y="31.875" width="3.75" height="3.75" fill="#B09866"/>
<rect x="26.25" y="28.125" width="3.75" height="3.75" fill="#B09866"/>
<rect x="26.25" y="24.375" width="3.75" height="3.75" fill="#B09866"/>
<rect x="26.25" y="20.625" width="3.75" height="3.75" fill="#B09866"/>
<rect x="26.25" y="16.875" width="3.75" height="3.75" fill="#AA9262"/>
<rect x="22.5" y="43.125" width="3.75" height="3.75" fill="#B09866"/>
<rect x="22.5" y="39.375" width="3.75" height="3.75" fill="#AA9262"/>
<rect x="22.5" y="35.625" width="3.75" height="3.75" fill="#AA9262"/>
<rect x="22.5" y="31.875" width="3.75" height="3.75" fill="#AA9262"/>
<rect x="22.5" y="28.125" width="3.75" height="3.75" fill="#AA9262"/>
<rect x="22.5" y="24.375" width="3.75" height="3.75" fill="#AA9262"/>
<rect x="22.5" y="20.625" width="3.75" height="3.75" fill="#AA9262"/>
<rect x="18.75" y="43.125" width="3.75" height="3.75" fill="#AA9262"/>
<rect x="22.5" y="50.625" width="3.75" height="3.75" fill="#9C8566"/>
<rect x="18.75" y="50.625" width="3.75" height="3.75" fill="#8F7654"/>
<rect x="22.5" y="46.875" width="3.75" height="3.75" fill="#9C8566"/>
<rect x="18.75" y="46.875" width="3.75" height="3.75" fill="#8F7654"/>
<rect x="67.5" y="61.875" width="3.75" height="3.75" fill="#F0D890"/>
<rect x="60" y="61.875" width="3.75" height="3.75" fill="#E9D28E"/>
<rect x="63.75" y="61.875" width="3.75" height="3.75" fill="#E9D28E"/>
<rect x="30" y="61.875" width="3.75" height="3.75" fill="#E6CE86"/>
<rect x="26.25" y="61.875" width="3.75" height="3.75" fill="#E2C878"/>
<rect x="22.5" y="61.875" width="3.75" height="3.75" fill="#E2C878"/>
<rect x="18.75" y="61.875" width="3.75" height="3.75" fill="#D6BD72"/>
<rect x="18.75" y="58.125" width="3.75" height="3.75" fill="#D6BD72"/>
<rect x="18.75" y="54.375" width="3.75" height="3.75" fill="#B59C54"/>
<rect x="22.5" y="58.125" width="3.75" height="3.75" fill="#E2C878"/>
<rect x="22.5" y="54.375" width="3.75" height="3.75" fill="#BFA864"/>
<rect x="26.25" y="58.125" width="3.75" height="3.75" fill="#BFA864"/>
<rect x="41.25" y="65.625" width="3.75" height="3.75" fill="#BFA864"/>
<rect x="45" y="65.625" width="3.75" height="3.75" fill="#BFA864"/>
<rect x="56.25" y="61.875" width="3.75" height="3.75" fill="#BFA864"/>
<rect x="63.75" y="58.125" width="3.75" height="3.75" fill="#BFA864"/>
<rect x="63.75" y="54.375" width="3.75" height="3.75" fill="#8E8878"/>
<rect x="63.75" y="50.625" width="3.75" height="3.75" fill="#8E8878"/>
<rect x="63.75" y="46.875" width="3.75" height="3.75" fill="#8E8878"/>
<rect x="63.75" y="43.125" width="3.75" height="3.75" fill="#8E8878"/>
<rect x="63.75" y="39.375" width="3.75" height="3.75" fill="#8E8878"/>
<rect x="60" y="35.625" width="3.75" height="3.75" fill="#A9A59D"/>
<rect x="63.75" y="35.625" width="3.75" height="3.75" fill="#A9A59D"/>
<rect x="60" y="31.875" width="3.75" height="3.75" fill="#A9A59D"/>
<rect x="60" y="58.125" width="3.75" height="3.75" fill="#B19154"/>
<rect x="56.25" y="58.125" width="3.75" height="3.75" fill="#B19154"/>
<rect x="60" y="54.375" width="3.75" height="3.75" fill="#B19154"/>
<rect x="60" y="50.625" width="3.75" height="3.75" fill="#B19154"/>
<rect x="60" y="46.875" width="3.75" height="3.75" fill="#B19154"/>
<rect x="60" y="43.125" width="3.75" height="3.75" fill="#B19154"/>
<rect x="60" y="39.375" width="3.75" height="3.75" fill="#B19154"/>
<rect x="56.25" y="54.375" width="3.75" height="3.75" fill="#BD9E63"/>
<rect x="56.25" y="50.625" width="3.75" height="3.75" fill="#BD9E63"/>
<rect x="56.25" y="46.875" width="3.75" height="3.75" fill="#BD9E63"/>
<rect x="56.25" y="43.125" width="3.75" height="3.75" fill="#BD9E63"/>
<rect x="56.25" y="39.375" width="3.75" height="3.75" fill="#BD9E63"/>
<rect x="56.25" y="35.625" width="3.75" height="3.75" fill="#B19154"/>
<rect x="52.5" y="54.375" width="3.75" height="3.75" fill="#B19154"/>
<rect x="52.5" y="50.625" width="3.75" height="3.75" fill="#B19154"/>
<rect x="52.5" y="46.875" width="3.75" height="3.75" fill="#B19154"/>
<rect x="52.5" y="43.125" width="3.75" height="3.75" fill="#B19154"/>
<rect x="52.5" y="39.375" width="3.75" height="3.75" fill="#B19154"/>
<rect x="52.5" y="35.625" width="3.75" height="3.75" fill="#B19154"/>
<rect x="63.75" y="65.625" width="3.75" height="3.75" fill="#E9D28E"/>
<rect x="56.25" y="65.625" width="3.75" height="3.75" fill="#E6CE86"/>
<rect x="48.75" y="65.625" width="3.75" height="3.75" fill="#E6CE86"/>
<rect x="37.5" y="65.625" width="3.75" height="3.75" fill="#E6CE86"/>
<rect x="37.5" y="61.875" width="3.75" height="3.75" fill="#A08B70"/>
<rect x="45" y="61.875" width="3.75" height="3.75" fill="#A08B70"/>
<rect x="52.5" y="61.875" width="3.75" height="3.75" fill="#A08B70"/>
<rect x="52.5" y="58.125" width="3.75" height="3.75" fill="#A08B70"/>
<rect x="45" y="58.125" width="3.75" height="3.75" fill="#A08B70"/>
<rect x="45" y="54.375" width="3.75" height="3.75" fill="#A08B70"/>
<rect x="45" y="50.625" width="3.75" height="3.75" fill="#A08B70"/>
<rect x="45" y="46.875" width="3.75" height="3.75" fill="#A08B70"/>
<rect x="45" y="43.125" width="3.75" height="3.75" fill="#A08B70"/>
<rect x="45" y="39.375" width="3.75" height="3.75" fill="#B59F72"/>
<rect x="45" y="35.625" width="3.75" height="3.75" fill="#B59F72"/>
<rect x="45" y="31.875" width="3.75" height="3.75" fill="#B59F72"/>
<rect x="45" y="28.125" width="3.75" height="3.75" fill="#B59F72"/>
<rect x="45" y="24.375" width="3.75" height="3.75" fill="#B59F72"/>
<rect x="37.5" y="58.125" width="3.75" height="3.75" fill="#A08B70"/>
<rect x="37.5" y="54.375" width="3.75" height="3.75" fill="#A08B70"/>
<rect x="37.5" y="50.625" width="3.75" height="3.75" fill="#A08B70"/>
<rect x="37.5" y="46.875" width="3.75" height="3.75" fill="#A08B70"/>
<rect x="37.5" y="43.125" width="3.75" height="3.75" fill="#A08B70"/>
<rect x="37.5" y="39.375" width="3.75" height="3.75" fill="#B59F72"/>
<rect x="37.5" y="35.625" width="3.75" height="3.75" fill="#B59F72"/>
<rect x="37.5" y="31.875" width="3.75" height="3.75" fill="#B59F72"/>
<rect x="37.5" y="28.125" width="3.75" height="3.75" fill="#B59F72"/>
<rect x="37.5" y="24.375" width="3.75" height="3.75" fill="#B59F72"/>
<rect x="37.5" y="20.625" width="3.75" height="3.75" fill="#B59F72"/>
<rect x="30" y="65.625" width="3.75" height="3.75" fill="#E6CE86"/>
<rect x="26.25" y="65.625" width="3.75" height="3.75" fill="#E6CE86"/>
<rect x="22.5" y="65.625" width="3.75" height="3.75" fill="#E2C878"/>
<rect x="18.75" y="65.625" width="3.75" height="3.75" fill="#E2C878"/>
<rect x="15" y="65.625" width="3.75" height="3.75" fill="#D6BD72"/>
<rect x="63.75" y="69.375" width="3.75" height="3.75" fill="#E6CE86"/>
<rect x="56.25" y="69.375" width="3.75" height="3.75" fill="#E6CE86"/>
<rect x="56.25" y="73.125" width="3.75" height="3.75" fill="#E6CE86"/>
<rect x="48.75" y="69.375" width="3.75" height="3.75" fill="#E6CE86"/>
<rect x="37.5" y="69.375" width="3.75" height="3.75" fill="#E6CE86"/>
<rect x="48.75" y="73.125" width="3.75" height="3.75" fill="#E6CE86"/>
<rect x="41.25" y="69.375" width="3.75" height="3.75" fill="#E6CE86"/>
<rect x="30" y="69.375" width="3.75" height="3.75" fill="#E6CE86"/>
<rect x="26.25" y="69.375" width="3.75" height="3.75" fill="#E6CE86"/>
<rect x="41.25" y="73.125" width="3.75" height="3.75" fill="#E6CE86"/>
<rect x="67.5" y="69.375" width="3.75" height="3.75" fill="#E9D28E"/>
<rect x="60" y="69.375" width="3.75" height="3.75" fill="#E6CE86"/>
<rect x="60" y="73.125" width="3.75" height="3.75" fill="#E6CE86"/>
<rect x="52.5" y="69.375" width="3.75" height="3.75" fill="#E6CE86"/>
<rect x="52.5" y="73.125" width="3.75" height="3.75" fill="#E6CE86"/>
<rect x="45" y="69.375" width="3.75" height="3.75" fill="#E6CE86"/>
<rect x="33.75" y="69.375" width="3.75" height="3.75" fill="#E6CE86"/>
<rect x="45" y="73.125" width="3.75" height="3.75" fill="#E6CE86"/>
<rect x="78.75" y="73.125" width="3.75" height="3.75" fill="#E69E1E"/>
<rect x="75" y="73.125" width="3.75" height="3.75" fill="#E49913"/>
<rect x="71.25" y="73.125" width="3.75" height="3.75" fill="#E49913"/>
<rect x="67.5" y="73.125" width="3.75" height="3.75" fill="#E49913"/>
<rect x="63.75" y="73.125" width="3.75" height="3.75" fill="#E49913"/>
<rect x="60" y="76.875" width="3.75" height="3.75" fill="#E49913"/>
<rect x="56.25" y="76.875" width="3.75" height="3.75" fill="#E49913"/>
<rect x="52.5" y="76.875" width="3.75" height="3.75" fill="#E49913"/>
<rect x="48.75" y="76.875" width="3.75" height="3.75" fill="#E49913"/>
<rect x="45" y="76.875" width="3.75" height="3.75" fill="#E49913"/>
<rect x="41.25" y="76.875" width="3.75" height="3.75" fill="#E49913"/>
<rect x="37.5" y="73.125" width="3.75" height="3.75" fill="#E49913"/>
<rect x="33.75" y="73.125" width="3.75" height="3.75" fill="#E49913"/>
<rect x="30" y="73.125" width="3.75" height="3.75" fill="#E49913"/>
<rect x="26.25" y="73.125" width="3.75" height="3.75" fill="#DE9615"/>
<rect x="22.5" y="69.375" width="3.75" height="3.75" fill="#DE9615"/>
<rect x="18.75" y="69.375" width="3.75" height="3.75" fill="#D58E0F"/>
</svg>
