<svg width="120" height="120" viewBox="0 0 120 120" fill="none" xmlns="http://www.w3.org/2000/svg">
<rect x="75" y="76.875" width="3.75" height="3.75" fill="#2B84B1"/>
<rect x="75" y="73.125" width="3.75" height="3.75" fill="#2B84B1"/>
<rect x="71.25" y="73.125" width="3.75" height="3.75" fill="#1C6A92"/>
<rect x="78.75" y="73.125" width="3.75" height="3.75" fill="#2B84B1"/>
<rect x="82.5" y="69.375" width="3.75" height="3.75" fill="#69CDFF"/>
<rect x="86.25" y="69.375" width="3.75" height="3.75" fill="#69CDFF"/>
<rect x="90" y="73.125" width="3.75" height="3.75" fill="#2B84B1"/>
<rect x="93.75" y="69.375" width="3.75" height="3.75" fill="#58C0F5"/>
<rect width="3.75" height="3.75" transform="matrix(1 0 0 -1 97.5 73.125)" fill="#58C0F5"/>
<rect width="3.75" height="3.75" transform="matrix(1 0 0 -1 101.25 76.875)" fill="#2B84B1"/>
<rect width="3.75" height="3.75" transform="matrix(1 0 0 -1 101.25 73.125)" fill="#58C0F5"/>
<rect x="108.75" y="73.125" width="3.75" height="3.75" transform="rotate(-180 108.75 73.125)" fill="#58C0F5"/>
<rect x="112.5" y="69.375" width="3.75" height="3.75" transform="rotate(-180 112.5 69.375)" fill="#BCE8FF"/>
<rect x="105" y="69.375" width="3.75" height="3.75" transform="rotate(-180 105 69.375)" fill="#58C0F5"/>
<rect x="105" y="65.625" width="3.75" height="3.75" transform="rotate(-180 105 65.625)" fill="#BCE8FF"/>
<rect x="97.5" y="69.375" width="3.75" height="3.75" transform="rotate(-180 97.5 69.375)" fill="#58C0F5"/>
<rect x="97.5" y="65.625" width="3.75" height="3.75" transform="rotate(-180 97.5 65.625)" fill="#69CDFF"/>
<rect x="97.5" y="61.875" width="3.75" height="3.75" transform="rotate(-180 97.5 61.875)" fill="#BCE8FF"/>
<rect x="78.75" y="61.875" width="3.75" height="3.75" transform="rotate(-180 78.75 61.875)" fill="#45B2E9"/>
<rect x="78.75" y="69.375" width="3.75" height="3.75" transform="rotate(-180 78.75 69.375)" fill="#69CDFF"/>
<rect x="78.75" y="73.125" width="3.75" height="3.75" transform="rotate(-180 78.75 73.125)" fill="#69CDFF"/>
<rect x="63.75" y="73.125" width="3.75" height="3.75" transform="rotate(-180 63.75 73.125)" fill="#45B2E9"/>
<rect x="63.75" y="65.625" width="3.75" height="3.75" transform="rotate(-180 63.75 65.625)" fill="#58C0F5"/>
<rect x="63.75" y="58.125" width="3.75" height="3.75" transform="rotate(-180 63.75 58.125)" fill="#69CDFF"/>
<rect x="63.75" y="69.375" width="3.75" height="3.75" transform="rotate(-180 63.75 69.375)" fill="#45B2E9"/>
<rect x="63.75" y="61.875" width="3.75" height="3.75" transform="rotate(-180 63.75 61.875)" fill="#69CDFF"/>
<rect x="63.75" y="54.375" width="3.75" height="3.75" transform="rotate(-180 63.75 54.375)" fill="#69CDFF"/>
<rect x="63.75" y="50.625" width="3.75" height="3.75" transform="rotate(-180 63.75 50.625)" fill="#3EA0D2"/>
<rect x="48.75" y="73.125" width="3.75" height="3.75" transform="rotate(-180 48.75 73.125)" fill="#45B2E9"/>
<rect x="48.75" y="65.625" width="3.75" height="3.75" transform="rotate(-180 48.75 65.625)" fill="#45B2E9"/>
<rect x="48.75" y="58.125" width="3.75" height="3.75" transform="rotate(-180 48.75 58.125)" fill="#69CDFF"/>
<rect x="48.75" y="69.375" width="3.75" height="3.75" transform="rotate(-180 48.75 69.375)" fill="#45B2E9"/>
<rect x="48.75" y="61.875" width="3.75" height="3.75" transform="rotate(-180 48.75 61.875)" fill="#45B2E9"/>
<rect x="48.75" y="54.375" width="3.75" height="3.75" transform="rotate(-180 48.75 54.375)" fill="#69CDFF"/>
<rect x="48.75" y="73.125" width="3.75" height="3.75" transform="rotate(-180 48.75 73.125)" fill="#45B2E9"/>
<rect x="48.75" y="65.625" width="3.75" height="3.75" transform="rotate(-180 48.75 65.625)" fill="#45B2E9"/>
<rect x="48.75" y="58.125" width="3.75" height="3.75" transform="rotate(-180 48.75 58.125)" fill="#58C0F5"/>
<rect x="48.75" y="69.375" width="3.75" height="3.75" transform="rotate(-180 48.75 69.375)" fill="#45B2E9"/>
<rect x="48.75" y="61.875" width="3.75" height="3.75" transform="rotate(-180 48.75 61.875)" fill="#45B2E9"/>
<rect x="48.75" y="50.625" width="3.75" height="3.75" transform="rotate(-180 48.75 50.625)" fill="#69CDFF"/>
<rect x="48.75" y="46.875" width="3.75" height="3.75" transform="rotate(-180 48.75 46.875)" fill="#69CDFF"/>
<rect x="48.75" y="43.125" width="3.75" height="3.75" transform="rotate(-180 48.75 43.125)" fill="#3EA0D2"/>
<rect x="33.75" y="73.125" width="3.75" height="3.75" transform="rotate(-180 33.75 73.125)" fill="#45B2E9"/>
<rect x="33.75" y="76.875" width="3.75" height="3.75" transform="rotate(-180 33.75 76.875)" fill="#2B84B1"/>
<rect x="37.5" y="76.875" width="3.75" height="3.75" transform="rotate(-180 37.5 76.875)" fill="#2B84B1"/>
<rect x="33.75" y="80.625" width="3.75" height="3.75" transform="rotate(-180 33.75 80.625)" fill="#2B84B1"/>
<rect x="33.75" y="65.625" width="3.75" height="3.75" transform="rotate(-180 33.75 65.625)" fill="#45B2E9"/>
<rect x="33.75" y="58.125" width="3.75" height="3.75" transform="rotate(-180 33.75 58.125)" fill="#69CDFF"/>
<rect x="33.75" y="69.375" width="3.75" height="3.75" transform="rotate(-180 33.75 69.375)" fill="#45B2E9"/>
<rect x="33.75" y="61.875" width="3.75" height="3.75" transform="rotate(-180 33.75 61.875)" fill="#58C0F5"/>
<rect x="33.75" y="54.375" width="3.75" height="3.75" transform="rotate(-180 33.75 54.375)" fill="#69CDFF"/>
<rect x="33.75" y="50.625" width="3.75" height="3.75" transform="rotate(-180 33.75 50.625)" fill="#9DDEFF"/>
<rect x="78.75" y="58.125" width="3.75" height="3.75" transform="rotate(-180 78.75 58.125)" fill="#69CDFF"/>
<rect x="78.75" y="54.375" width="3.75" height="3.75" transform="rotate(-180 78.75 54.375)" fill="#3EA0D2"/>
<rect x="78.75" y="65.625" width="3.75" height="3.75" transform="rotate(-180 78.75 65.625)" fill="#45B2E9"/>
<rect x="90" y="69.375" width="3.75" height="3.75" transform="rotate(-180 90 69.375)" fill="#69CDFF"/>
<rect x="90" y="65.625" width="3.75" height="3.75" transform="rotate(-180 90 65.625)" fill="#69CDFF"/>
<rect x="90" y="61.875" width="3.75" height="3.75" transform="rotate(-180 90 61.875)" fill="#BCE8FF"/>
<rect x="71.25" y="61.875" width="3.75" height="3.75" transform="rotate(-180 71.25 61.875)" fill="#69CDFF"/>
<rect x="71.25" y="69.375" width="3.75" height="3.75" transform="rotate(-180 71.25 69.375)" fill="#58C0F5"/>
<rect x="71.25" y="73.125" width="3.75" height="3.75" transform="rotate(-180 71.25 73.125)" fill="#45B2E9"/>
<rect x="56.25" y="73.125" width="3.75" height="3.75" transform="rotate(-180 56.25 73.125)" fill="#45B2E9"/>
<rect x="56.25" y="65.625" width="3.75" height="3.75" transform="rotate(-180 56.25 65.625)" fill="#45B2E9"/>
<rect x="56.25" y="58.125" width="3.75" height="3.75" transform="rotate(-180 56.25 58.125)" fill="#69CDFF"/>
<rect x="56.25" y="69.375" width="3.75" height="3.75" transform="rotate(-180 56.25 69.375)" fill="#45B2E9"/>
<rect x="56.25" y="61.875" width="3.75" height="3.75" transform="rotate(-180 56.25 61.875)" fill="#58C0F5"/>
<rect x="56.25" y="54.375" width="3.75" height="3.75" transform="rotate(-180 56.25 54.375)" fill="#69CDFF"/>
<rect x="56.25" y="50.625" width="3.75" height="3.75" transform="rotate(-180 56.25 50.625)" fill="#69CDFF"/>
<rect x="56.25" y="46.875" width="3.75" height="3.75" transform="rotate(-180 56.25 46.875)" fill="#3EA0D2"/>
<rect x="41.25" y="73.125" width="3.75" height="3.75" transform="rotate(-180 41.25 73.125)" fill="#45B2E9"/>
<rect x="41.25" y="65.625" width="3.75" height="3.75" transform="rotate(-180 41.25 65.625)" fill="#45B2E9"/>
<rect x="41.25" y="58.125" width="3.75" height="3.75" transform="rotate(-180 41.25 58.125)" fill="#69CDFF"/>
<rect x="41.25" y="69.375" width="3.75" height="3.75" transform="rotate(-180 41.25 69.375)" fill="#45B2E9"/>
<rect x="41.25" y="61.875" width="3.75" height="3.75" transform="rotate(-180 41.25 61.875)" fill="#45B2E9"/>
<rect x="41.25" y="54.375" width="3.75" height="3.75" transform="rotate(-180 41.25 54.375)" fill="#45B2E9"/>
<rect x="41.25" y="73.125" width="3.75" height="3.75" transform="rotate(-180 41.25 73.125)" fill="#45B2E9"/>
<rect x="41.25" y="65.625" width="3.75" height="3.75" transform="rotate(-180 41.25 65.625)" fill="#45B2E9"/>
<rect x="41.25" y="58.125" width="3.75" height="3.75" transform="rotate(-180 41.25 58.125)" fill="#69CDFF"/>
<rect x="41.25" y="69.375" width="3.75" height="3.75" transform="rotate(-180 41.25 69.375)" fill="#45B2E9"/>
<rect x="41.25" y="61.875" width="3.75" height="3.75" transform="rotate(-180 41.25 61.875)" fill="#58C0F5"/>
<rect x="41.25" y="54.375" width="3.75" height="3.75" transform="rotate(-180 41.25 54.375)" fill="#69CDFF"/>
<rect x="41.25" y="50.625" width="3.75" height="3.75" transform="rotate(-180 41.25 50.625)" fill="#69CDFF"/>
<rect x="41.25" y="46.875" width="3.75" height="3.75" transform="rotate(-180 41.25 46.875)" fill="#9DDEFF"/>
<rect x="26.25" y="73.125" width="3.75" height="3.75" transform="rotate(-180 26.25 73.125)" fill="#45B2E9"/>
<rect x="26.25" y="65.625" width="3.75" height="3.75" transform="rotate(-180 26.25 65.625)" fill="#69CDFF"/>
<rect x="26.25" y="58.125" width="3.75" height="3.75" transform="rotate(-180 26.25 58.125)" fill="#69CDFF"/>
<rect x="26.25" y="69.375" width="3.75" height="3.75" transform="rotate(-180 26.25 69.375)" fill="#58C0F5"/>
<rect x="26.25" y="61.875" width="3.75" height="3.75" transform="rotate(-180 26.25 61.875)" fill="#69CDFF"/>
<rect x="26.25" y="54.375" width="3.75" height="3.75" transform="rotate(-180 26.25 54.375)" fill="#9DDEFF"/>
<rect x="18.75" y="73.125" width="3.75" height="3.75" transform="rotate(-180 18.75 73.125)" fill="#57B2E0"/>
<rect x="18.75" y="65.625" width="3.75" height="3.75" transform="rotate(-180 18.75 65.625)" fill="#69CDFF"/>
<rect x="18.75" y="58.125" width="3.75" height="3.75" transform="rotate(-180 18.75 58.125)" fill="#57B2E0"/>
<rect x="18.75" y="69.375" width="3.75" height="3.75" transform="rotate(-180 18.75 69.375)" fill="#69CDFF"/>
<rect x="18.75" y="61.875" width="3.75" height="3.75" transform="rotate(-180 18.75 61.875)" fill="#69CDFF"/>
<rect x="18.75" y="54.375" width="3.75" height="3.75" transform="rotate(-180 18.75 54.375)" fill="#57B2E0"/>
<rect x="18.75" y="50.625" width="3.75" height="3.75" transform="rotate(-180 18.75 50.625)" fill="#57B2E0"/>
<rect x="18.75" y="46.875" width="3.75" height="3.75" transform="rotate(-180 18.75 46.875)" fill="#69CDFF"/>
<rect x="71.25" y="58.125" width="3.75" height="3.75" transform="rotate(-180 71.25 58.125)" fill="#69CDFF"/>
<rect x="71.25" y="54.375" width="3.75" height="3.75" transform="rotate(-180 71.25 54.375)" fill="#3EA0D2"/>
<rect x="71.25" y="65.625" width="3.75" height="3.75" transform="rotate(-180 71.25 65.625)" fill="#69CDFF"/>
<rect x="108.75" y="69.375" width="3.75" height="3.75" transform="rotate(-180 108.75 69.375)" fill="#69CDFF"/>
<rect x="108.75" y="65.625" width="3.75" height="3.75" transform="rotate(-180 108.75 65.625)" fill="#BCE8FF"/>
<rect x="101.25" y="69.375" width="3.75" height="3.75" transform="rotate(-180 101.25 69.375)" fill="#58C0F5"/>
<rect x="101.25" y="65.625" width="3.75" height="3.75" transform="rotate(-180 101.25 65.625)" fill="#69CDFF"/>
<rect x="101.25" y="61.875" width="3.75" height="3.75" transform="rotate(-180 101.25 61.875)" fill="#BCE8FF"/>
<rect x="82.5" y="61.875" width="3.75" height="3.75" transform="rotate(-180 82.5 61.875)" fill="#198FCB"/>
<rect x="82.5" y="69.375" width="3.75" height="3.75" transform="rotate(-180 82.5 69.375)" fill="#45B2E9"/>
<rect x="82.5" y="73.125" width="3.75" height="3.75" transform="rotate(-180 82.5 73.125)" fill="#69CDFF"/>
<rect x="82.5" y="58.125" width="3.75" height="3.75" transform="rotate(-180 82.5 58.125)" fill="#45B2E9"/>
<rect x="82.5" y="65.625" width="3.75" height="3.75" transform="rotate(-180 82.5 65.625)" fill="#45B2E9"/>
<rect x="93.75" y="69.375" width="3.75" height="3.75" transform="rotate(-180 93.75 69.375)" fill="#58C0F5"/>
<rect x="93.75" y="65.625" width="3.75" height="3.75" transform="rotate(-180 93.75 65.625)" fill="#69CDFF"/>
<rect x="93.75" y="61.875" width="3.75" height="3.75" transform="rotate(-180 93.75 61.875)" fill="#BCE8FF"/>
<rect x="75" y="61.875" width="3.75" height="3.75" transform="rotate(-180 75 61.875)" fill="#69CDFF"/>
<rect x="75" y="69.375" width="3.75" height="3.75" transform="rotate(-180 75 69.375)" fill="#69CDFF"/>
<rect x="75" y="73.125" width="3.75" height="3.75" transform="rotate(-180 75 73.125)" fill="#58C0F5"/>
<rect x="60" y="73.125" width="3.75" height="3.75" transform="rotate(-180 60 73.125)" fill="#45B2E9"/>
<rect x="60" y="65.625" width="3.75" height="3.75" transform="rotate(-180 60 65.625)" fill="#45B2E9"/>
<rect x="60" y="58.125" width="3.75" height="3.75" transform="rotate(-180 60 58.125)" fill="#69CDFF"/>
<rect x="60" y="69.375" width="3.75" height="3.75" transform="rotate(-180 60 69.375)" fill="#45B2E9"/>
<rect x="60" y="61.875" width="3.75" height="3.75" transform="rotate(-180 60 61.875)" fill="#58C0F5"/>
<rect x="60" y="54.375" width="3.75" height="3.75" transform="rotate(-180 60 54.375)" fill="#3EA0D2"/>
<rect x="60" y="50.625" width="3.75" height="3.75" transform="rotate(-180 60 50.625)" fill="#BCE8FF"/>
<rect x="45" y="73.125" width="3.75" height="3.75" transform="rotate(-180 45 73.125)" fill="#45B2E9"/>
<rect x="45" y="65.625" width="3.75" height="3.75" transform="rotate(-180 45 65.625)" fill="#45B2E9"/>
<rect x="45" y="58.125" width="3.75" height="3.75" transform="rotate(-180 45 58.125)" fill="#69CDFF"/>
<rect x="45" y="69.375" width="3.75" height="3.75" transform="rotate(-180 45 69.375)" fill="#45B2E9"/>
<rect x="45" y="61.875" width="3.75" height="3.75" transform="rotate(-180 45 61.875)" fill="#45B2E9"/>
<rect x="45" y="54.375" width="3.75" height="3.75" transform="rotate(-180 45 54.375)" fill="#69CDFF"/>
<rect x="45" y="73.125" width="3.75" height="3.75" transform="rotate(-180 45 73.125)" fill="#45B2E9"/>
<rect x="45" y="65.625" width="3.75" height="3.75" transform="rotate(-180 45 65.625)" fill="#45B2E9"/>
<rect x="45" y="58.125" width="3.75" height="3.75" transform="rotate(-180 45 58.125)" fill="#58C0F5"/>
<rect x="45" y="69.375" width="3.75" height="3.75" transform="rotate(-180 45 69.375)" fill="#45B2E9"/>
<rect x="45" y="61.875" width="3.75" height="3.75" transform="rotate(-180 45 61.875)" fill="#45B2E9"/>
<rect x="45" y="50.625" width="3.75" height="3.75" transform="rotate(-180 45 50.625)" fill="#69CDFF"/>
<rect x="45" y="46.875" width="3.75" height="3.75" transform="rotate(-180 45 46.875)" fill="#3EA0D2"/>
<rect x="45" y="43.125" width="3.75" height="3.75" transform="rotate(-180 45 43.125)" fill="#69CDFF"/>
<rect x="30" y="73.125" width="3.75" height="3.75" transform="rotate(-180 30 73.125)" fill="#45B2E9"/>
<rect x="30" y="76.875" width="3.75" height="3.75" transform="rotate(-180 30 76.875)" fill="#1C6A92"/>
<rect x="18.75" y="76.875" width="3.75" height="3.75" transform="rotate(-180 18.75 76.875)" fill="#1C6A92"/>
<rect x="22.5" y="76.875" width="3.75" height="3.75" transform="rotate(-180 22.5 76.875)" fill="#2B84B1"/>
<rect x="22.5" y="80.625" width="3.75" height="3.75" transform="rotate(-180 22.5 80.625)" fill="#2B84B1"/>
<rect x="30" y="65.625" width="3.75" height="3.75" transform="rotate(-180 30 65.625)" fill="#58C0F5"/>
<rect x="30" y="58.125" width="3.75" height="3.75" transform="rotate(-180 30 58.125)" fill="#69CDFF"/>
<rect x="30" y="69.375" width="3.75" height="3.75" transform="rotate(-180 30 69.375)" fill="#45B2E9"/>
<rect x="30" y="61.875" width="3.75" height="3.75" transform="rotate(-180 30 61.875)" fill="#69CDFF"/>
<rect x="30" y="54.375" width="3.75" height="3.75" transform="rotate(-180 30 54.375)" fill="#69CDFF"/>
<rect x="30" y="50.625" width="3.75" height="3.75" transform="rotate(-180 30 50.625)" fill="#9DDEFF"/>
<rect x="75" y="58.125" width="3.75" height="3.75" transform="rotate(-180 75 58.125)" fill="#3EA0D2"/>
<rect x="75" y="54.375" width="3.75" height="3.75" transform="rotate(-180 75 54.375)" fill="#BCE8FF"/>
<rect x="75" y="65.625" width="3.75" height="3.75" transform="rotate(-180 75 65.625)" fill="#69CDFF"/>
<rect x="86.25" y="69.375" width="3.75" height="3.75" transform="rotate(-180 86.25 69.375)" fill="#69CDFF"/>
<rect x="86.25" y="65.625" width="3.75" height="3.75" transform="rotate(-180 86.25 65.625)" fill="#69CDFF"/>
<rect x="86.25" y="61.875" width="3.75" height="3.75" transform="rotate(-180 86.25 61.875)" fill="#45B2E9"/>
<rect x="86.25" y="58.125" width="3.75" height="3.75" transform="rotate(-180 86.25 58.125)" fill="#198FCB"/>
<rect x="67.5" y="61.875" width="3.75" height="3.75" transform="rotate(-180 67.5 61.875)" fill="#69CDFF"/>
<rect x="67.5" y="69.375" width="3.75" height="3.75" transform="rotate(-180 67.5 69.375)" fill="#45B2E9"/>
<rect x="67.5" y="73.125" width="3.75" height="3.75" transform="rotate(-180 67.5 73.125)" fill="#45B2E9"/>
<rect x="52.5" y="73.125" width="3.75" height="3.75" transform="rotate(-180 52.5 73.125)" fill="#45B2E9"/>
<rect x="52.5" y="65.625" width="3.75" height="3.75" transform="rotate(-180 52.5 65.625)" fill="#45B2E9"/>
<rect x="52.5" y="58.125" width="3.75" height="3.75" transform="rotate(-180 52.5 58.125)" fill="#58C0F5"/>
<rect x="52.5" y="69.375" width="3.75" height="3.75" transform="rotate(-180 52.5 69.375)" fill="#45B2E9"/>
<rect x="52.5" y="61.875" width="3.75" height="3.75" transform="rotate(-180 52.5 61.875)" fill="#45B2E9"/>
<rect x="52.5" y="54.375" width="3.75" height="3.75" transform="rotate(-180 52.5 54.375)" fill="#69CDFF"/>
<rect x="52.5" y="50.625" width="3.75" height="3.75" transform="rotate(-180 52.5 50.625)" fill="#3EA0D2"/>
<rect x="52.5" y="46.875" width="3.75" height="3.75" transform="rotate(-180 52.5 46.875)" fill="#BCE8FF"/>
<rect x="37.5" y="73.125" width="3.75" height="3.75" transform="rotate(-180 37.5 73.125)" fill="#45B2E9"/>
<rect x="37.5" y="65.625" width="3.75" height="3.75" transform="rotate(-180 37.5 65.625)" fill="#69CDFF"/>
<rect x="37.5" y="58.125" width="3.75" height="3.75" transform="rotate(-180 37.5 58.125)" fill="#69CDFF"/>
<rect x="37.5" y="69.375" width="3.75" height="3.75" transform="rotate(-180 37.5 69.375)" fill="#45B2E9"/>
<rect x="37.5" y="61.875" width="3.75" height="3.75" transform="rotate(-180 37.5 61.875)" fill="#45B2E9"/>
<rect x="37.5" y="54.375" width="3.75" height="3.75" transform="rotate(-180 37.5 54.375)" fill="#69CDFF"/>
<rect x="37.5" y="73.125" width="3.75" height="3.75" transform="rotate(-180 37.5 73.125)" fill="#45B2E9"/>
<rect x="37.5" y="65.625" width="3.75" height="3.75" transform="rotate(-180 37.5 65.625)" fill="#45B2E9"/>
<rect x="37.5" y="58.125" width="3.75" height="3.75" transform="rotate(-180 37.5 58.125)" fill="#69CDFF"/>
<rect x="37.5" y="69.375" width="3.75" height="3.75" transform="rotate(-180 37.5 69.375)" fill="#45B2E9"/>
<rect x="37.5" y="61.875" width="3.75" height="3.75" transform="rotate(-180 37.5 61.875)" fill="#58C0F5"/>
<rect x="37.5" y="54.375" width="3.75" height="3.75" transform="rotate(-180 37.5 54.375)" fill="#69CDFF"/>
<rect x="37.5" y="50.625" width="3.75" height="3.75" transform="rotate(-180 37.5 50.625)" fill="#9DDEFF"/>
<rect x="22.5" y="73.125" width="3.75" height="3.75" transform="rotate(-180 22.5 73.125)" fill="#58C0F5"/>
<rect x="22.5" y="65.625" width="3.75" height="3.75" transform="rotate(-180 22.5 65.625)" fill="#69CDFF"/>
<rect x="22.5" y="58.125" width="3.75" height="3.75" transform="rotate(-180 22.5 58.125)" fill="#69CDFF"/>
<rect x="22.5" y="69.375" width="3.75" height="3.75" transform="rotate(-180 22.5 69.375)" fill="#69CDFF"/>
<rect x="22.5" y="61.875" width="3.75" height="3.75" transform="rotate(-180 22.5 61.875)" fill="#69CDFF"/>
<rect x="22.5" y="54.375" width="3.75" height="3.75" transform="rotate(-180 22.5 54.375)" fill="#69CDFF"/>
<rect x="22.5" y="50.625" width="3.75" height="3.75" transform="rotate(-180 22.5 50.625)" fill="#9DDEFF"/>
<rect x="15" y="73.125" width="3.75" height="3.75" transform="rotate(-180 15 73.125)" fill="#368EBA"/>
<rect x="15" y="65.625" width="3.75" height="3.75" transform="rotate(-180 15 65.625)" fill="#57B2E0"/>
<rect x="11.25" y="65.625" width="3.75" height="3.75" transform="rotate(-180 11.25 65.625)" fill="#368EBA"/>
<rect x="15" y="58.125" width="3.75" height="3.75" transform="rotate(-180 15 58.125)" fill="#368EBA"/>
<rect x="15" y="69.375" width="3.75" height="3.75" transform="rotate(-180 15 69.375)" fill="#57B2E0"/>
<rect x="11.25" y="69.375" width="3.75" height="3.75" transform="rotate(-180 11.25 69.375)" fill="#368EBA"/>
<rect x="15" y="61.875" width="3.75" height="3.75" transform="rotate(-180 15 61.875)" fill="#57B2E0"/>
<rect x="11.25" y="61.875" width="3.75" height="3.75" transform="rotate(-180 11.25 61.875)" fill="#368EBA"/>
<rect x="15" y="54.375" width="3.75" height="3.75" transform="rotate(-180 15 54.375)" fill="#368EBA"/>
<rect x="15" y="50.625" width="3.75" height="3.75" transform="rotate(-180 15 50.625)" fill="#368EBA"/>
<rect x="67.5" y="58.125" width="3.75" height="3.75" transform="rotate(-180 67.5 58.125)" fill="#3EA0D2"/>
<rect x="67.5" y="54.375" width="3.75" height="3.75" transform="rotate(-180 67.5 54.375)" fill="#69CDFF"/>
<rect x="67.5" y="50.625" width="3.75" height="3.75" transform="rotate(-180 67.5 50.625)" fill="#BCE8FF"/>
<rect x="67.5" y="65.625" width="3.75" height="3.75" transform="rotate(-180 67.5 65.625)" fill="#58C0F5"/>
<rect x="90" y="69.375" width="3.75" height="3.75" fill="#69CDFF"/>
</svg>
