<svg width="188" height="89" viewBox="0 0 188 89" fill="none" xmlns="http://www.w3.org/2000/svg">
<path d="M186 54.5L184 66L186 69C186 69 179.685 77.5 177.5 79C175.315 80.5 172 80 172 78.5L171.5 81L166 83L163 81V84L157.5 86L156 84L151.5 87.5H98.5L89 80.5H77L63.5 87.5L10.5 86.5L2 80.5V65.5L7.5 60V43.5L20 13L25.5 10.5L35 25.5L42 26L58 18L49 7.5L65.5 2L81.5 10.5L84.5 8L92 12L91.5 14L94 13L101.5 17V19L104.5 18L110 22L111 24L114 22.5L120.5 26L121.5 28.5L125 27.5L131 30.5V33L133.5 32L142 36V38.5L186 54.5Z" fill="#DAFEF2" stroke="#383733" stroke-width="3" stroke-linecap="round" stroke-linejoin="round"/>
<path d="M78 34.5V66.5M94 50.5H62" stroke="#4DFFCD" stroke-width="3" stroke-linejoin="round"/>
</svg>
