<svg width="120" height="120" viewBox="0 0 120 120" fill="none" xmlns="http://www.w3.org/2000/svg">
<rect x="110.625" y="75" width="3.75" height="3.75" fill="#7886B1"/>
<rect x="110.625" y="71.25" width="3.75" height="3.75" fill="#7886B1"/>
<rect x="110.625" y="67.5" width="3.75" height="3.75" fill="#7886B1"/>
<rect x="103.125" y="67.5" width="3.75" height="3.75" fill="#A292BA"/>
<rect x="103.125" y="71.25" width="3.75" height="3.75" fill="#C3C1C6"/>
<rect x="103.125" y="75" width="3.75" height="3.75" fill="#BAB8BD"/>
<rect x="103.125" y="78.75" width="3.75" height="3.75" fill="#7886B1"/>
<rect x="95.625" y="78.75" width="3.75" height="3.75" fill="#C3C1C6"/>
<rect x="95.625" y="75" width="3.75" height="3.75" fill="#BAB8BD"/>
<rect x="95.625" y="71.25" width="3.75" height="3.75" fill="#C3C1C6"/>
<rect x="95.625" y="67.5" width="3.75" height="3.75" fill="#A292BA"/>
<rect x="95.625" y="63.75" width="3.75" height="3.75" fill="#B9B6BE"/>
<rect x="106.875" y="67.5" width="3.75" height="3.75" fill="#B9B6BE"/>
<rect x="106.875" y="71.25" width="3.75" height="3.75" fill="#A292BA"/>
<rect x="106.875" y="75" width="3.75" height="3.75" fill="#C3C1C6"/>
<rect x="106.875" y="78.75" width="3.75" height="3.75" fill="#7886B1"/>
<rect x="99.3751" y="67.5" width="3.75" height="3.75" fill="#A292BA"/>
<rect x="99.3751" y="63.75" width="3.75" height="3.75" fill="#B9B6BE"/>
<rect x="99.3751" y="71.25" width="3.75" height="3.75" fill="#BAB8BD"/>
<rect x="99.3751" y="75" width="3.75" height="3.75" fill="#C3C1C6"/>
<rect x="99.3751" y="78.75" width="3.75" height="3.75" fill="#CFD2D1"/>
<rect x="91.875" y="78.75" width="3.75" height="3.75" fill="#BAB8BD"/>
<rect x="91.875" y="75" width="3.75" height="3.75" fill="#C3C1C6"/>
<rect x="91.875" y="71.25" width="3.75" height="3.75" fill="#BAB8BD"/>
<rect x="91.875" y="67.5" width="3.75" height="3.75" fill="#A292BA"/>
<rect x="91.875" y="63.75" width="3.75" height="3.75" fill="#B9B6BE"/>
<rect x="95.625" y="82.5" width="3.75" height="3.75" fill="#99DCE8"/>
<rect x="91.875" y="82.5" width="3.75" height="3.75" fill="#99DCE8"/>
<rect x="88.125" y="78.75" width="3.75" height="3.75" fill="#C3C1C6"/>
<rect x="88.125" y="75" width="3.75" height="3.75" fill="#BAB8BD"/>
<rect x="88.125" y="71.25" width="3.75" height="3.75" fill="#C3C1C6"/>
<rect x="88.125" y="67.5" width="3.75" height="3.75" fill="#A292BA"/>
<rect x="88.125" y="63.75" width="3.75" height="3.75" fill="#B9B6BE"/>
<rect x="84.375" y="82.5" width="3.75" height="3.75" fill="#6EC6D5"/>
<rect x="84.375" y="78.75" width="3.75" height="3.75" fill="#BAB8BD"/>
<rect x="84.375" y="75" width="3.75" height="3.75" fill="#C3C1C6"/>
<rect x="84.375" y="71.25" width="3.75" height="3.75" fill="#BAB8BD"/>
<rect x="84.375" y="67.5" width="3.75" height="3.75" fill="#A292BA"/>
<rect x="84.375" y="63.75" width="3.75" height="3.75" fill="#B9B6BE"/>
<rect x="80.625" y="82.5" width="3.75" height="3.75" fill="#6EC6D5"/>
<rect x="80.625" y="78.75" width="3.75" height="3.75" fill="#C3C1C6"/>
<rect x="80.625" y="75" width="3.75" height="3.75" fill="#BAB8BD"/>
<rect x="80.625" y="71.25" width="3.75" height="3.75" fill="#C3C1C6"/>
<rect x="80.625" y="67.5" width="3.75" height="3.75" fill="#BAB8BD"/>
<rect x="80.625" y="63.75" width="3.75" height="3.75" fill="#A292BA"/>
<rect x="80.625" y="60" width="3.75" height="3.75" fill="#B9B6BE"/>
<rect x="76.875" y="86.25" width="3.75" height="3.75" fill="#6EC6D5"/>
<rect x="73.125" y="82.5" width="3.75" height="3.75" fill="#6EC6D5"/>
<rect x="69.375" y="82.5" width="3.75" height="3.75" fill="#6EC6D5"/>
<rect x="69.375" y="78.75" width="3.75" height="3.75" fill="#BAB8BD"/>
<rect x="69.375" y="75" width="3.75" height="3.75" fill="#C3C1C6"/>
<rect x="69.375" y="71.25" width="3.75" height="3.75" fill="#BAB8BD"/>
<rect x="69.375" y="67.5" width="3.75" height="3.75" fill="#C3C1C6"/>
<rect x="69.375" y="63.75" width="3.75" height="3.75" fill="#BAB8BD"/>
<rect x="69.375" y="60" width="3.75" height="3.75" fill="#A292BA"/>
<rect x="69.375" y="56.25" width="3.75" height="3.75" fill="#957ABC"/>
<rect x="65.625" y="82.5" width="3.75" height="3.75" fill="#6EC6D5"/>
<rect x="65.625" y="78.75" width="3.75" height="3.75" fill="#C3C1C6"/>
<rect x="65.625" y="75" width="3.75" height="3.75" fill="#BAB8BD"/>
<rect x="65.625" y="71.25" width="3.75" height="3.75" fill="#C3C1C6"/>
<rect x="65.625" y="67.5" width="3.75" height="3.75" fill="#BAB8BD"/>
<rect x="65.625" y="63.75" width="3.75" height="3.75" fill="#C3C1C6"/>
<rect x="65.625" y="60" width="3.75" height="3.75" fill="#A292BA"/>
<rect x="65.625" y="56.25" width="3.75" height="3.75" fill="#957ABC"/>
<rect x="61.875" y="86.25" width="3.75" height="3.75" fill="#6EC6D5"/>
<rect x="58.125" y="86.25" width="3.75" height="3.75" fill="#6EC6D5"/>
<rect x="54.375" y="82.5" width="3.75" height="3.75" fill="#6EC6D5"/>
<rect x="54.375" y="75" width="3.75" height="3.75" fill="#C3C1C6"/>
<rect x="54.375" y="71.25" width="3.75" height="3.75" fill="#BAB8BD"/>
<rect x="54.375" y="67.5" width="3.75" height="3.75" fill="#C3C1C6"/>
<rect x="54.375" y="63.75" width="3.75" height="3.75" fill="#BAB8BD"/>
<rect x="54.375" y="60" width="3.75" height="3.75" fill="#8355C8"/>
<rect x="54.375" y="56.25" width="3.75" height="3.75" fill="#BAB8BD"/>
<rect x="54.375" y="52.5" width="3.75" height="3.75" fill="#C3C1C6"/>
<rect x="54.375" y="48.75" width="3.75" height="3.75" fill="#A292BA"/>
<rect x="54.375" y="45" width="3.75" height="3.75" fill="#8E7AAB"/>
<rect x="54.375" y="78.75" width="3.75" height="3.75" fill="#7F87D2"/>
<rect x="50.625" y="86.25" width="3.75" height="3.75" fill="#99DCE8"/>
<rect x="50.625" y="82.5" width="3.75" height="3.75" fill="#99DCE8"/>
<rect x="50.625" y="75" width="3.75" height="3.75" fill="#BAB8BD"/>
<rect x="50.625" y="71.25" width="3.75" height="3.75" fill="#C3C1C6"/>
<rect x="50.625" y="67.5" width="3.75" height="3.75" fill="#BAB8BD"/>
<rect x="50.625" y="63.75" width="3.75" height="3.75" fill="#C3C1C6"/>
<rect x="50.625" y="60" width="3.75" height="3.75" fill="#BAB8BD"/>
<rect x="50.625" y="56.25" width="3.75" height="3.75" fill="#8355C8"/>
<rect x="50.625" y="52.5" width="3.75" height="3.75" fill="#C3C1C6"/>
<rect x="50.625" y="48.75" width="3.75" height="3.75" fill="#C3C1C6"/>
<rect x="50.625" y="45" width="3.75" height="3.75" fill="#A292BA"/>
<rect x="50.625" y="41.25" width="3.75" height="3.75" fill="#8E7AAB"/>
<rect x="50.625" y="78.75" width="3.75" height="3.75" fill="#7F87D2"/>
<rect x="46.875" y="86.25" width="3.75" height="3.75" fill="#99DCE8"/>
<rect x="46.875" y="82.5" width="3.75" height="3.75" fill="#99DCE8"/>
<rect x="46.875" y="75" width="3.75" height="3.75" fill="#7F87D2"/>
<rect x="46.875" y="71.25" width="3.75" height="3.75" fill="#BAB8BD"/>
<rect x="46.875" y="67.5" width="3.75" height="3.75" fill="#C3C1C6"/>
<rect x="46.875" y="63.75" width="3.75" height="3.75" fill="#BAB8BD"/>
<rect x="46.875" y="60" width="3.75" height="3.75" fill="#C3C1C6"/>
<rect x="46.875" y="56.25" width="3.75" height="3.75" fill="#8355C8"/>
<rect x="46.875" y="52.5" width="3.75" height="3.75" fill="#C3C1C6"/>
<rect x="46.875" y="48.75" width="3.75" height="3.75" fill="#AFA4C1"/>
<rect x="46.875" y="45" width="3.75" height="3.75" fill="#A292BA"/>
<rect x="46.875" y="41.25" width="3.75" height="3.75" fill="#957ABC"/>
<rect x="46.875" y="78.75" width="3.75" height="3.75" fill="#7F87D2"/>
<rect x="43.125" y="86.25" width="3.75" height="3.75" fill="#99DCE8"/>
<rect x="43.125" y="82.5" width="3.75" height="3.75" fill="#99DCE8"/>
<rect x="43.125" y="75" width="3.75" height="3.75" fill="#7F87D2"/>
<rect x="43.125" y="71.25" width="3.75" height="3.75" fill="#C3C1C6"/>
<rect x="43.125" y="67.5" width="3.75" height="3.75" fill="#BAB8BD"/>
<rect x="43.125" y="63.75" width="3.75" height="3.75" fill="#C3C1C6"/>
<rect x="43.125" y="60" width="3.75" height="3.75" fill="#8355C8"/>
<rect x="43.125" y="56.25" width="3.75" height="3.75" fill="#C3C1C6"/>
<rect x="43.125" y="52.5" width="3.75" height="3.75" fill="#BAB8BD"/>
<rect x="43.125" y="48.75" width="3.75" height="3.75" fill="#AFA4C1"/>
<rect x="43.125" y="45" width="3.75" height="3.75" fill="#D0BFEB"/>
<rect x="43.125" y="41.25" width="3.75" height="3.75" fill="#D0BFEB"/>
<rect x="39.375" y="37.5" width="3.75" height="3.75" fill="#957ABC"/>
<rect x="43.125" y="37.5" width="3.75" height="3.75" fill="#957ABC"/>
<rect x="43.125" y="78.75" width="3.75" height="3.75" fill="#7F87D2"/>
<rect x="39.375" y="86.25" width="3.75" height="3.75" fill="#99DCE8"/>
<rect x="39.375" y="82.5" width="3.75" height="3.75" fill="#99DCE8"/>
<rect x="39.375" y="75" width="3.75" height="3.75" fill="#7F87D2"/>
<rect x="39.375" y="71.25" width="3.75" height="3.75" fill="#BAB8BD"/>
<rect x="39.375" y="67.5" width="3.75" height="3.75" fill="#C3C1C6"/>
<rect x="39.375" y="63.75" width="3.75" height="3.75" fill="#BAB8BD"/>
<rect x="39.375" y="60" width="3.75" height="3.75" fill="#8355C8"/>
<rect x="39.375" y="56.25" width="3.75" height="3.75" fill="#BAB8BD"/>
<rect x="39.375" y="52.5" width="3.75" height="3.75" fill="#C3C1C6"/>
<rect x="39.375" y="48.75" width="3.75" height="3.75" fill="#AFA4C1"/>
<rect x="39.375" y="45" width="3.75" height="3.75" fill="#D0BFEB"/>
<rect x="39.375" y="78.75" width="3.75" height="3.75" fill="#7F87D2"/>
<rect x="35.625" y="82.5" width="3.75" height="3.75" fill="#99DCE8"/>
<rect x="35.625" y="75" width="3.75" height="3.75" fill="#7F87D2"/>
<rect x="35.625" y="71.25" width="3.75" height="3.75" fill="#C3C1C6"/>
<rect x="35.625" y="67.5" width="3.75" height="3.75" fill="#BAB8BD"/>
<rect x="35.625" y="63.75" width="3.75" height="3.75" fill="#8355C8"/>
<rect x="35.625" y="60" width="3.75" height="3.75" fill="#BAB8BD"/>
<rect x="35.625" y="56.25" width="3.75" height="3.75" fill="#C3C1C6"/>
<rect x="35.625" y="52.5" width="3.75" height="3.75" fill="#AFA4C1"/>
<rect x="35.625" y="48.75" width="3.75" height="3.75" fill="#D0BFEB"/>
<rect x="35.625" y="45" width="3.75" height="3.75" fill="#D0BFEB"/>
<rect x="35.625" y="78.75" width="3.75" height="3.75" fill="#7F87D2"/>
<rect x="31.875" y="82.5" width="3.75" height="3.75" fill="#99DCE8"/>
<rect x="31.875" y="75" width="3.75" height="3.75" fill="#7F87D2"/>
<rect x="31.875" y="71.25" width="3.75" height="3.75" fill="#BAB8BD"/>
<rect x="31.875" y="67.5" width="3.75" height="3.75" fill="#C3C1C6"/>
<rect x="31.875" y="63.75" width="3.75" height="3.75" fill="#BAB8BD"/>
<rect x="31.875" y="60" width="3.75" height="3.75" fill="#C3C1C6"/>
<rect x="31.875" y="56.25" width="3.75" height="3.75" fill="#BAB8BD"/>
<rect x="31.875" y="52.5" width="3.75" height="3.75" fill="#AFA4C1"/>
<rect x="31.875" y="48.75" width="3.75" height="3.75" fill="#D0BFEB"/>
<rect x="31.875" y="45" width="3.75" height="3.75" fill="#D0BFEB"/>
<rect x="31.875" y="78.75" width="3.75" height="3.75" fill="#7F87D2"/>
<rect x="28.125" y="82.5" width="3.75" height="3.75" fill="#99DCE8"/>
<rect x="28.125" y="75" width="3.75" height="3.75" fill="#7F87D2"/>
<rect x="28.125" y="71.25" width="3.75" height="3.75" fill="#C3C1C6"/>
<rect x="28.125" y="67.5" width="3.75" height="3.75" fill="#BAB8BD"/>
<rect x="28.125" y="63.75" width="3.75" height="3.75" fill="#C3C1C6"/>
<rect x="28.125" y="60" width="3.75" height="3.75" fill="#BAB8BD"/>
<rect x="28.125" y="56.25" width="3.75" height="3.75" fill="#C3C1C6"/>
<rect x="28.125" y="52.5" width="3.75" height="3.75" fill="#AFA4C1"/>
<rect x="28.125" y="48.75" width="3.75" height="3.75" fill="#D0BFEB"/>
<rect x="28.125" y="45" width="3.75" height="3.75" fill="#D0BFEB"/>
<rect x="28.125" y="78.75" width="3.75" height="3.75" fill="#7F87D2"/>
<rect x="24.375" y="82.5" width="3.75" height="3.75" fill="#99DCE8"/>
<rect x="24.375" y="75" width="3.75" height="3.75" fill="#7F87D2"/>
<rect x="24.375" y="71.25" width="3.75" height="3.75" fill="#7F87D2"/>
<rect x="24.375" y="67.5" width="3.75" height="3.75" fill="#C3C1C6"/>
<rect x="24.375" y="63.75" width="3.75" height="3.75" fill="#BAB8BD"/>
<rect x="24.375" y="60" width="3.75" height="3.75" fill="#C3C1C6"/>
<rect x="24.375" y="56.25" width="3.75" height="3.75" fill="#BAB8BD"/>
<rect x="24.375" y="52.5" width="3.75" height="3.75" fill="#AFA4C1"/>
<rect x="24.375" y="48.75" width="3.75" height="3.75" fill="#D0BFEB"/>
<rect x="24.375" y="45" width="3.75" height="3.75" fill="#D0BFEB"/>
<rect x="24.375" y="78.75" width="3.75" height="3.75" fill="#7F87D2"/>
<rect x="20.625" y="82.5" width="3.75" height="3.75" fill="#99DCE8"/>
<rect x="20.625" y="86.25" width="3.75" height="3.75" fill="#6EC6D5"/>
<rect x="20.625" y="75" width="3.75" height="3.75" fill="#7F87D2"/>
<rect x="20.625" y="71.25" width="3.75" height="3.75" fill="#7F87D2"/>
<rect x="20.625" y="67.5" width="3.75" height="3.75" fill="#7F87D2"/>
<rect x="20.625" y="63.75" width="3.75" height="3.75" fill="#7F87D2"/>
<rect x="20.625" y="60" width="3.75" height="3.75" fill="#BAB8BD"/>
<rect x="20.625" y="56.25" width="3.75" height="3.75" fill="#C3C1C6"/>
<rect x="20.625" y="52.5" width="3.75" height="3.75" fill="#AFA4C1"/>
<rect x="20.625" y="48.75" width="3.75" height="3.75" fill="#D0BFEB"/>
<rect x="20.625" y="45" width="3.75" height="3.75" fill="#D0BFEB"/>
<rect x="20.625" y="78.75" width="3.75" height="3.75" fill="#7F87D2"/>
<rect x="16.875" y="82.5" width="3.75" height="3.75" fill="#99DCE8"/>
<rect x="16.875" y="75" width="3.75" height="3.75" fill="#7F87D2"/>
<rect x="16.875" y="71.25" width="3.75" height="3.75" fill="#7F87D2"/>
<rect x="16.875" y="67.5" width="3.75" height="3.75" fill="#AAAED7"/>
<rect x="16.875" y="63.75" width="3.75" height="3.75" fill="#AAAED7"/>
<rect x="16.875" y="60" width="3.75" height="3.75" fill="#AAAED7"/>
<rect x="16.875" y="56.25" width="3.75" height="3.75" fill="#BAB8BD"/>
<rect x="16.875" y="52.5" width="3.75" height="3.75" fill="#AFA4C1"/>
<rect x="16.875" y="48.75" width="3.75" height="3.75" fill="#A292BA"/>
<rect x="16.875" y="45" width="3.75" height="3.75" fill="#D0BFEB"/>
<rect x="20.625" y="41.25" width="3.75" height="3.75" fill="#D0BFEB"/>
<rect x="16.875" y="78.75" width="3.75" height="3.75" fill="#7F87D2"/>
<rect x="13.125" y="82.5" width="3.75" height="3.75" fill="#99DCE8"/>
<rect x="16.875" y="86.25" width="3.75" height="3.75" fill="#6EC6D5"/>
<rect x="13.125" y="86.25" width="3.75" height="3.75" fill="#6EC6D5"/>
<rect x="13.125" y="75" width="3.75" height="3.75" fill="#AAAED7"/>
<rect x="13.125" y="71.25" width="3.75" height="3.75" fill="#AAAED7"/>
<rect x="13.125" y="67.5" width="3.75" height="3.75" fill="#ECECEC"/>
<rect x="13.125" y="63.75" width="3.75" height="3.75" fill="#ECECEC"/>
<rect x="13.125" y="60" width="3.75" height="3.75" fill="#878DC8"/>
<rect x="13.125" y="56.25" width="3.75" height="3.75" fill="#A292BA"/>
<rect x="13.125" y="52.5" width="3.75" height="3.75" fill="#A292BA"/>
<rect x="13.125" y="48.75" width="3.75" height="3.75" fill="#B9B6BE"/>
<rect x="9.37503" y="75" width="3.75" height="3.75" fill="#878DC8"/>
<rect x="9.37503" y="71.25" width="3.75" height="3.75" fill="#AAAED7"/>
<rect x="9.37503" y="67.5" width="3.75" height="3.75" fill="#AAAED7"/>
<rect x="9.37503" y="63.75" width="3.75" height="3.75" fill="#ECECEC"/>
<rect x="5.625" y="67.5" width="3.75" height="3.75" fill="#878DC8"/>
<rect x="5.625" y="71.25" width="3.75" height="3.75" fill="#878DC8"/>
<rect x="9.37503" y="60" width="3.75" height="3.75" fill="#C3C1C6"/>
<rect x="9.37503" y="56.25" width="3.75" height="3.75" fill="#B9B6BE"/>
<rect x="9.37503" y="52.5" width="3.75" height="3.75" fill="#B9B6BE"/>
<rect x="5.625" y="60" width="3.75" height="3.75" fill="#ECECEC"/>
<rect x="13.125" y="78.75" width="3.75" height="3.75" fill="#AAAED7"/>
<rect x="9.37503" y="82.5" width="3.75" height="3.75" fill="#6EC6D5"/>
<rect x="5.625" y="78.75" width="3.75" height="3.75" fill="#878DC8"/>
<rect x="9.37503" y="78.75" width="3.75" height="3.75" fill="#AAAED7"/>
<rect x="61.875" y="82.5" width="3.75" height="3.75" fill="#6EC6D5"/>
<rect x="61.875" y="78.75" width="3.75" height="3.75" fill="#BAB8BD"/>
<rect x="61.875" y="75" width="3.75" height="3.75" fill="#C3C1C6"/>
<rect x="61.875" y="71.25" width="3.75" height="3.75" fill="#BAB8BD"/>
<rect x="61.875" y="67.5" width="3.75" height="3.75" fill="#8355C8"/>
<rect x="61.875" y="63.75" width="3.75" height="3.75" fill="#BAB8BD"/>
<rect x="61.875" y="60" width="3.75" height="3.75" fill="#C3C1C6"/>
<rect x="61.875" y="56.25" width="3.75" height="3.75" fill="#A292BA"/>
<rect x="61.875" y="52.5" width="3.75" height="3.75" fill="#957ABC"/>
<rect x="58.125" y="82.5" width="3.75" height="3.75" fill="#6EC6D5"/>
<rect x="58.125" y="78.75" width="3.75" height="3.75" fill="#C3C1C6"/>
<rect x="58.125" y="75" width="3.75" height="3.75" fill="#BAB8BD"/>
<rect x="58.125" y="71.25" width="3.75" height="3.75" fill="#C3C1C6"/>
<rect x="58.125" y="67.5" width="3.75" height="3.75" fill="#BAB8BD"/>
<rect x="58.125" y="63.75" width="3.75" height="3.75" fill="#8355C8"/>
<rect x="58.125" y="60" width="3.75" height="3.75" fill="#8355C8"/>
<rect x="58.125" y="56.25" width="3.75" height="3.75" fill="#C3C1C6"/>
<rect x="58.125" y="52.5" width="3.75" height="3.75" fill="#A292BA"/>
<rect x="58.125" y="48.75" width="3.75" height="3.75" fill="#8E7AAB"/>
<rect x="73.125" y="78.75" width="3.75" height="3.75" fill="#C3C1C6"/>
<rect x="73.125" y="75" width="3.75" height="3.75" fill="#BAB8BD"/>
<rect x="73.125" y="71.25" width="3.75" height="3.75" fill="#C3C1C6"/>
<rect x="73.125" y="67.5" width="3.75" height="3.75" fill="#BAB8BD"/>
<rect x="73.125" y="63.75" width="3.75" height="3.75" fill="#A292BA"/>
<rect x="73.125" y="60" width="3.75" height="3.75" fill="#957ABC"/>
<rect x="76.875" y="82.5" width="3.75" height="3.75" fill="#6EC6D5"/>
<rect x="76.875" y="78.75" width="3.75" height="3.75" fill="#BAB8BD"/>
<rect x="76.875" y="75" width="3.75" height="3.75" fill="#C3C1C6"/>
<rect x="76.875" y="71.25" width="3.75" height="3.75" fill="#BAB8BD"/>
<rect x="76.875" y="67.5" width="3.75" height="3.75" fill="#C3C1C6"/>
<rect x="76.875" y="63.75" width="3.75" height="3.75" fill="#A292BA"/>
<rect x="76.875" y="60" width="3.75" height="3.75" fill="#B9B6BE"/>
<rect x="103.125" y="63.75" width="3.75" height="3.75" fill="#B9B6BE"/>
</svg>
