<svg width="120" height="120" viewBox="0 0 120 120" fill="none" xmlns="http://www.w3.org/2000/svg">
<rect x="106.875" y="71.25" width="3.75" height="3.75" fill="white"/>
<rect x="103.125" y="71.25" width="3.75" height="3.75" fill="#262626"/>
<rect x="103.125" y="67.5" width="3.75" height="3.75" fill="#151515"/>
<rect x="99.375" y="67.5" width="3.75" height="3.75" fill="#151515"/>
<rect x="95.625" y="67.5" width="3.75" height="3.75" fill="#151515"/>
<rect x="91.875" y="67.5" width="3.75" height="3.75" fill="#262626"/>
<rect x="91.875" y="63.75" width="3.75" height="3.75" fill="#151515"/>
<rect x="88.125" y="63.75" width="3.75" height="3.75" fill="#151515"/>
<rect x="84.375" y="63.75" width="3.75" height="3.75" fill="#151515"/>
<rect x="80.625" y="63.75" width="3.75" height="3.75" fill="#151515"/>
<rect x="76.875" y="63.75" width="3.75" height="3.75" fill="#444444"/>
<rect x="61.875" y="63.75" width="3.75" height="3.75" fill="#262626"/>
<rect x="46.875" y="63.75" width="3.75" height="3.75" fill="#262626"/>
<rect x="31.875" y="63.75" width="3.75" height="3.75" fill="#262626"/>
<rect x="16.875" y="63.75" width="3.75" height="3.75" fill="#444444"/>
<rect x="73.125" y="63.75" width="3.75" height="3.75" fill="white"/>
<rect x="58.125" y="63.75" width="3.75" height="3.75" fill="white"/>
<rect x="43.125" y="63.75" width="3.75" height="3.75" fill="#262626"/>
<rect x="28.125" y="63.75" width="3.75" height="3.75" fill="#262626"/>
<rect x="13.125" y="63.75" width="3.75" height="3.75" fill="#262626"/>
<rect x="69.375" y="63.75" width="3.75" height="3.75" fill="#262626"/>
<rect x="54.375" y="63.75" width="3.75" height="3.75" fill="white"/>
<rect x="39.375" y="63.75" width="3.75" height="3.75" fill="#262626"/>
<rect x="24.375" y="63.75" width="3.75" height="3.75" fill="white"/>
<rect x="9.37503" y="63.75" width="3.75" height="3.75" fill="#151515"/>
<rect x="65.625" y="63.75" width="3.75" height="3.75" fill="#262626"/>
<rect x="50.625" y="63.75" width="3.75" height="3.75" fill="white"/>
<rect x="35.625" y="63.75" width="3.75" height="3.75" fill="#262626"/>
<rect x="20.625" y="63.75" width="3.75" height="3.75" fill="white"/>
<rect x="76.875" y="60" width="3.75" height="3.75" fill="#ADADAD"/>
<rect x="61.875" y="60" width="3.75" height="3.75" fill="#262626"/>
<rect x="46.875" y="60" width="3.75" height="3.75" fill="white"/>
<rect x="31.875" y="60" width="3.75" height="3.75" fill="white"/>
<rect x="16.875" y="60" width="3.75" height="3.75" fill="#262626"/>
<rect x="73.125" y="60" width="3.75" height="3.75" fill="#262626"/>
<rect x="58.125" y="60" width="3.75" height="3.75" fill="#262626"/>
<rect x="43.125" y="60" width="3.75" height="3.75" fill="white"/>
<rect x="28.125" y="60" width="3.75" height="3.75" fill="white"/>
<rect x="13.125" y="60" width="3.75" height="3.75" fill="#444444"/>
<rect x="69.375" y="60" width="3.75" height="3.75" fill="#262626"/>
<rect x="54.375" y="60" width="3.75" height="3.75" fill="#262626"/>
<rect x="39.375" y="60" width="3.75" height="3.75" fill="#262626"/>
<rect x="24.375" y="60" width="3.75" height="3.75" fill="#262626"/>
<rect x="9.37503" y="60" width="3.75" height="3.75" fill="#151515"/>
<rect x="9.37503" y="56.25" width="3.75" height="3.75" fill="#444444"/>
<rect x="13.125" y="56.25" width="3.75" height="3.75" fill="#262626"/>
<rect x="16.875" y="56.25" width="3.75" height="3.75" fill="#262626"/>
<rect x="20.625" y="56.25" width="3.75" height="3.75" fill="#262626"/>
<rect x="24.375" y="56.25" width="3.75" height="3.75" fill="#262626"/>
<rect x="28.125" y="56.25" width="3.75" height="3.75" fill="#262626"/>
<rect width="3.75" height="3.75" transform="matrix(-1 0 0 1 35.625 56.25)" fill="white"/>
<rect width="3.75" height="3.75" transform="matrix(-1 0 0 1 39.375 56.25)" fill="#262626"/>
<rect width="3.75" height="3.75" transform="matrix(-1 0 0 1 43.125 56.25)" fill="white"/>
<rect width="3.75" height="3.75" transform="matrix(-1 0 0 1 46.875 56.25)" fill="#262626"/>
<rect width="3.75" height="3.75" transform="matrix(-1 0 0 1 50.625 56.25)" fill="#262626"/>
<rect width="3.75" height="3.75" transform="matrix(-1 0 0 1 54.375 56.25)" fill="#262626"/>
<rect width="3.75" height="3.75" transform="matrix(-1 0 0 1 58.125 56.25)" fill="#262626"/>
<rect width="3.75" height="3.75" transform="matrix(-1 0 0 1 61.875 56.25)" fill="#ADADAD"/>
<rect width="3.75" height="3.75" transform="matrix(-1 0 0 1 65.625 56.25)" fill="#262626"/>
<rect width="3.75" height="3.75" transform="matrix(-1 0 0 1 69.375 56.25)" fill="#262626"/>
<rect width="3.75" height="3.75" transform="matrix(-1 0 0 1 73.125 56.25)" fill="#ADADAD"/>
<rect x="13.125" y="52.5" width="3.75" height="3.75" fill="#151515"/>
<rect x="16.875" y="52.5" width="3.75" height="3.75" fill="#262626"/>
<rect x="20.625" y="52.5" width="3.75" height="3.75" fill="#262626"/>
<rect x="24.375" y="52.5" width="3.75" height="3.75" fill="#262626"/>
<rect x="28.125" y="52.5" width="3.75" height="3.75" fill="white"/>
<rect width="3.75" height="3.75" transform="matrix(-1 0 0 1 35.625 52.5)" fill="#262626"/>
<rect width="3.75" height="3.75" transform="matrix(-1 0 0 1 39.375 52.5)" fill="#262626"/>
<rect width="3.75" height="3.75" transform="matrix(-1 0 0 1 43.125 52.5)" fill="#262626"/>
<rect width="3.75" height="3.75" transform="matrix(-1 0 0 1 46.875 52.5)" fill="#262626"/>
<rect width="3.75" height="3.75" transform="matrix(-1 0 0 1 50.625 52.5)" fill="#262626"/>
<rect width="3.75" height="3.75" transform="matrix(-1 0 0 1 54.375 52.5)" fill="#ADADAD"/>
<rect width="3.75" height="3.75" transform="matrix(-1 0 0 1 58.125 52.5)" fill="#262626"/>
<rect width="3.75" height="3.75" transform="matrix(-1 0 0 1 61.875 52.5)" fill="#262626"/>
<rect width="3.75" height="3.75" transform="matrix(-1 0 0 1 65.625 52.5)" fill="#ADADAD"/>
<rect width="3.75" height="3.75" transform="matrix(-1 0 0 1 69.375 52.5)" fill="#262626"/>
<rect width="3.75" height="3.75" transform="matrix(-1 0 0 1 43.125 48.75)" fill="#262626"/>
<rect width="3.75" height="3.75" transform="matrix(-1 0 0 1 46.875 48.75)" fill="#ADADAD"/>
<rect width="3.75" height="3.75" transform="matrix(-1 0 0 1 50.625 48.75)" fill="#262626"/>
<rect width="3.75" height="3.75" transform="matrix(-1 0 0 1 54.375 48.75)" fill="#262626"/>
<rect width="3.75" height="3.75" transform="matrix(-1 0 0 1 58.125 48.75)" fill="#ADADAD"/>
<rect width="3.75" height="3.75" transform="matrix(-1 0 0 1 61.875 48.75)" fill="#262626"/>
<rect width="3.75" height="3.75" transform="matrix(-1 0 0 1 46.875 45)" fill="#262626"/>
<rect width="3.75" height="3.75" transform="matrix(-1 0 0 1 50.625 45)" fill="#ADADAD"/>
<rect width="3.75" height="3.75" transform="matrix(-1 0 0 1 54.375 45)" fill="#262626"/>
<rect x="13.125" y="48.75" width="3.75" height="3.75" fill="#151515"/>
<rect x="16.875" y="48.75" width="3.75" height="3.75" fill="#151515"/>
<rect x="65.625" y="60" width="3.75" height="3.75" fill="#ADADAD"/>
<rect x="50.625" y="60" width="3.75" height="3.75" fill="#262626"/>
<rect x="35.625" y="60" width="3.75" height="3.75" fill="white"/>
<rect x="20.625" y="60" width="3.75" height="3.75" fill="#262626"/>
<rect x="88.125" y="67.5" width="3.75" height="3.75" fill="#262626"/>
<rect x="84.375" y="67.5" width="3.75" height="3.75" fill="#262626"/>
<rect x="80.625" y="67.5" width="3.75" height="3.75" fill="#262626"/>
<rect x="76.875" y="67.5" width="3.75" height="3.75" fill="#444444"/>
<rect x="61.875" y="67.5" width="3.75" height="3.75" fill="white"/>
<rect x="46.875" y="67.5" width="3.75" height="3.75" fill="#262626"/>
<rect x="31.875" y="67.5" width="3.75" height="3.75" fill="#262626"/>
<rect x="16.875" y="67.5" width="3.75" height="3.75" fill="#262626"/>
<rect x="73.125" y="67.5" width="3.75" height="3.75" fill="#262626"/>
<rect x="58.125" y="67.5" width="3.75" height="3.75" fill="#444444"/>
<rect x="43.125" y="67.5" width="3.75" height="3.75" fill="#262626"/>
<rect x="28.125" y="67.5" width="3.75" height="3.75" fill="#262626"/>
<rect x="13.125" y="67.5" width="3.75" height="3.75" fill="#262626"/>
<rect x="69.375" y="67.5" width="3.75" height="3.75" fill="white"/>
<rect x="54.375" y="67.5" width="3.75" height="3.75" fill="#444444"/>
<rect x="39.375" y="67.5" width="3.75" height="3.75" fill="#262626"/>
<rect x="24.375" y="67.5" width="3.75" height="3.75" fill="#262626"/>
<rect x="9.37503" y="67.5" width="3.75" height="3.75" fill="#151515"/>
<rect x="65.625" y="67.5" width="3.75" height="3.75" fill="white"/>
<rect x="50.625" y="67.5" width="3.75" height="3.75" fill="#262626"/>
<rect x="35.625" y="67.5" width="3.75" height="3.75" fill="#262626"/>
<rect x="20.625" y="67.5" width="3.75" height="3.75" fill="#444444"/>
<rect x="99.375" y="71.25" width="3.75" height="3.75" fill="#262626"/>
<rect x="106.875" y="75" width="3.75" height="3.75" fill="white"/>
<rect x="103.125" y="75" width="3.75" height="3.75" fill="white"/>
<rect x="99.375" y="75" width="3.75" height="3.75" fill="white"/>
<rect x="95.625" y="75" width="3.75" height="3.75" fill="white"/>
<rect x="95.625" y="71.25" width="3.75" height="3.75" fill="#262626"/>
<rect x="91.875" y="75" width="3.75" height="3.75" fill="white"/>
<rect x="91.875" y="71.25" width="3.75" height="3.75" fill="#262626"/>
<rect x="88.125" y="75" width="3.75" height="3.75" fill="white"/>
<rect x="88.125" y="71.25" width="3.75" height="3.75" fill="#262626"/>
<rect x="84.375" y="75" width="3.75" height="3.75" fill="#262626"/>
<rect x="84.375" y="71.25" width="3.75" height="3.75" fill="#262626"/>
<rect x="69.375" y="75" width="3.75" height="3.75" fill="#262626"/>
<rect x="69.375" y="71.25" width="3.75" height="3.75" fill="#262626"/>
<rect x="54.375" y="75" width="3.75" height="3.75" fill="#262626"/>
<rect x="54.375" y="71.25" width="3.75" height="3.75" fill="#262626"/>
<rect x="39.375" y="75" width="3.75" height="3.75" fill="#262626"/>
<rect x="39.375" y="71.25" width="3.75" height="3.75" fill="#262626"/>
<rect x="24.375" y="75" width="3.75" height="3.75" fill="#444444"/>
<rect x="24.375" y="71.25" width="3.75" height="3.75" fill="#444444"/>
<rect x="80.625" y="75" width="3.75" height="3.75" fill="#444444"/>
<rect x="80.625" y="71.25" width="3.75" height="3.75" fill="#262626"/>
<rect x="65.625" y="75" width="3.75" height="3.75" fill="#262626"/>
<rect x="65.625" y="71.25" width="3.75" height="3.75" fill="#262626"/>
<rect x="50.625" y="75" width="3.75" height="3.75" fill="#262626"/>
<rect x="50.625" y="71.25" width="3.75" height="3.75" fill="#444444"/>
<rect x="35.625" y="75" width="3.75" height="3.75" fill="#262626"/>
<rect x="35.625" y="71.25" width="3.75" height="3.75" fill="#262626"/>
<rect x="20.625" y="75" width="3.75" height="3.75" fill="#262626"/>
<rect x="20.625" y="71.25" width="3.75" height="3.75" fill="#262626"/>
<rect x="76.875" y="75" width="3.75" height="3.75" fill="#262626"/>
<rect x="76.875" y="71.25" width="3.75" height="3.75" fill="#444444"/>
<rect x="61.875" y="75" width="3.75" height="3.75" fill="#262626"/>
<rect x="61.875" y="71.25" width="3.75" height="3.75" fill="#262626"/>
<rect x="46.875" y="75" width="3.75" height="3.75" fill="#444444"/>
<rect x="46.875" y="71.25" width="3.75" height="3.75" fill="#262626"/>
<rect x="31.875" y="75" width="3.75" height="3.75" fill="#262626"/>
<rect x="31.875" y="71.25" width="3.75" height="3.75" fill="#262626"/>
<rect x="16.875" y="75" width="3.75" height="3.75" fill="#262626"/>
<rect x="16.875" y="71.25" width="3.75" height="3.75" fill="#262626"/>
<rect x="73.125" y="75" width="3.75" height="3.75" fill="#262626"/>
<rect x="73.125" y="71.25" width="3.75" height="3.75" fill="#262626"/>
<rect x="58.125" y="75" width="3.75" height="3.75" fill="#262626"/>
<rect x="58.125" y="71.25" width="3.75" height="3.75" fill="#262626"/>
<rect x="43.125" y="75" width="3.75" height="3.75" fill="#262626"/>
<rect x="43.125" y="71.25" width="3.75" height="3.75" fill="#262626"/>
<rect x="28.125" y="75" width="3.75" height="3.75" fill="#262626"/>
<rect x="28.125" y="71.25" width="3.75" height="3.75" fill="#262626"/>
<rect x="13.125" y="75" width="3.75" height="3.75" fill="white"/>
<rect x="13.125" y="71.25" width="3.75" height="3.75" fill="#262626"/>
<rect x="9.37503" y="75" width="3.75" height="3.75" fill="white"/>
<rect x="5.625" y="75" width="3.75" height="3.75" fill="#2661F9"/>
<rect x="5.625" y="71.25" width="3.75" height="3.75" fill="white"/>
<rect x="9.37503" y="71.25" width="3.75" height="3.75" fill="white"/>
<rect x="103.125" y="78.75" width="3.75" height="3.75" fill="white"/>
<rect x="99.375" y="78.75" width="3.75" height="3.75" fill="white"/>
<rect x="95.625" y="78.75" width="3.75" height="3.75" fill="white"/>
<rect x="91.875" y="78.75" width="3.75" height="3.75" fill="white"/>
<rect x="88.125" y="78.75" width="3.75" height="3.75" fill="white"/>
<rect x="84.375" y="78.75" width="3.75" height="3.75" fill="white"/>
<rect x="69.375" y="78.75" width="3.75" height="3.75" fill="white"/>
<rect x="54.375" y="78.75" width="3.75" height="3.75" fill="white"/>
<rect x="39.375" y="78.75" width="3.75" height="3.75" fill="white"/>
<rect x="24.375" y="78.75" width="3.75" height="3.75" fill="white"/>
<rect x="84.375" y="82.5" width="3.75" height="3.75" fill="white"/>
<rect x="69.375" y="82.5" width="3.75" height="3.75" fill="white"/>
<rect x="54.375" y="82.5" width="3.75" height="3.75" fill="white"/>
<rect x="39.375" y="82.5" width="3.75" height="3.75" fill="white"/>
<rect x="24.375" y="82.5" width="3.75" height="3.75" fill="white"/>
<rect x="80.625" y="78.75" width="3.75" height="3.75" fill="white"/>
<rect x="65.625" y="78.75" width="3.75" height="3.75" fill="white"/>
<rect x="50.625" y="78.75" width="3.75" height="3.75" fill="white"/>
<rect x="35.625" y="78.75" width="3.75" height="3.75" fill="white"/>
<rect x="20.625" y="78.75" width="3.75" height="3.75" fill="white"/>
<rect x="76.875" y="78.75" width="3.75" height="3.75" fill="white"/>
<rect x="61.875" y="78.75" width="3.75" height="3.75" fill="white"/>
<rect x="46.875" y="78.75" width="3.75" height="3.75" fill="white"/>
<rect x="31.875" y="78.75" width="3.75" height="3.75" fill="white"/>
<rect x="16.875" y="78.75" width="3.75" height="3.75" fill="white"/>
<rect x="73.125" y="78.75" width="3.75" height="3.75" fill="white"/>
<rect x="58.125" y="78.75" width="3.75" height="3.75" fill="white"/>
<rect x="43.125" y="78.75" width="3.75" height="3.75" fill="white"/>
<rect x="28.125" y="78.75" width="3.75" height="3.75" fill="white"/>
<rect x="13.125" y="78.75" width="3.75" height="3.75" fill="white"/>
<rect x="9.37503" y="78.75" width="3.75" height="3.75" fill="#2661F9"/>
<rect x="80.625" y="82.5" width="3.75" height="3.75" fill="white"/>
<rect x="65.625" y="82.5" width="3.75" height="3.75" fill="white"/>
<rect x="50.625" y="82.5" width="3.75" height="3.75" fill="white"/>
<rect x="35.625" y="82.5" width="3.75" height="3.75" fill="white"/>
<rect x="20.625" y="82.5" width="3.75" height="3.75" fill="white"/>
<rect x="76.875" y="82.5" width="3.75" height="3.75" fill="white"/>
<rect x="61.875" y="82.5" width="3.75" height="3.75" fill="white"/>
<rect x="46.875" y="82.5" width="3.75" height="3.75" fill="white"/>
<rect x="31.875" y="82.5" width="3.75" height="3.75" fill="white"/>
<rect x="16.875" y="82.5" width="3.75" height="3.75" fill="white"/>
<rect x="73.125" y="82.5" width="3.75" height="3.75" fill="white"/>
<rect x="58.125" y="82.5" width="3.75" height="3.75" fill="white"/>
<rect x="43.125" y="82.5" width="3.75" height="3.75" fill="white"/>
<rect x="28.125" y="82.5" width="3.75" height="3.75" fill="white"/>
</svg>
