<svg width="120" height="120" viewBox="0 0 120 120" fill="none" xmlns="http://www.w3.org/2000/svg">
<rect x="112.5" y="76.875" width="3.75" height="3.75" fill="#293442"/>
<rect x="108.75" y="76.875" width="3.75" height="3.75" fill="#182029"/>
<rect x="108.75" y="80.625" width="3.75" height="3.75" fill="#293442"/>
<rect x="71.25" y="80.625" width="3.75" height="3.75" fill="#293442"/>
<rect x="71.25" y="76.875" width="3.75" height="3.75" fill="#EDE8DD"/>
<rect x="33.75" y="80.625" width="3.75" height="3.75" fill="#293442"/>
<rect x="33.75" y="76.875" width="3.75" height="3.75" fill="#EDE8DD"/>
<rect x="101.25" y="80.625" width="3.75" height="3.75" fill="#293442"/>
<rect x="101.25" y="76.875" width="3.75" height="3.75" fill="#EDE8DD"/>
<rect x="63.75" y="80.625" width="3.75" height="3.75" fill="#293442"/>
<rect x="63.75" y="76.875" width="3.75" height="3.75" fill="#EDE8DD"/>
<rect x="26.25" y="80.625" width="3.75" height="3.75" fill="#293442"/>
<rect x="26.25" y="76.875" width="3.75" height="3.75" fill="#EDE8DD"/>
<rect x="26.25" y="73.125" width="3.75" height="3.75" fill="#E4DED1"/>
<rect x="26.25" y="69.375" width="3.75" height="3.75" fill="#B0D8A9"/>
<rect x="26.25" y="65.625" width="3.75" height="3.75" fill="#B0D8A9"/>
<rect x="26.25" y="61.875" width="3.75" height="3.75" fill="#B0D8A9"/>
<rect x="26.25" y="61.875" width="3.75" height="3.75" fill="#EDE8DD"/>
<rect x="26.25" y="58.125" width="3.75" height="3.75" fill="#EDE8DD"/>
<rect x="26.25" y="54.375" width="3.75" height="3.75" fill="#B0D8A9"/>
<rect x="26.25" y="50.625" width="3.75" height="3.75" fill="#B0D8A9"/>
<rect x="26.25" y="46.875" width="3.75" height="3.75" fill="#B0D8A9"/>
<rect x="33.75" y="50.625" width="3.75" height="3.75" fill="#B0D8A9"/>
<rect x="33.75" y="46.875" width="3.75" height="3.75" fill="#B0D8A9"/>
<rect x="30" y="73.125" width="3.75" height="3.75" fill="#EDE8DD"/>
<rect x="30" y="69.375" width="3.75" height="3.75" fill="#BEDBB9"/>
<rect x="30" y="65.625" width="3.75" height="3.75" fill="#BEDBB9"/>
<rect x="30" y="61.875" width="3.75" height="3.75" fill="#B0D8A9"/>
<rect x="30" y="61.875" width="3.75" height="3.75" fill="#EDE8DD"/>
<rect x="33.75" y="61.875" width="3.75" height="3.75" fill="#EDE8DD"/>
<rect x="33.75" y="58.125" width="3.75" height="3.75" fill="#BEDBB9"/>
<rect x="37.5" y="54.375" width="3.75" height="3.75" fill="#BEDBB9"/>
<rect x="41.25" y="50.625" width="3.75" height="3.75" fill="#BEDBB9"/>
<rect x="41.25" y="46.875" width="3.75" height="3.75" fill="#B0D8A9"/>
<rect x="45" y="46.875" width="3.75" height="3.75" fill="#BEDBB9"/>
<rect x="41.25" y="43.125" width="3.75" height="3.75" fill="#B0D8A9"/>
<rect x="41.25" y="39.375" width="3.75" height="3.75" fill="#A9CCCE"/>
<rect x="45" y="43.125" width="3.75" height="3.75" fill="#A9CCCE"/>
<rect x="45" y="39.375" width="3.75" height="3.75" fill="#85C0C4"/>
<rect x="48.75" y="39.375" width="3.75" height="3.75" fill="#85C0C4"/>
<rect x="48.75" y="43.125" width="3.75" height="3.75" fill="#A9CCCE"/>
<rect x="52.5" y="43.125" width="3.75" height="3.75" fill="#85C0C4"/>
<rect x="52.5" y="46.875" width="3.75" height="3.75" fill="#A9CCCE"/>
<rect x="56.25" y="46.875" width="3.75" height="3.75" fill="#A9CCCE"/>
<rect x="60" y="46.875" width="3.75" height="3.75" fill="#85C0C4"/>
<rect x="63.75" y="50.625" width="3.75" height="3.75" fill="#A9CCCE"/>
<rect x="67.5" y="50.625" width="3.75" height="3.75" fill="#85C0C4"/>
<rect x="67.5" y="54.375" width="3.75" height="3.75" fill="#A9CCCE"/>
<rect x="71.25" y="54.375" width="3.75" height="3.75" fill="#A9CCCE"/>
<rect x="75" y="54.375" width="3.75" height="3.75" fill="#85C0C4"/>
<rect x="75" y="58.125" width="3.75" height="3.75" fill="#A9CCCE"/>
<rect x="78.75" y="58.125" width="3.75" height="3.75" fill="#A9CCCE"/>
<rect x="82.5" y="58.125" width="3.75" height="3.75" fill="#85C0C4"/>
<rect x="37.5" y="39.375" width="3.75" height="3.75" fill="#AA9ADA"/>
<rect x="41.25" y="35.625" width="3.75" height="3.75" fill="#AA9ADA"/>
<rect x="37.5" y="43.125" width="3.75" height="3.75" fill="#B0D8A9"/>
<rect x="33.75" y="54.375" width="3.75" height="3.75" fill="#B0D8A9"/>
<rect x="30" y="58.125" width="3.75" height="3.75" fill="#B0D8A9"/>
<rect x="30" y="54.375" width="3.75" height="3.75" fill="#B0D8A9"/>
<rect x="30" y="50.625" width="3.75" height="3.75" fill="#B0D8A9"/>
<rect x="30" y="46.875" width="3.75" height="3.75" fill="#B0D8A9"/>
<rect x="37.5" y="50.625" width="3.75" height="3.75" fill="#B0D8A9"/>
<rect x="37.5" y="46.875" width="3.75" height="3.75" fill="#B0D8A9"/>
<rect x="33.75" y="73.125" width="3.75" height="3.75" fill="#E4DED1"/>
<rect x="33.75" y="69.375" width="3.75" height="3.75" fill="#B62A2B"/>
<rect x="33.75" y="65.625" width="3.75" height="3.75" fill="#B62A2B"/>
<rect x="56.25" y="69.375" width="3.75" height="3.75" fill="#CC4142"/>
<rect x="56.25" y="65.625" width="3.75" height="3.75" fill="#C03536"/>
<rect x="60" y="65.625" width="3.75" height="3.75" fill="#CC4142"/>
<rect x="60" y="61.875" width="3.75" height="3.75" fill="#CC4142"/>
<rect x="63.75" y="58.125" width="3.75" height="3.75" fill="#CC4142"/>
<rect x="63.75" y="54.375" width="3.75" height="3.75" fill="#CC4142"/>
<rect x="60" y="58.125" width="3.75" height="3.75" fill="#C03536"/>
<rect x="60" y="54.375" width="3.75" height="3.75" fill="#EDE8DD"/>
<rect x="60" y="50.625" width="3.75" height="3.75" fill="#EDE8DD"/>
<rect x="56.25" y="61.875" width="3.75" height="3.75" fill="#C03536"/>
<rect x="56.25" y="58.125" width="3.75" height="3.75" fill="#EDE8DD"/>
<rect x="56.25" y="54.375" width="3.75" height="3.75" fill="#EDE8DD"/>
<rect x="56.25" y="50.625" width="3.75" height="3.75" fill="#C03536"/>
<rect x="37.5" y="73.125" width="3.75" height="3.75" fill="#EDE8DD"/>
<rect x="37.5" y="69.375" width="3.75" height="3.75" fill="#C03536"/>
<rect x="37.5" y="65.625" width="3.75" height="3.75" fill="#C03536"/>
<rect x="37.5" y="61.875" width="3.75" height="3.75" fill="#EDE8DD"/>
<rect x="37.5" y="58.125" width="3.75" height="3.75" fill="#B62A2B"/>
<rect x="60" y="69.375" width="3.75" height="3.75" fill="#E1A356"/>
<rect x="60" y="73.125" width="3.75" height="3.75" fill="#EDE8DD"/>
<rect x="56.25" y="73.125" width="3.75" height="3.75" fill="#E4DED1"/>
<rect x="78.75" y="69.375" width="3.75" height="3.75" fill="#F2B366"/>
<rect x="78.75" y="73.125" width="3.75" height="3.75" fill="#E4DED1"/>
<rect x="78.75" y="65.625" width="3.75" height="3.75" fill="#F2B366"/>
<rect x="78.75" y="61.875" width="3.75" height="3.75" fill="#F2B366"/>
<rect x="41.25" y="73.125" width="3.75" height="3.75" fill="#E4DED1"/>
<rect x="41.25" y="69.375" width="3.75" height="3.75" fill="#C03536"/>
<rect x="41.25" y="65.625" width="3.75" height="3.75" fill="#C03536"/>
<rect x="41.25" y="61.875" width="3.75" height="3.75" fill="#EDE8DD"/>
<rect x="41.25" y="58.125" width="3.75" height="3.75" fill="#C03536"/>
<rect x="41.25" y="54.375" width="3.75" height="3.75" fill="#B62A2B"/>
<rect x="63.75" y="69.375" width="3.75" height="3.75" fill="#F2B366"/>
<rect x="63.75" y="73.125" width="3.75" height="3.75" fill="#E4DED1"/>
<rect x="63.75" y="65.625" width="3.75" height="3.75" fill="#E1A356"/>
<rect x="63.75" y="61.875" width="3.75" height="3.75" fill="#E1A356"/>
<rect x="82.5" y="69.375" width="3.75" height="3.75" fill="#F2B366"/>
<rect x="82.5" y="73.125" width="3.75" height="3.75" fill="#EDE8DD"/>
<rect x="82.5" y="65.625" width="3.75" height="3.75" fill="#F2B366"/>
<rect x="82.5" y="61.875" width="3.75" height="3.75" fill="#FBBF76"/>
<rect x="45" y="73.125" width="3.75" height="3.75" fill="#EDE8DD"/>
<rect x="45" y="69.375" width="3.75" height="3.75" fill="#C03536"/>
<rect x="45" y="65.625" width="3.75" height="3.75" fill="#C03536"/>
<rect x="45" y="61.875" width="3.75" height="3.75" fill="#EDE8DD"/>
<rect x="45" y="58.125" width="3.75" height="3.75" fill="#C03536"/>
<rect x="45" y="54.375" width="3.75" height="3.75" fill="#C03536"/>
<rect x="45" y="50.625" width="3.75" height="3.75" fill="#B62A2B"/>
<rect x="67.5" y="69.375" width="3.75" height="3.75" fill="#F2B366"/>
<rect x="67.5" y="73.125" width="3.75" height="3.75" fill="#EDE8DD"/>
<rect x="67.5" y="65.625" width="3.75" height="3.75" fill="#F2B366"/>
<rect x="67.5" y="61.875" width="3.75" height="3.75" fill="#F2B366"/>
<rect x="86.25" y="69.375" width="3.75" height="3.75" fill="#F2B366"/>
<rect x="86.25" y="73.125" width="3.75" height="3.75" fill="#E4DED1"/>
<rect x="86.25" y="65.625" width="3.75" height="3.75" fill="#FBBF76"/>
<rect x="86.25" y="61.875" width="3.75" height="3.75" fill="#FFD5A2"/>
<rect x="97.5" y="69.375" width="3.75" height="3.75" fill="#FBBF76"/>
<rect x="97.5" y="73.125" width="3.75" height="3.75" fill="#EDE8DD"/>
<rect x="97.5" y="65.625" width="3.75" height="3.75" fill="#FFD5A2"/>
<rect x="48.75" y="73.125" width="3.75" height="3.75" fill="#E4DED1"/>
<rect x="48.75" y="69.375" width="3.75" height="3.75" fill="#C03536"/>
<rect x="48.75" y="65.625" width="3.75" height="3.75" fill="#C03536"/>
<rect x="48.75" y="61.875" width="3.75" height="3.75" fill="#EDE8DD"/>
<rect x="48.75" y="58.125" width="3.75" height="3.75" fill="#EDE8DD"/>
<rect x="48.75" y="54.375" width="3.75" height="3.75" fill="#C03536"/>
<rect x="48.75" y="50.625" width="3.75" height="3.75" fill="#C03536"/>
<rect x="48.75" y="46.875" width="3.75" height="3.75" fill="#B62A2B"/>
<rect x="71.25" y="69.375" width="3.75" height="3.75" fill="#F2B366"/>
<rect x="71.25" y="73.125" width="3.75" height="3.75" fill="#E4DED1"/>
<rect x="71.25" y="65.625" width="3.75" height="3.75" fill="#F2B366"/>
<rect x="71.25" y="61.875" width="3.75" height="3.75" fill="#F2B366"/>
<rect x="71.25" y="58.125" width="3.75" height="3.75" fill="#F2B366"/>
<rect x="67.5" y="58.125" width="3.75" height="3.75" fill="#E1A356"/>
<rect x="90" y="69.375" width="3.75" height="3.75" fill="#F2B366"/>
<rect x="90" y="73.125" width="3.75" height="3.75" fill="#EDE8DD"/>
<rect x="90" y="65.625" width="3.75" height="3.75" fill="#FBBF76"/>
<rect x="90" y="61.875" width="3.75" height="3.75" fill="#FFD5A2"/>
<rect x="101.25" y="69.375" width="3.75" height="3.75" fill="#E4DED1"/>
<rect x="101.25" y="73.125" width="3.75" height="3.75" fill="#E4DED1"/>
<rect x="101.25" y="65.625" width="3.75" height="3.75" fill="#FFD5A2"/>
<rect x="52.5" y="73.125" width="3.75" height="3.75" fill="#EDE8DD"/>
<rect x="52.5" y="69.375" width="3.75" height="3.75" fill="#C03536"/>
<rect x="52.5" y="65.625" width="3.75" height="3.75" fill="#C03536"/>
<rect x="52.5" y="61.875" width="3.75" height="3.75" fill="#C03536"/>
<rect x="52.5" y="58.125" width="3.75" height="3.75" fill="#EDE8DD"/>
<rect x="52.5" y="54.375" width="3.75" height="3.75" fill="#C03536"/>
<rect x="52.5" y="50.625" width="3.75" height="3.75" fill="#C03536"/>
<rect x="75" y="69.375" width="3.75" height="3.75" fill="#F2B366"/>
<rect x="75" y="73.125" width="3.75" height="3.75" fill="#EDE8DD"/>
<rect x="75" y="65.625" width="3.75" height="3.75" fill="#F2B366"/>
<rect x="75" y="61.875" width="3.75" height="3.75" fill="#F2B366"/>
<rect x="93.75" y="69.375" width="3.75" height="3.75" fill="#FBBF76"/>
<rect x="93.75" y="73.125" width="3.75" height="3.75" fill="#E4DED1"/>
<rect x="93.75" y="65.625" width="3.75" height="3.75" fill="#FFD5A2"/>
<rect x="105" y="69.375" width="3.75" height="3.75" fill="#EDE8DD"/>
<rect x="105" y="73.125" width="3.75" height="3.75" fill="#EDE8DD"/>
<rect x="108.75" y="73.125" width="3.75" height="3.75" fill="#293442"/>
<rect x="93.75" y="80.625" width="3.75" height="3.75" fill="#293442"/>
<rect x="93.75" y="76.875" width="3.75" height="3.75" fill="#EDE8DD"/>
<rect x="56.25" y="80.625" width="3.75" height="3.75" fill="#293442"/>
<rect x="56.25" y="76.875" width="3.75" height="3.75" fill="#EDE8DD"/>
<rect x="18.75" y="80.625" width="3.75" height="3.75" fill="#293442"/>
<rect x="18.75" y="76.875" width="3.75" height="3.75" fill="#EDE8DD"/>
<rect x="18.75" y="73.125" width="3.75" height="3.75" fill="#E4DED1"/>
<rect x="18.75" y="69.375" width="3.75" height="3.75" fill="#B0D8A9"/>
<rect x="18.75" y="65.625" width="3.75" height="3.75" fill="#B0D8A9"/>
<rect x="18.75" y="61.875" width="3.75" height="3.75" fill="#B0D8A9"/>
<rect x="18.75" y="61.875" width="3.75" height="3.75" fill="#B0D8A9"/>
<rect x="18.75" y="58.125" width="3.75" height="3.75" fill="#B0D8A9"/>
<rect x="18.75" y="54.375" width="3.75" height="3.75" fill="#EDE8DD"/>
<rect x="18.75" y="50.625" width="3.75" height="3.75" fill="#EDE8DD"/>
<rect x="86.25" y="80.625" width="3.75" height="3.75" fill="#293442"/>
<rect x="86.25" y="76.875" width="3.75" height="3.75" fill="#EDE8DD"/>
<rect x="48.75" y="80.625" width="3.75" height="3.75" fill="#293442"/>
<rect x="48.75" y="76.875" width="3.75" height="3.75" fill="#EDE8DD"/>
<rect x="11.25" y="80.625" width="3.75" height="3.75" fill="#293442"/>
<rect x="11.25" y="76.875" width="3.75" height="3.75" fill="#EDE8DD"/>
<rect x="11.25" y="73.125" width="3.75" height="3.75" fill="#E4DED1"/>
<rect x="11.25" y="69.375" width="3.75" height="3.75" fill="#B0D8A9"/>
<rect x="11.25" y="65.625" width="3.75" height="3.75" fill="#B0D8A9"/>
<rect x="11.25" y="61.875" width="3.75" height="3.75" fill="#B0D8A9"/>
<rect x="11.25" y="61.875" width="3.75" height="3.75" fill="#B0D8A9"/>
<rect x="11.25" y="58.125" width="3.75" height="3.75" fill="#9CC894"/>
<rect x="11.25" y="54.375" width="3.75" height="3.75" fill="#9CC894"/>
<rect x="11.25" y="50.625" width="3.75" height="3.75" fill="#E6DCC8"/>
<rect x="11.25" y="46.875" width="3.75" height="3.75" fill="#E6DCC8"/>
<rect x="11.25" y="43.125" width="3.75" height="3.75" fill="#E6DCC8"/>
<rect x="11.25" y="39.375" width="3.75" height="3.75" fill="#DBD0B8"/>
<rect x="78.75" y="80.625" width="3.75" height="3.75" fill="#293442"/>
<rect x="78.75" y="76.875" width="3.75" height="3.75" fill="#EDE8DD"/>
<rect x="41.25" y="80.625" width="3.75" height="3.75" fill="#293442"/>
<rect x="41.25" y="76.875" width="3.75" height="3.75" fill="#EDE8DD"/>
<rect x="3.75" y="76.875" width="3.75" height="3.75" fill="#293442"/>
<rect x="3.75" y="73.125" width="3.75" height="3.75" fill="#DDD7CA"/>
<rect x="3.75" y="69.375" width="3.75" height="3.75" fill="#EDE8DD"/>
<rect x="3.75" y="65.625" width="3.75" height="3.75" fill="#8FBD87"/>
<rect x="3.75" y="61.875" width="3.75" height="3.75" fill="#B0D8A9"/>
<rect x="3.75" y="61.875" width="3.75" height="3.75" fill="#8FBD87"/>
<rect x="3.75" y="58.125" width="3.75" height="3.75" fill="#8FBD87"/>
<rect x="105" y="80.625" width="3.75" height="3.75" fill="#182029"/>
<rect x="105" y="76.875" width="3.75" height="3.75" fill="#E4DED1"/>
<rect x="67.5" y="80.625" width="3.75" height="3.75" fill="#182029"/>
<rect x="67.5" y="76.875" width="3.75" height="3.75" fill="#E4DED1"/>
<rect x="30" y="80.625" width="3.75" height="3.75" fill="#182029"/>
<rect x="30" y="76.875" width="3.75" height="3.75" fill="#E4DED1"/>
<rect x="97.5" y="80.625" width="3.75" height="3.75" fill="#182029"/>
<rect x="97.5" y="76.875" width="3.75" height="3.75" fill="#E4DED1"/>
<rect x="60" y="80.625" width="3.75" height="3.75" fill="#182029"/>
<rect x="60" y="76.875" width="3.75" height="3.75" fill="#E4DED1"/>
<rect x="22.5" y="80.625" width="3.75" height="3.75" fill="#182029"/>
<rect x="22.5" y="76.875" width="3.75" height="3.75" fill="#E4DED1"/>
<rect x="22.5" y="73.125" width="3.75" height="3.75" fill="#EDE8DD"/>
<rect x="22.5" y="69.375" width="3.75" height="3.75" fill="#B0D8A9"/>
<rect x="22.5" y="65.625" width="3.75" height="3.75" fill="#B0D8A9"/>
<rect x="22.5" y="61.875" width="3.75" height="3.75" fill="#B0D8A9"/>
<rect x="22.5" y="61.875" width="3.75" height="3.75" fill="#B0D8A9"/>
<rect x="22.5" y="58.125" width="3.75" height="3.75" fill="#EDE8DD"/>
<rect x="22.5" y="54.375" width="3.75" height="3.75" fill="#EDE8DD"/>
<rect x="22.5" y="50.625" width="3.75" height="3.75" fill="#B0D8A9"/>
<rect x="22.5" y="46.875" width="3.75" height="3.75" fill="#9CC894"/>
<rect x="90" y="80.625" width="3.75" height="3.75" fill="#182029"/>
<rect x="90" y="76.875" width="3.75" height="3.75" fill="#E4DED1"/>
<rect x="52.5" y="80.625" width="3.75" height="3.75" fill="#182029"/>
<rect x="52.5" y="76.875" width="3.75" height="3.75" fill="#E4DED1"/>
<rect x="15" y="80.625" width="3.75" height="3.75" fill="#182029"/>
<rect x="15" y="76.875" width="3.75" height="3.75" fill="#E4DED1"/>
<rect x="15" y="73.125" width="3.75" height="3.75" fill="#EDE8DD"/>
<rect x="15" y="69.375" width="3.75" height="3.75" fill="#B0D8A9"/>
<rect x="15" y="65.625" width="3.75" height="3.75" fill="#B0D8A9"/>
<rect x="15" y="61.875" width="3.75" height="3.75" fill="#B0D8A9"/>
<rect x="15" y="61.875" width="3.75" height="3.75" fill="#B0D8A9"/>
<rect x="15" y="58.125" width="3.75" height="3.75" fill="#B0D8A9"/>
<rect x="15" y="54.375" width="3.75" height="3.75" fill="#9CC894"/>
<rect x="15" y="50.625" width="3.75" height="3.75" fill="#EDE8DD"/>
<rect x="15" y="46.875" width="3.75" height="3.75" fill="#EDE8DD"/>
<rect x="15" y="43.125" width="3.75" height="3.75" fill="#EDE8DD"/>
<rect x="18.75" y="46.875" width="3.75" height="3.75" fill="#EDE8DD"/>
<rect x="82.5" y="80.625" width="3.75" height="3.75" fill="#182029"/>
<rect x="82.5" y="76.875" width="3.75" height="3.75" fill="#E4DED1"/>
<rect x="45" y="80.625" width="3.75" height="3.75" fill="#182029"/>
<rect x="45" y="76.875" width="3.75" height="3.75" fill="#E4DED1"/>
<rect x="7.50001" y="80.625" width="3.75" height="3.75" fill="#182029"/>
<rect x="7.50001" y="76.875" width="3.75" height="3.75" fill="#E4DED1"/>
<rect x="7.50001" y="73.125" width="3.75" height="3.75" fill="#EDE8DD"/>
<rect x="7.50001" y="69.375" width="3.75" height="3.75" fill="#E4DED1"/>
<rect x="7.50001" y="65.625" width="3.75" height="3.75" fill="#9CC894"/>
<rect x="7.50001" y="61.875" width="3.75" height="3.75" fill="#B0D8A9"/>
<rect x="7.50001" y="61.875" width="3.75" height="3.75" fill="#9CC894"/>
<rect x="7.50001" y="58.125" width="3.75" height="3.75" fill="#9CC894"/>
<rect x="7.50001" y="54.375" width="3.75" height="3.75" fill="#8FBD87"/>
<rect x="7.50001" y="50.625" width="3.75" height="3.75" fill="#DBD0B8"/>
<rect x="7.50001" y="46.875" width="3.75" height="3.75" fill="#DBD0B8"/>
<rect x="7.50001" y="43.125" width="3.75" height="3.75" fill="#DBD0B8"/>
<rect x="75" y="80.625" width="3.75" height="3.75" fill="#182029"/>
<rect x="75" y="76.875" width="3.75" height="3.75" fill="#E4DED1"/>
<rect x="37.5" y="80.625" width="3.75" height="3.75" fill="#182029"/>
<rect x="37.5" y="76.875" width="3.75" height="3.75" fill="#E4DED1"/>
</svg>
