<svg width="120" height="120" viewBox="0 0 120 120" fill="none" xmlns="http://www.w3.org/2000/svg">
<rect x="5.625" y="76.875" width="3.75" height="3.75" fill="#161415"/>
<rect width="3.75" height="3.75" transform="matrix(1 0 0 -1 5.625 76.875)" fill="#B5B5B5"/>
<rect x="9.375" y="80.625" width="3.75" height="3.75" fill="#161415"/>
<rect x="9.375" y="76.875" width="3.75" height="3.75" fill="#C7C7C7"/>
<rect width="3.75" height="3.75" transform="matrix(1 0 0 -1 9.375 76.875)" fill="#C7C7C7"/>
<rect width="3.75" height="3.75" transform="matrix(1 0 0 -1 9.375 73.125)" fill="#161415"/>
<rect width="3.75" height="3.75" transform="matrix(1 0 0 -1 9.375 69.375)" fill="#161415"/>
<rect width="3.75" height="3.75" transform="matrix(1 0 0 -1 9.375 65.625)" fill="#161415"/>
<rect width="3.75" height="3.75" transform="matrix(1 0 0 -1 9.375 61.875)" fill="#C7C7C7"/>
<rect width="3.75" height="3.75" transform="matrix(1 0 0 -1 9.375 58.125)" fill="#161415"/>
<rect width="3.75" height="3.75" transform="matrix(1 0 0 -1 9.375 54.375)" fill="#161415"/>
<rect x="13.125" y="80.625" width="3.75" height="3.75" fill="#161415"/>
<rect x="13.125" y="76.875" width="3.75" height="3.75" fill="#F4F4F4"/>
<rect width="3.75" height="3.75" transform="matrix(1 0 0 -1 13.125 76.875)" fill="#C7C7C7"/>
<rect width="3.75" height="3.75" transform="matrix(1 0 0 -1 13.125 73.125)" fill="#161415"/>
<rect width="3.75" height="3.75" transform="matrix(1 0 0 -1 13.125 69.375)" fill="#161415"/>
<rect width="3.75" height="3.75" transform="matrix(1 0 0 -1 13.125 65.625)" fill="#161415"/>
<rect width="3.75" height="3.75" transform="matrix(1 0 0 -1 13.125 61.875)" fill="#F4F4F4"/>
<rect width="3.75" height="3.75" transform="matrix(1 0 0 -1 13.125 58.125)" fill="#F4F4F4"/>
<rect width="3.75" height="3.75" transform="matrix(1 0 0 -1 13.125 54.375)" fill="#161415"/>
<rect width="3.75" height="3.75" transform="matrix(1 0 0 -1 13.125 50.625)" fill="#161415"/>
<rect x="16.8751" y="80.625" width="3.75" height="3.75" fill="#161415"/>
<rect x="16.8751" y="76.875" width="3.75" height="3.75" fill="#F4F4F4"/>
<rect width="3.75" height="3.75" transform="matrix(1 0 0 -1 16.8751 76.875)" fill="#C7C7C7"/>
<rect width="3.75" height="3.75" transform="matrix(1 0 0 -1 16.8751 73.125)" fill="#161415"/>
<rect width="3.75" height="3.75" transform="matrix(1 0 0 -1 16.8751 69.375)" fill="#161415"/>
<rect width="3.75" height="3.75" transform="matrix(1 0 0 -1 16.8751 65.625)" fill="#161415"/>
<rect width="3.75" height="3.75" transform="matrix(1 0 0 -1 16.8751 61.875)" fill="#F4F4F4"/>
<rect width="3.75" height="3.75" transform="matrix(1 0 0 -1 16.8751 58.125)" fill="#F4F4F4"/>
<rect width="3.75" height="3.75" transform="matrix(1 0 0 -1 16.8751 54.375)" fill="#CCCCCC"/>
<rect x="20.625" y="80.625" width="3.75" height="3.75" fill="#161415"/>
<rect x="20.625" y="76.875" width="3.75" height="3.75" fill="#F4F4F4"/>
<rect width="3.75" height="3.75" transform="matrix(1 0 0 -1 20.625 76.875)" fill="#C7C7C7"/>
<rect width="3.75" height="3.75" transform="matrix(1 0 0 -1 20.625 73.125)" fill="#161415"/>
<rect width="3.75" height="3.75" transform="matrix(1 0 0 -1 20.625 69.375)" fill="#161415"/>
<rect width="3.75" height="3.75" transform="matrix(1 0 0 -1 20.625 65.625)" fill="#161415"/>
<rect width="3.75" height="3.75" transform="matrix(1 0 0 -1 20.625 61.875)" fill="#F4F4F4"/>
<rect width="3.75" height="3.75" transform="matrix(1 0 0 -1 20.625 58.125)" fill="#F4F4F4"/>
<rect width="3.75" height="3.75" transform="matrix(1 0 0 -1 20.625 54.375)" fill="#CCCCCC"/>
<rect x="43.125" y="80.625" width="3.75" height="3.75" fill="#161415"/>
<rect x="43.125" y="76.875" width="3.75" height="3.75" fill="#F4F4F4"/>
<rect width="3.75" height="3.75" transform="matrix(1 0 0 -1 43.125 76.875)" fill="#E6E6E6"/>
<rect width="3.75" height="3.75" transform="matrix(1 0 0 -1 43.125 73.125)" fill="#C7C7C7"/>
<rect width="3.75" height="3.75" transform="matrix(1 0 0 -1 43.125 69.375)" fill="#F4F4F4"/>
<rect width="3.75" height="3.75" transform="matrix(1 0 0 -1 43.125 65.625)" fill="#E7E7E7"/>
<rect width="3.75" height="3.75" transform="matrix(1 0 0 -1 43.125 61.875)" fill="#F4F4F4"/>
<rect width="3.75" height="3.75" transform="matrix(1 0 0 -1 43.125 58.125)" fill="#161415"/>
<rect width="3.75" height="3.75" transform="matrix(1 0 0 -1 43.125 54.375)" fill="#161415"/>
<rect width="3.75" height="3.75" transform="matrix(1 0 0 -1 43.125 50.625)" fill="#161415"/>
<rect width="3.75" height="3.75" transform="matrix(1 0 0 -1 43.125 46.875)" fill="#F4F4F4"/>
<rect width="3.75" height="3.75" transform="matrix(1 0 0 -1 43.125 43.125)" fill="#D9D9D9"/>
<rect width="3.75" height="3.75" transform="matrix(1 0 0 -1 43.125 39.375)" fill="#CCCCCC"/>
<rect x="65.625" y="80.625" width="3.75" height="3.75" fill="#161415"/>
<rect x="65.625" y="76.875" width="3.75" height="3.75" fill="#F4F4F4"/>
<rect width="3.75" height="3.75" transform="matrix(1 0 0 -1 65.625 76.875)" fill="#E6E6E6"/>
<rect width="3.75" height="3.75" transform="matrix(1 0 0 -1 65.625 73.125)" fill="#C7C7C7"/>
<rect width="3.75" height="3.75" transform="matrix(1 0 0 -1 65.625 69.375)" fill="#F4F4F4"/>
<rect width="3.75" height="3.75" transform="matrix(1 0 0 -1 65.625 65.625)" fill="#E7E7E7"/>
<rect width="3.75" height="3.75" transform="matrix(1 0 0 -1 65.625 61.875)" fill="#F4F4F4"/>
<rect width="3.75" height="3.75" transform="matrix(1 0 0 -1 65.625 58.125)" fill="#E7E7E7"/>
<rect width="3.75" height="3.75" transform="matrix(1 0 0 -1 65.625 54.375)" fill="#161415"/>
<rect x="88.1251" y="80.625" width="3.75" height="3.75" fill="#161415"/>
<rect x="88.1251" y="76.875" width="3.75" height="3.75" fill="#F4F4F4"/>
<rect width="3.75" height="3.75" transform="matrix(1 0 0 -1 88.1251 76.875)" fill="#C7C7C7"/>
<rect width="3.75" height="3.75" transform="matrix(1 0 0 -1 88.1251 73.125)" fill="#161415"/>
<rect width="3.75" height="3.75" transform="matrix(1 0 0 -1 88.1251 69.375)" fill="#F4F4F4"/>
<rect width="3.75" height="3.75" transform="matrix(1 0 0 -1 88.1251 65.625)" fill="#F4F4F4"/>
<rect width="3.75" height="3.75" transform="matrix(1 0 0 -1 88.1251 61.875)" fill="#C7C7C7"/>
<rect x="24.375" y="80.625" width="3.75" height="3.75" fill="#161415"/>
<rect x="24.375" y="76.875" width="3.75" height="3.75" fill="#F4F4F4"/>
<rect width="3.75" height="3.75" transform="matrix(1 0 0 -1 24.375 76.875)" fill="#C7C7C7"/>
<rect width="3.75" height="3.75" transform="matrix(1 0 0 -1 24.375 73.125)" fill="#161415"/>
<rect width="3.75" height="3.75" transform="matrix(1 0 0 -1 24.375 69.375)" fill="#161415"/>
<rect width="3.75" height="3.75" transform="matrix(1 0 0 -1 24.375 65.625)" fill="#161415"/>
<rect width="3.75" height="3.75" transform="matrix(1 0 0 -1 24.375 61.875)" fill="#F4F4F4"/>
<rect width="3.75" height="3.75" transform="matrix(1 0 0 -1 24.375 58.125)" fill="#F4F4F4"/>
<rect width="3.75" height="3.75" transform="matrix(1 0 0 -1 24.375 54.375)" fill="#CCCCCC"/>
<rect x="46.875" y="80.625" width="3.75" height="3.75" fill="#161415"/>
<rect x="46.875" y="76.875" width="3.75" height="3.75" fill="#F4F4F4"/>
<rect width="3.75" height="3.75" transform="matrix(1 0 0 -1 46.875 76.875)" fill="#E6E6E6"/>
<rect width="3.75" height="3.75" transform="matrix(1 0 0 -1 46.875 73.125)" fill="#C7C7C7"/>
<rect width="3.75" height="3.75" transform="matrix(1 0 0 -1 46.875 69.375)" fill="#E7E7E7"/>
<rect width="3.75" height="3.75" transform="matrix(1 0 0 -1 46.875 65.625)" fill="#F4F4F4"/>
<rect width="3.75" height="3.75" transform="matrix(1 0 0 -1 46.875 61.875)" fill="#E7E7E7"/>
<rect width="3.75" height="3.75" transform="matrix(1 0 0 -1 46.875 58.125)" fill="#F4F4F4"/>
<rect width="3.75" height="3.75" transform="matrix(1 0 0 -1 46.875 54.375)" fill="#161415"/>
<rect width="3.75" height="3.75" transform="matrix(1 0 0 -1 46.875 50.625)" fill="#161415"/>
<rect width="3.75" height="3.75" transform="matrix(1 0 0 -1 46.875 46.875)" fill="#161415"/>
<rect width="3.75" height="3.75" transform="matrix(1 0 0 -1 46.875 43.125)" fill="#161415"/>
<rect width="3.75" height="3.75" transform="matrix(1 0 0 -1 46.875 39.375)" fill="#161415"/>
<rect x="69.3751" y="80.625" width="3.75" height="3.75" fill="#161415"/>
<rect x="69.3751" y="76.875" width="3.75" height="3.75" fill="#F4F4F4"/>
<rect width="3.75" height="3.75" transform="matrix(1 0 0 -1 69.3751 76.875)" fill="#E6E6E6"/>
<rect width="3.75" height="3.75" transform="matrix(1 0 0 -1 69.3751 73.125)" fill="#C7C7C7"/>
<rect width="3.75" height="3.75" transform="matrix(1 0 0 -1 69.3751 69.375)" fill="#E7E7E7"/>
<rect width="3.75" height="3.75" transform="matrix(1 0 0 -1 69.3751 65.625)" fill="#F4F4F4"/>
<rect width="3.75" height="3.75" transform="matrix(1 0 0 -1 69.3751 61.875)" fill="#E7E7E7"/>
<rect width="3.75" height="3.75" transform="matrix(1 0 0 -1 69.3751 58.125)" fill="#F4F4F4"/>
<rect width="3.75" height="3.75" transform="matrix(1 0 0 -1 69.3751 54.375)" fill="#161415"/>
<rect x="91.875" y="80.625" width="3.75" height="3.75" fill="#161415"/>
<rect x="91.875" y="76.875" width="3.75" height="3.75" fill="#F4F4F4"/>
<rect width="3.75" height="3.75" transform="matrix(1 0 0 -1 91.875 76.875)" fill="#C7C7C7"/>
<rect width="3.75" height="3.75" transform="matrix(1 0 0 -1 91.875 73.125)" fill="#161415"/>
<rect width="3.75" height="3.75" transform="matrix(1 0 0 -1 91.875 69.375)" fill="#F4F4F4"/>
<rect width="3.75" height="3.75" transform="matrix(1 0 0 -1 91.875 65.625)" fill="#F4F4F4"/>
<rect width="3.75" height="3.75" transform="matrix(1 0 0 -1 91.875 61.875)" fill="#C7C7C7"/>
<rect x="28.125" y="80.625" width="3.75" height="3.75" fill="#161415"/>
<rect x="28.125" y="76.875" width="3.75" height="3.75" fill="#F4F4F4"/>
<rect width="3.75" height="3.75" transform="matrix(1 0 0 -1 28.125 76.875)" fill="#C7C7C7"/>
<rect width="3.75" height="3.75" transform="matrix(1 0 0 -1 28.125 73.125)" fill="#161415"/>
<rect width="3.75" height="3.75" transform="matrix(1 0 0 -1 28.125 69.375)" fill="#161415"/>
<rect width="3.75" height="3.75" transform="matrix(1 0 0 -1 28.125 65.625)" fill="#161415"/>
<rect width="3.75" height="3.75" transform="matrix(1 0 0 -1 28.125 61.875)" fill="#161415"/>
<rect width="3.75" height="3.75" transform="matrix(1 0 0 -1 28.125 58.125)" fill="#F4F4F4"/>
<rect width="3.75" height="3.75" transform="matrix(1 0 0 -1 28.125 54.375)" fill="#CCCCCC"/>
<rect x="50.625" y="80.625" width="3.75" height="3.75" fill="#161415"/>
<rect x="50.625" y="76.875" width="3.75" height="3.75" fill="#F4F4F4"/>
<rect width="3.75" height="3.75" transform="matrix(1 0 0 -1 50.625 76.875)" fill="#E6E6E6"/>
<rect width="3.75" height="3.75" transform="matrix(1 0 0 -1 50.625 73.125)" fill="#C7C7C7"/>
<rect width="3.75" height="3.75" transform="matrix(1 0 0 -1 50.625 69.375)" fill="#F4F4F4"/>
<rect width="3.75" height="3.75" transform="matrix(1 0 0 -1 50.625 65.625)" fill="#E7E7E7"/>
<rect width="3.75" height="3.75" transform="matrix(1 0 0 -1 50.625 61.875)" fill="#161415"/>
<rect width="3.75" height="3.75" transform="matrix(1 0 0 -1 50.625 58.125)" fill="#E7E7E7"/>
<rect width="3.75" height="3.75" transform="matrix(1 0 0 -1 50.625 54.375)" fill="#F4F4F4"/>
<rect width="3.75" height="3.75" transform="matrix(1 0 0 -1 50.625 50.625)" fill="#161415"/>
<rect width="3.75" height="3.75" transform="matrix(1 0 0 -1 50.625 46.875)" fill="#161415"/>
<rect width="3.75" height="3.75" transform="matrix(1 0 0 -1 50.625 43.125)" fill="#161415"/>
<rect x="73.1251" y="80.625" width="3.75" height="3.75" fill="#161415"/>
<rect x="73.1251" y="76.875" width="3.75" height="3.75" fill="#F4F4F4"/>
<rect width="3.75" height="3.75" transform="matrix(1 0 0 -1 73.1251 76.875)" fill="#C7C7C7"/>
<rect width="3.75" height="3.75" transform="matrix(1 0 0 -1 73.1251 73.125)" fill="#161415"/>
<rect width="3.75" height="3.75" transform="matrix(1 0 0 -1 73.1251 69.375)" fill="#F4F4F4"/>
<rect width="3.75" height="3.75" transform="matrix(1 0 0 -1 73.1251 65.625)" fill="#E7E7E7"/>
<rect width="3.75" height="3.75" transform="matrix(1 0 0 -1 73.1251 61.875)" fill="#F4F4F4"/>
<rect width="3.75" height="3.75" transform="matrix(1 0 0 -1 73.1251 58.125)" fill="#161415"/>
<rect x="95.625" y="80.625" width="3.75" height="3.75" fill="#161415"/>
<rect x="95.625" y="76.875" width="3.75" height="3.75" fill="#F4F4F4"/>
<rect width="3.75" height="3.75" transform="matrix(1 0 0 -1 95.625 76.875)" fill="#C7C7C7"/>
<rect width="3.75" height="3.75" transform="matrix(1 0 0 -1 95.625 73.125)" fill="#161415"/>
<rect width="3.75" height="3.75" transform="matrix(1 0 0 -1 95.625 69.375)" fill="#F4F4F4"/>
<rect width="3.75" height="3.75" transform="matrix(1 0 0 -1 95.625 65.625)" fill="#C7C7C7"/>
<rect x="31.875" y="80.625" width="3.75" height="3.75" fill="#161415"/>
<rect x="31.875" y="76.875" width="3.75" height="3.75" fill="#F4F4F4"/>
<rect width="3.75" height="3.75" transform="matrix(1 0 0 -1 31.875 76.875)" fill="#E6E6E6"/>
<rect width="3.75" height="3.75" transform="matrix(1 0 0 -1 31.875 73.125)" fill="#C7C7C7"/>
<rect width="3.75" height="3.75" transform="matrix(1 0 0 -1 31.875 69.375)" fill="#161415"/>
<rect width="3.75" height="3.75" transform="matrix(1 0 0 -1 31.875 65.625)" fill="#161415"/>
<rect width="3.75" height="3.75" transform="matrix(1 0 0 -1 31.875 61.875)" fill="#161415"/>
<rect width="3.75" height="3.75" transform="matrix(1 0 0 -1 31.875 58.125)" fill="#F4F4F4"/>
<rect width="3.75" height="3.75" transform="matrix(1 0 0 -1 31.875 54.375)" fill="#CCCCCC"/>
<rect x="54.375" y="80.625" width="3.75" height="3.75" fill="#161415"/>
<rect x="54.375" y="76.875" width="3.75" height="3.75" fill="#F4F4F4"/>
<rect width="3.75" height="3.75" transform="matrix(1 0 0 -1 54.375 76.875)" fill="#E6E6E6"/>
<rect width="3.75" height="3.75" transform="matrix(1 0 0 -1 54.375 73.125)" fill="#C7C7C7"/>
<rect width="3.75" height="3.75" transform="matrix(1 0 0 -1 54.375 69.375)" fill="#E7E7E7"/>
<rect width="3.75" height="3.75" transform="matrix(1 0 0 -1 54.375 65.625)" fill="#161415"/>
<rect width="3.75" height="3.75" transform="matrix(1 0 0 -1 54.375 61.875)" fill="#E7E7E7"/>
<rect width="3.75" height="3.75" transform="matrix(1 0 0 -1 54.375 58.125)" fill="#F4F4F4"/>
<rect width="3.75" height="3.75" transform="matrix(1 0 0 -1 54.375 54.375)" fill="#E7E7E7"/>
<rect width="3.75" height="3.75" transform="matrix(1 0 0 -1 54.375 50.625)" fill="#161415"/>
<rect width="3.75" height="3.75" transform="matrix(1 0 0 -1 54.375 46.875)" fill="#161415"/>
<rect x="76.875" y="80.625" width="3.75" height="3.75" fill="#161415"/>
<rect x="76.875" y="76.875" width="3.75" height="3.75" fill="#F4F4F4"/>
<rect width="3.75" height="3.75" transform="matrix(1 0 0 -1 76.875 76.875)" fill="#C7C7C7"/>
<rect width="3.75" height="3.75" transform="matrix(1 0 0 -1 76.875 73.125)" fill="#161415"/>
<rect width="3.75" height="3.75" transform="matrix(1 0 0 -1 76.875 69.375)" fill="#161415"/>
<rect width="3.75" height="3.75" transform="matrix(1 0 0 -1 76.875 65.625)" fill="#161415"/>
<rect width="3.75" height="3.75" transform="matrix(1 0 0 -1 76.875 61.875)" fill="#161415"/>
<rect width="3.75" height="3.75" transform="matrix(1 0 0 -1 76.875 58.125)" fill="#161415"/>
<rect x="99.375" y="76.875" width="3.75" height="3.75" fill="#161415"/>
<rect width="3.75" height="3.75" transform="matrix(1 0 0 -1 99.375 76.875)" fill="#C7C7C7"/>
<rect width="3.75" height="3.75" transform="matrix(1 0 0 -1 99.375 73.125)" fill="#161415"/>
<rect width="3.75" height="3.75" transform="matrix(1 0 0 -1 99.375 69.375)" fill="#F4F4F4"/>
<rect width="3.75" height="3.75" transform="matrix(1 0 0 -1 99.375 65.625)" fill="#C7C7C7"/>
<rect x="35.6251" y="80.625" width="3.75" height="3.75" fill="#161415"/>
<rect x="35.6251" y="76.875" width="3.75" height="3.75" fill="#F4F4F4"/>
<rect width="3.75" height="3.75" transform="matrix(1 0 0 -1 35.6251 76.875)" fill="#E6E6E6"/>
<rect width="3.75" height="3.75" transform="matrix(1 0 0 -1 35.6251 73.125)" fill="#C7C7C7"/>
<rect width="3.75" height="3.75" transform="matrix(1 0 0 -1 35.6251 69.375)" fill="#F4F4F4"/>
<rect width="3.75" height="3.75" transform="matrix(1 0 0 -1 35.6251 65.625)" fill="#161415"/>
<rect width="3.75" height="3.75" transform="matrix(1 0 0 -1 35.6251 61.875)" fill="#161415"/>
<rect width="3.75" height="3.75" transform="matrix(1 0 0 -1 35.6251 58.125)" fill="#161415"/>
<rect width="3.75" height="3.75" transform="matrix(1 0 0 -1 35.6251 54.375)" fill="#F4F4F4"/>
<rect width="3.75" height="3.75" transform="matrix(1 0 0 -1 35.6251 50.625)" fill="#CCCCCC"/>
<rect width="3.75" height="3.75" transform="matrix(1 0 0 -1 35.6251 46.875)" fill="#CCCCCC"/>
<rect x="58.125" y="80.625" width="3.75" height="3.75" fill="#161415"/>
<rect x="58.125" y="76.875" width="3.75" height="3.75" fill="#F4F4F4"/>
<rect width="3.75" height="3.75" transform="matrix(1 0 0 -1 58.125 76.875)" fill="#E6E6E6"/>
<rect width="3.75" height="3.75" transform="matrix(1 0 0 -1 58.125 73.125)" fill="#C7C7C7"/>
<rect width="3.75" height="3.75" transform="matrix(1 0 0 -1 58.125 69.375)" fill="#F4F4F4"/>
<rect width="3.75" height="3.75" transform="matrix(1 0 0 -1 58.125 65.625)" fill="#161415"/>
<rect width="3.75" height="3.75" transform="matrix(1 0 0 -1 58.125 61.875)" fill="#F4F4F4"/>
<rect width="3.75" height="3.75" transform="matrix(1 0 0 -1 58.125 58.125)" fill="#E7E7E7"/>
<rect width="3.75" height="3.75" transform="matrix(1 0 0 -1 58.125 54.375)" fill="#F4F4F4"/>
<rect width="3.75" height="3.75" transform="matrix(1 0 0 -1 58.125 50.625)" fill="#161415"/>
<rect width="3.75" height="3.75" transform="matrix(1 0 0 -1 58.125 46.875)" fill="#161415"/>
<rect x="80.625" y="80.625" width="3.75" height="3.75" fill="#161415"/>
<rect x="80.625" y="76.875" width="3.75" height="3.75" fill="#F4F4F4"/>
<rect width="3.75" height="3.75" transform="matrix(1 0 0 -1 80.625 76.875)" fill="#C7C7C7"/>
<rect width="3.75" height="3.75" transform="matrix(1 0 0 -1 80.625 73.125)" fill="#161415"/>
<rect width="3.75" height="3.75" transform="matrix(1 0 0 -1 80.625 69.375)" fill="#161415"/>
<rect width="3.75" height="3.75" transform="matrix(1 0 0 -1 80.625 65.625)" fill="#161415"/>
<rect width="3.75" height="3.75" transform="matrix(1 0 0 -1 80.625 61.875)" fill="#161415"/>
<rect width="3.75" height="3.75" transform="matrix(1 0 0 -1 80.625 58.125)" fill="#161415"/>
<rect x="103.125" y="76.875" width="3.75" height="3.75" fill="#161415"/>
<rect width="3.75" height="3.75" transform="matrix(1 0 0 -1 103.125 76.875)" fill="#C7C7C7"/>
<rect width="3.75" height="3.75" transform="matrix(1 0 0 -1 103.125 73.125)" fill="#161415"/>
<rect width="3.75" height="3.75" transform="matrix(1 0 0 -1 103.125 69.375)" fill="#F4F4F4"/>
<rect width="3.75" height="3.75" transform="matrix(1 0 0 -1 103.125 65.625)" fill="#C7C7C7"/>
<rect x="39.3751" y="80.625" width="3.75" height="3.75" fill="#161415"/>
<rect x="39.3751" y="76.875" width="3.75" height="3.75" fill="#F4F4F4"/>
<rect width="3.75" height="3.75" transform="matrix(1 0 0 -1 39.3751 76.875)" fill="#E6E6E6"/>
<rect width="3.75" height="3.75" transform="matrix(1 0 0 -1 39.3751 73.125)" fill="#C7C7C7"/>
<rect width="3.75" height="3.75" transform="matrix(1 0 0 -1 39.3751 69.375)" fill="#E7E7E7"/>
<rect width="3.75" height="3.75" transform="matrix(1 0 0 -1 39.3751 65.625)" fill="#F4F4F4"/>
<rect width="3.75" height="3.75" transform="matrix(1 0 0 -1 39.3751 61.875)" fill="#161415"/>
<rect width="3.75" height="3.75" transform="matrix(1 0 0 -1 39.3751 58.125)" fill="#161415"/>
<rect width="3.75" height="3.75" transform="matrix(1 0 0 -1 39.3751 54.375)" fill="#161415"/>
<rect width="3.75" height="3.75" transform="matrix(1 0 0 -1 39.3751 50.625)" fill="#F4F4F4"/>
<rect width="3.75" height="3.75" transform="matrix(1 0 0 -1 39.3751 46.875)" fill="#CCCCCC"/>
<rect width="3.75" height="3.75" transform="matrix(1 0 0 -1 39.3751 43.125)" fill="#CCCCCC"/>
<rect width="3.75" height="3.75" transform="matrix(1 0 0 -1 39.3751 39.375)" fill="#CCCCCC"/>
<rect x="61.875" y="80.625" width="3.75" height="3.75" fill="#161415"/>
<rect x="61.875" y="76.875" width="3.75" height="3.75" fill="#F4F4F4"/>
<rect width="3.75" height="3.75" transform="matrix(1 0 0 -1 61.875 76.875)" fill="#E6E6E6"/>
<rect width="3.75" height="3.75" transform="matrix(1 0 0 -1 61.875 73.125)" fill="#C7C7C7"/>
<rect width="3.75" height="3.75" transform="matrix(1 0 0 -1 61.875 69.375)" fill="#E7E7E7"/>
<rect width="3.75" height="3.75" transform="matrix(1 0 0 -1 61.875 65.625)" fill="#F4F4F4"/>
<rect width="3.75" height="3.75" transform="matrix(1 0 0 -1 61.875 61.875)" fill="#161415"/>
<rect width="3.75" height="3.75" transform="matrix(1 0 0 -1 61.875 58.125)" fill="#F4F4F4"/>
<rect width="3.75" height="3.75" transform="matrix(1 0 0 -1 61.875 54.375)" fill="#161415"/>
<rect width="3.75" height="3.75" transform="matrix(1 0 0 -1 61.875 50.625)" fill="#161415"/>
<rect x="84.375" y="80.625" width="3.75" height="3.75" fill="#161415"/>
<rect x="84.375" y="76.875" width="3.75" height="3.75" fill="#F4F4F4"/>
<rect width="3.75" height="3.75" transform="matrix(1 0 0 -1 84.375 76.875)" fill="#C7C7C7"/>
<rect width="3.75" height="3.75" transform="matrix(1 0 0 -1 84.375 73.125)" fill="#161415"/>
<rect width="3.75" height="3.75" transform="matrix(1 0 0 -1 84.375 69.375)" fill="#F4F4F4"/>
<rect width="3.75" height="3.75" transform="matrix(1 0 0 -1 84.375 65.625)" fill="#F4F4F4"/>
<rect width="3.75" height="3.75" transform="matrix(1 0 0 -1 84.375 61.875)" fill="#161415"/>
<rect x="106.875" y="76.875" width="3.75" height="3.75" fill="#161415"/>
<rect width="3.75" height="3.75" transform="matrix(1 0 0 -1 106.875 76.875)" fill="#C7C7C7"/>
<rect width="3.75" height="3.75" transform="matrix(1 0 0 -1 106.875 73.125)" fill="#161415"/>
<rect width="3.75" height="3.75" transform="matrix(1 0 0 -1 106.875 69.375)" fill="#F4F4F4"/>
<rect width="3.75" height="3.75" transform="matrix(1 0 0 -1 106.875 65.625)" fill="#C7C7C7"/>
<rect x="110.625" y="76.875" width="3.75" height="3.75" fill="#161415"/>
<rect width="3.75" height="3.75" transform="matrix(1 0 0 -1 110.625 76.875)" fill="#C7C7C7"/>
<rect width="3.75" height="3.75" transform="matrix(1 0 0 -1 110.625 73.125)" fill="#161415"/>
<rect width="3.75" height="3.75" transform="matrix(1 0 0 -1 110.625 69.375)" fill="#161415"/>
<rect x="114.375" y="73.125" width="3.75" height="3.75" fill="#161415"/>
</svg>
