<svg width="120" height="120" viewBox="0 0 120 120" fill="none" xmlns="http://www.w3.org/2000/svg">
<rect x="9.375" y="61.875" width="3.75" height="3.75" fill="#DCCEAA"/>
<rect x="9.375" y="65.625" width="3.75" height="3.75" fill="#DCCEAA"/>
<rect x="9.375" y="69.375" width="3.75" height="3.75" fill="#DCCEAA"/>
<rect x="13.125" y="61.875" width="3.75" height="3.75" fill="#EADCBB"/>
<rect x="13.125" y="65.625" width="3.75" height="3.75" fill="#EADCBB"/>
<rect x="13.125" y="69.375" width="3.75" height="3.75" fill="#E8DAB8"/>
<rect x="13.125" y="73.125" width="3.75" height="3.75" fill="#DCCEAA"/>
<rect x="16.875" y="61.875" width="3.75" height="3.75" fill="#EADCBB"/>
<rect x="20.625" y="61.875" width="3.75" height="3.75" fill="#EADCBB"/>
<rect x="24.375" y="61.875" width="3.75" height="3.75" fill="#EADCBB"/>
<rect x="28.125" y="61.875" width="3.75" height="3.75" fill="#EADCBB"/>
<rect x="31.875" y="61.875" width="3.75" height="3.75" fill="#EADCBB"/>
<rect x="35.625" y="61.875" width="3.75" height="3.75" fill="#EADCBB"/>
<rect x="39.375" y="61.875" width="3.75" height="3.75" fill="#EADCBB"/>
<rect width="3.75" height="3.75" transform="matrix(-1 0 0 1 46.875 61.875)" fill="#EADCBB"/>
<rect width="3.75" height="3.75" transform="matrix(-1 0 0 1 50.625 61.875)" fill="#EADCBB"/>
<rect width="3.75" height="3.75" transform="matrix(-1 0 0 1 54.375 61.875)" fill="#EADCBB"/>
<rect width="3.75" height="3.75" transform="matrix(-1 0 0 1 58.125 61.875)" fill="#EADCBB"/>
<rect width="3.75" height="3.75" transform="matrix(-1 0 0 1 61.875 61.875)" fill="#EADCBB"/>
<rect width="3.75" height="3.75" transform="matrix(-1 0 0 1 65.625 61.875)" fill="#EADCBB"/>
<rect width="3.75" height="3.75" transform="matrix(-1 0 0 1 69.375 61.875)" fill="#EADCBB"/>
<rect width="3.75" height="3.75" transform="matrix(-1 0 0 1 73.125 61.875)" fill="#EADCBB"/>
<rect width="3.75" height="3.75" transform="matrix(-1 0 0 1 76.875 61.875)" fill="#EADCBB"/>
<rect width="3.75" height="3.75" transform="matrix(-1 0 0 1 80.625 61.875)" fill="#EADCBB"/>
<rect width="3.75" height="3.75" transform="matrix(-1 0 0 1 84.375 61.875)" fill="#EADCBB"/>
<rect width="3.75" height="3.75" transform="matrix(-1 0 0 1 88.125 61.875)" fill="#EADCBB"/>
<rect width="3.75" height="3.75" transform="matrix(-1 0 0 1 91.875 61.875)" fill="#EADCBB"/>
<rect width="3.75" height="3.75" transform="matrix(-1 0 0 1 95.625 61.875)" fill="#E8DAB8"/>
<rect width="3.75" height="3.75" transform="matrix(-1 0 0 1 99.375 61.875)" fill="#E8DAB8"/>
<rect width="3.75" height="3.75" transform="matrix(-1 0 0 1 99.375 61.875)" fill="#BFAD82"/>
<rect width="3.75" height="3.75" transform="matrix(-1 0 0 1 103.125 61.875)" fill="#BFAD82"/>
<rect x="20.625" y="58.125" width="3.75" height="3.75" fill="#F5E6BE"/>
<rect x="24.375" y="58.125" width="3.75" height="3.75" fill="#EDDFBE"/>
<rect x="28.125" y="58.125" width="3.75" height="3.75" fill="#EDDFBE"/>
<rect x="31.875" y="58.125" width="3.75" height="3.75" fill="#EDDFBE"/>
<rect x="35.625" y="58.125" width="3.75" height="3.75" fill="#EDDFBE"/>
<rect x="39.375" y="58.125" width="3.75" height="3.75" fill="#EDDFBE"/>
<rect width="3.75" height="3.75" transform="matrix(-1 0 0 1 46.875 58.125)" fill="#EDDFBE"/>
<rect width="3.75" height="3.75" transform="matrix(-1 0 0 1 54.375 58.125)" fill="#EDDFBE"/>
<rect width="3.75" height="3.75" transform="matrix(-1 0 0 1 50.625 58.125)" fill="#EDDFBE"/>
<rect width="3.75" height="3.75" transform="matrix(-1 0 0 1 54.375 54.375)" fill="#DECEA7"/>
<rect width="3.75" height="3.75" transform="matrix(-1 0 0 1 58.125 58.125)" fill="#EDDFBE"/>
<rect width="3.75" height="3.75" transform="matrix(-1 0 0 1 61.875 58.125)" fill="#EDDFBE"/>
<rect width="3.75" height="3.75" transform="matrix(-1 0 0 1 65.625 58.125)" fill="#EDDFBE"/>
<rect width="3.75" height="3.75" transform="matrix(-1 0 0 1 69.375 58.125)" fill="#EDDFBE"/>
<rect width="3.75" height="3.75" transform="matrix(-1 0 0 1 73.125 58.125)" fill="#EDDFBE"/>
<rect width="3.75" height="3.75" transform="matrix(-1 0 0 1 76.875 58.125)" fill="#EDDFBE"/>
<rect width="3.75" height="3.75" transform="matrix(-1 0 0 1 80.625 58.125)" fill="#EDDFBE"/>
<rect width="3.75" height="3.75" transform="matrix(-1 0 0 1 84.375 58.125)" fill="#EDDFBE"/>
<rect width="3.75" height="3.75" transform="matrix(-1 0 0 1 88.125 58.125)" fill="#EDDFBE"/>
<rect width="3.75" height="3.75" transform="matrix(-1 0 0 1 91.875 58.125)" fill="#EDDFBE"/>
<rect width="3.75" height="3.75" transform="matrix(-1 0 0 1 95.625 58.125)" fill="#BFAD82"/>
<rect width="3.75" height="3.75" transform="matrix(-1 0 0 1 50.625 54.375)" fill="#DECEA7"/>
<rect width="3.75" height="3.75" transform="matrix(-1 0 0 1 58.125 54.375)" fill="#EDDFBE"/>
<rect width="3.75" height="3.75" transform="matrix(-1 0 0 1 61.875 54.375)" fill="#EDDFBE"/>
<rect width="3.75" height="3.75" transform="matrix(-1 0 0 1 65.625 54.375)" fill="#EDDFBE"/>
<rect width="3.75" height="3.75" transform="matrix(-1 0 0 1 69.375 54.375)" fill="#EDDFBE"/>
<rect width="3.75" height="3.75" transform="matrix(-1 0 0 1 73.125 54.375)" fill="#EDDFBE"/>
<rect width="3.75" height="3.75" transform="matrix(-1 0 0 1 76.875 54.375)" fill="#EDDFBE"/>
<rect width="3.75" height="3.75" transform="matrix(-1 0 0 1 80.625 54.375)" fill="#EDDFBE"/>
<rect width="3.75" height="3.75" transform="matrix(-1 0 0 1 84.375 54.375)" fill="#EDDFBE"/>
<rect width="3.75" height="3.75" transform="matrix(-1 0 0 1 88.125 54.375)" fill="#E2D5B5"/>
<rect width="3.75" height="3.75" transform="matrix(-1 0 0 1 91.875 54.375)" fill="#E2D5B5"/>
<rect width="3.75" height="3.75" transform="matrix(-1 0 0 1 58.125 50.625)" fill="#DECEA7"/>
<rect width="3.75" height="3.75" transform="matrix(-1 0 0 1 61.875 50.625)" fill="#F5E6BE"/>
<rect width="3.75" height="3.75" transform="matrix(-1 0 0 1 65.625 50.625)" fill="#F5E6BE"/>
<rect width="3.75" height="3.75" transform="matrix(-1 0 0 1 69.375 50.625)" fill="#F5E6BE"/>
<rect width="3.75" height="3.75" transform="matrix(-1 0 0 1 73.125 50.625)" fill="#F5E6BE"/>
<rect width="3.75" height="3.75" transform="matrix(-1 0 0 1 76.875 50.625)" fill="#F5E6BE"/>
<rect width="3.75" height="3.75" transform="matrix(-1 0 0 1 80.625 50.625)" fill="#F5E6BE"/>
<rect width="3.75" height="3.75" transform="matrix(-1 0 0 1 84.375 50.625)" fill="#ECDAAE"/>
<rect width="3.75" height="3.75" transform="matrix(-1 0 0 1 61.875 46.875)" fill="#DECEA7"/>
<rect width="3.75" height="3.75" transform="matrix(-1 0 0 1 65.625 46.875)" fill="#F9E9C3"/>
<rect width="3.75" height="3.75" transform="matrix(-1 0 0 1 69.375 46.875)" fill="#F9E9C3"/>
<rect width="3.75" height="3.75" transform="matrix(-1 0 0 1 73.125 46.875)" fill="#F9E9C3"/>
<rect width="3.75" height="3.75" transform="matrix(-1 0 0 1 76.875 46.875)" fill="#F0DFB3"/>
<rect width="3.75" height="3.75" transform="matrix(-1 0 0 1 80.625 46.875)" fill="#F0DFB3"/>
<rect width="3.75" height="3.75" transform="matrix(-1 0 0 1 65.625 43.125)" fill="#F5E8C5"/>
<rect width="3.75" height="3.75" transform="matrix(-1 0 0 1 69.375 43.125)" fill="#F5E8C5"/>
<rect width="3.75" height="3.75" transform="matrix(-1 0 0 1 73.125 43.125)" fill="#EBD8A7"/>
<rect width="3.75" height="3.75" transform="matrix(-1 0 0 1 65.625 39.375)" fill="#FDEFCD"/>
<rect width="3.75" height="3.75" transform="matrix(-1 0 0 1 69.375 39.375)" fill="#FDEFCD"/>
<rect x="16.875" y="65.625" width="3.75" height="3.75" fill="#EADCBB"/>
<rect x="20.625" y="65.625" width="3.75" height="3.75" fill="#EADCBB"/>
<rect x="24.375" y="65.625" width="3.75" height="3.75" fill="#EADCBB"/>
<rect x="28.125" y="65.625" width="3.75" height="3.75" fill="#EADCBB"/>
<rect x="31.875" y="65.625" width="3.75" height="3.75" fill="#EADCBB"/>
<rect x="35.625" y="65.625" width="3.75" height="3.75" fill="#EADCBB"/>
<rect width="3.75" height="3.75" transform="matrix(-1 0 0 1 54.375 65.625)" fill="#EADCBB"/>
<rect x="39.375" y="65.625" width="3.75" height="3.75" fill="#EADCBB"/>
<rect width="3.75" height="3.75" transform="matrix(-1 0 0 1 46.875 65.625)" fill="#EADCBB"/>
<rect width="3.75" height="3.75" transform="matrix(-1 0 0 1 50.625 65.625)" fill="#EADCBB"/>
<rect width="3.75" height="3.75" transform="matrix(-1 0 0 1 58.125 65.625)" fill="#EADCBB"/>
<rect width="3.75" height="3.75" transform="matrix(-1 0 0 1 61.875 65.625)" fill="#EADCBB"/>
<rect width="3.75" height="3.75" transform="matrix(-1 0 0 1 65.625 65.625)" fill="#EADCBB"/>
<rect width="3.75" height="3.75" transform="matrix(-1 0 0 1 69.375 65.625)" fill="#EADCBB"/>
<rect width="3.75" height="3.75" transform="matrix(-1 0 0 1 73.125 65.625)" fill="#EADCBB"/>
<rect width="3.75" height="3.75" transform="matrix(-1 0 0 1 76.875 65.625)" fill="#EADCBB"/>
<rect width="3.75" height="3.75" transform="matrix(-1 0 0 1 80.625 65.625)" fill="#EADCBB"/>
<rect width="3.75" height="3.75" transform="matrix(-1 0 0 1 84.375 65.625)" fill="#EADCBB"/>
<rect width="3.75" height="3.75" transform="matrix(-1 0 0 1 88.125 65.625)" fill="#EADCBB"/>
<rect width="3.75" height="3.75" transform="matrix(-1 0 0 1 91.875 65.625)" fill="#EADCBB"/>
<rect width="3.75" height="3.75" transform="matrix(-1 0 0 1 95.625 65.625)" fill="#EADCBB"/>
<rect width="3.75" height="3.75" transform="matrix(-1 0 0 1 99.375 65.625)" fill="#E8DAB8"/>
<rect width="3.75" height="3.75" transform="matrix(-1 0 0 1 99.375 65.625)" fill="#EADCBB"/>
<rect width="3.75" height="3.75" transform="matrix(-1 0 0 1 103.125 65.625)" fill="#EADCBB"/>
<rect width="3.75" height="3.75" transform="matrix(-1 0 0 1 106.875 65.625)" fill="#BFAD82"/>
<rect width="3.75" height="3.75" transform="matrix(-1 0 0 1 110.625 65.625)" fill="#FAEBC8"/>
<rect x="16.875" y="69.375" width="3.75" height="3.75" fill="#E8DAB8"/>
<rect x="20.625" y="69.375" width="3.75" height="3.75" fill="#E8DAB8"/>
<rect x="24.375" y="69.375" width="3.75" height="3.75" fill="#E8DAB8"/>
<rect x="28.125" y="69.375" width="3.75" height="3.75" fill="#E8DAB8"/>
<rect x="31.875" y="69.375" width="3.75" height="3.75" fill="#E8DAB8"/>
<rect width="3.75" height="3.75" transform="matrix(-1 0 0 1 54.375 69.375)" fill="#E8DAB8"/>
<rect x="35.625" y="69.375" width="3.75" height="3.75" fill="#E8DAB8"/>
<rect x="39.375" y="69.375" width="3.75" height="3.75" fill="#E8DAB8"/>
<rect width="3.75" height="3.75" transform="matrix(-1 0 0 1 46.875 69.375)" fill="#E8DAB8"/>
<rect width="3.75" height="3.75" transform="matrix(-1 0 0 1 50.625 69.375)" fill="#E8DAB8"/>
<rect width="3.75" height="3.75" transform="matrix(-1 0 0 1 58.125 69.375)" fill="#E8DAB8"/>
<rect width="3.75" height="3.75" transform="matrix(-1 0 0 1 61.875 69.375)" fill="#E8DAB8"/>
<rect width="3.75" height="3.75" transform="matrix(-1 0 0 1 65.625 69.375)" fill="#E8DAB8"/>
<rect width="3.75" height="3.75" transform="matrix(-1 0 0 1 69.375 69.375)" fill="#E8DAB8"/>
<rect width="3.75" height="3.75" transform="matrix(-1 0 0 1 73.125 69.375)" fill="#E8DAB8"/>
<rect width="3.75" height="3.75" transform="matrix(-1 0 0 1 76.875 69.375)" fill="#E8DAB8"/>
<rect width="3.75" height="3.75" transform="matrix(-1 0 0 1 80.625 69.375)" fill="#E8DAB8"/>
<rect width="3.75" height="3.75" transform="matrix(-1 0 0 1 84.375 69.375)" fill="#E8DAB8"/>
<rect width="3.75" height="3.75" transform="matrix(-1 0 0 1 88.125 69.375)" fill="#E8DAB8"/>
<rect width="3.75" height="3.75" transform="matrix(-1 0 0 1 91.875 69.375)" fill="#E8DAB8"/>
<rect width="3.75" height="3.75" transform="matrix(-1 0 0 1 95.625 69.375)" fill="#E8DAB8"/>
<rect width="3.75" height="3.75" transform="matrix(-1 0 0 1 99.375 69.375)" fill="#E8DAB8"/>
<rect width="3.75" height="3.75" transform="matrix(-1 0 0 1 99.375 69.375)" fill="#E8DAB8"/>
<rect width="3.75" height="3.75" transform="matrix(-1 0 0 1 103.125 69.375)" fill="#E8DAB8"/>
<rect width="3.75" height="3.75" transform="matrix(-1 0 0 1 106.875 69.375)" fill="#EDDFBE"/>
<rect width="3.75" height="3.75" transform="matrix(-1 0 0 1 110.625 69.375)" fill="#FAEBC8"/>
<rect x="16.875" y="73.125" width="3.75" height="3.75" fill="#E8DAB8"/>
<rect x="16.875" y="76.875" width="3.75" height="3.75" fill="#DCCEAA"/>
<rect x="20.625" y="73.125" width="3.75" height="3.75" fill="#DBCAA1"/>
<rect x="20.625" y="76.875" width="3.75" height="3.75" fill="#C7B895"/>
<rect x="24.375" y="73.125" width="3.75" height="3.75" fill="#C7B895"/>
<rect x="24.375" y="76.875" width="3.75" height="3.75" fill="#DCCEAA"/>
<rect x="28.125" y="73.125" width="3.75" height="3.75" fill="#E8DAB8"/>
<rect x="28.125" y="76.875" width="3.75" height="3.75" fill="#DCCEAA"/>
<rect width="3.75" height="3.75" transform="matrix(-1 0 0 1 54.375 73.125)" fill="#E8DAB8"/>
<rect width="3.75" height="3.75" transform="matrix(-1 0 0 1 54.375 76.875)" fill="#DCCEAA"/>
<rect x="31.875" y="73.125" width="3.75" height="3.75" fill="#DBCAA1"/>
<rect x="31.875" y="76.875" width="3.75" height="3.75" fill="#C7B895"/>
<rect x="35.625" y="73.125" width="3.75" height="3.75" fill="#C7B895"/>
<rect x="35.625" y="76.875" width="3.75" height="3.75" fill="#DCCEAA"/>
<rect x="39.375" y="73.125" width="3.75" height="3.75" fill="#E8DAB8"/>
<rect x="39.375" y="76.875" width="3.75" height="3.75" fill="#DCCEAA"/>
<rect width="3.75" height="3.75" transform="matrix(-1 0 0 1 46.875 73.125)" fill="#DBCAA1"/>
<rect width="3.75" height="3.75" transform="matrix(-1 0 0 1 46.875 76.875)" fill="#C7B895"/>
<rect width="3.75" height="3.75" transform="matrix(-1 0 0 1 50.625 73.125)" fill="#C7B895"/>
<rect width="3.75" height="3.75" transform="matrix(-1 0 0 1 50.625 76.875)" fill="#DCCEAA"/>
<rect width="3.75" height="3.75" transform="matrix(-1 0 0 1 58.125 73.125)" fill="#DBCAA1"/>
<rect width="3.75" height="3.75" transform="matrix(-1 0 0 1 58.125 76.875)" fill="#C7B895"/>
<rect width="3.75" height="3.75" transform="matrix(-1 0 0 1 61.875 73.125)" fill="#C7B895"/>
<rect width="3.75" height="3.75" transform="matrix(-1 0 0 1 61.875 76.875)" fill="#DCCEAA"/>
<rect width="3.75" height="3.75" transform="matrix(-1 0 0 1 65.625 73.125)" fill="#E8DAB8"/>
<rect width="3.75" height="3.75" transform="matrix(-1 0 0 1 65.625 76.875)" fill="#DCCEAA"/>
<rect width="3.75" height="3.75" transform="matrix(-1 0 0 1 69.375 73.125)" fill="#DBCAA1"/>
<rect width="3.75" height="3.75" transform="matrix(-1 0 0 1 69.375 76.875)" fill="#C7B895"/>
<rect width="3.75" height="3.75" transform="matrix(-1 0 0 1 73.125 73.125)" fill="#C7B895"/>
<rect width="3.75" height="3.75" transform="matrix(-1 0 0 1 73.125 76.875)" fill="#DCCEAA"/>
<rect width="3.75" height="3.75" transform="matrix(-1 0 0 1 76.875 73.125)" fill="#E8DAB8"/>
<rect width="3.75" height="3.75" transform="matrix(-1 0 0 1 76.875 76.875)" fill="#DCCEAA"/>
<rect width="3.75" height="3.75" transform="matrix(-1 0 0 1 80.625 73.125)" fill="#DBCAA1"/>
<rect width="3.75" height="3.75" transform="matrix(-1 0 0 1 80.625 76.875)" fill="#C7B895"/>
<rect width="3.75" height="3.75" transform="matrix(-1 0 0 1 84.375 73.125)" fill="#C7B895"/>
<rect width="3.75" height="3.75" transform="matrix(-1 0 0 1 84.375 76.875)" fill="#DCCEAA"/>
<rect width="3.75" height="3.75" transform="matrix(-1 0 0 1 88.125 73.125)" fill="#E8DAB8"/>
<rect width="3.75" height="3.75" transform="matrix(-1 0 0 1 88.125 76.875)" fill="#DCCEAA"/>
<rect width="3.75" height="3.75" transform="matrix(-1 0 0 1 91.875 73.125)" fill="#DBCAA1"/>
<rect width="3.75" height="3.75" transform="matrix(-1 0 0 1 91.875 76.875)" fill="#C7B895"/>
<rect width="3.75" height="3.75" transform="matrix(-1 0 0 1 95.625 73.125)" fill="#C7B895"/>
<rect width="3.75" height="3.75" transform="matrix(-1 0 0 1 95.625 76.875)" fill="#DCCEAA"/>
<rect width="3.75" height="3.75" transform="matrix(-1 0 0 1 99.375 73.125)" fill="#E8DAB8"/>
<rect width="3.75" height="3.75" transform="matrix(-1 0 0 1 99.375 73.125)" fill="#E8DAB8"/>
<rect width="3.75" height="3.75" transform="matrix(-1 0 0 1 99.375 76.875)" fill="#DCCEAA"/>
<rect width="3.75" height="3.75" transform="matrix(-1 0 0 1 103.125 73.125)" fill="#E8DAB8"/>
<rect width="3.75" height="3.75" transform="matrix(-1 0 0 1 106.875 73.125)" fill="#E8DAB8"/>
</svg>
