<svg width="120" height="120" viewBox="0 0 120 120" fill="none" xmlns="http://www.w3.org/2000/svg">
<rect x="112.5" y="71.25" width="3.75" height="3.75" fill="#CA996B"/>
<rect x="112.5" y="67.5" width="3.75" height="3.75" fill="#CA996B"/>
<rect x="108.75" y="67.5" width="3.75" height="3.75" fill="#DDC286"/>
<rect x="108.75" y="63.75" width="3.75" height="3.75" fill="#D0B7A9"/>
<rect x="105" y="63.75" width="3.75" height="3.75" fill="#D0B7A9"/>
<rect x="101.25" y="63.75" width="3.75" height="3.75" fill="#D0B7A9"/>
<rect x="97.5" y="63.75" width="3.75" height="3.75" fill="#D0B7A9"/>
<rect x="93.75" y="60" width="3.75" height="3.75" fill="#D0B7A9"/>
<rect x="90" y="60" width="3.75" height="3.75" fill="#D0B7A9"/>
<rect x="86.25" y="60" width="3.75" height="3.75" fill="#D0B7A9"/>
<rect x="82.5" y="60" width="3.75" height="3.75" fill="#D0B7A9"/>
<rect x="78.75" y="56.25" width="3.75" height="3.75" fill="#DAB090"/>
<rect x="108.75" y="71.25" width="3.75" height="3.75" fill="#CA996B"/>
<rect x="105" y="75" width="3.75" height="3.75" fill="#CA996B"/>
<rect x="105" y="71.25" width="3.75" height="3.75" fill="#DDC286"/>
<rect x="105" y="67.5" width="3.75" height="3.75" fill="#E3C5AC"/>
<rect x="101.25" y="75" width="3.75" height="3.75" fill="#CA996B"/>
<rect x="101.25" y="71.25" width="3.75" height="3.75" fill="#D1BB89"/>
<rect x="101.25" y="67.5" width="3.75" height="3.75" fill="#E3C5AC"/>
<rect x="97.5" y="78.75" width="3.75" height="3.75" fill="#CA996B"/>
<rect x="97.5" y="75" width="3.75" height="3.75" fill="#D1BB89"/>
<rect x="97.5" y="71.25" width="3.75" height="3.75" fill="#DDC286"/>
<rect x="97.5" y="67.5" width="3.75" height="3.75" fill="#E3C5AC"/>
<rect x="93.75" y="78.75" width="3.75" height="3.75" fill="#CA996B"/>
<rect x="93.75" y="75" width="3.75" height="3.75" fill="#DDC286"/>
<rect x="93.75" y="71.25" width="3.75" height="3.75" fill="#E2C3AC"/>
<rect x="93.75" y="67.5" width="3.75" height="3.75" fill="#F0D7C2"/>
<rect x="93.75" y="63.75" width="3.75" height="3.75" fill="#E3C5AC"/>
<rect x="90" y="78.75" width="3.75" height="3.75" fill="#CA996B"/>
<rect x="90" y="75" width="3.75" height="3.75" fill="#D1BB89"/>
<rect x="90" y="71.25" width="3.75" height="3.75" fill="#E2C3AC"/>
<rect x="90" y="67.5" width="3.75" height="3.75" fill="#F0D7C2"/>
<rect x="90" y="63.75" width="3.75" height="3.75" fill="#E3C5AC"/>
<rect x="86.25" y="78.75" width="3.75" height="3.75" fill="#CA996B"/>
<rect x="86.25" y="75" width="3.75" height="3.75" fill="#DDC286"/>
<rect x="86.25" y="71.25" width="3.75" height="3.75" fill="#E2C3AC"/>
<rect x="86.25" y="67.5" width="3.75" height="3.75" fill="#F0D7C2"/>
<rect x="86.25" y="63.75" width="3.75" height="3.75" fill="#E3C5AC"/>
<rect x="82.5" y="82.5" width="3.75" height="3.75" fill="#CA996B"/>
<rect x="75" y="82.5" width="3.75" height="3.75" fill="#CA996B"/>
<rect x="67.5" y="82.5" width="3.75" height="3.75" fill="#CA996B"/>
<rect x="33.75" y="82.5" width="3.75" height="3.75" fill="#CA996B"/>
<rect x="60" y="82.5" width="3.75" height="3.75" fill="#CA996B"/>
<rect x="26.25" y="82.5" width="3.75" height="3.75" fill="#CA996B"/>
<rect x="52.5" y="82.5" width="3.75" height="3.75" fill="#CA996B"/>
<rect x="18.75" y="82.5" width="3.75" height="3.75" fill="#CA996B"/>
<rect x="45" y="82.5" width="3.75" height="3.75" fill="#CA996B"/>
<rect x="11.25" y="82.5" width="3.75" height="3.75" fill="#CA996B"/>
<rect x="75" y="78.75" width="3.75" height="3.75" fill="#DDC286"/>
<rect x="75" y="75" width="3.75" height="3.75" fill="#E2C3AC"/>
<rect x="75" y="71.25" width="3.75" height="3.75" fill="#F0D7C2"/>
<rect x="75" y="67.5" width="3.75" height="3.75" fill="#F0D7C2"/>
<rect x="75" y="63.75" width="3.75" height="3.75" fill="#F0D7C2"/>
<rect x="75" y="60" width="3.75" height="3.75" fill="#DAB090"/>
<rect x="75" y="56.25" width="3.75" height="3.75" fill="#DAB090"/>
<rect x="67.5" y="78.75" width="3.75" height="3.75" fill="#DDC286"/>
<rect x="67.5" y="75" width="3.75" height="3.75" fill="#E2C3AC"/>
<rect x="67.5" y="71.25" width="3.75" height="3.75" fill="#F0D7C2"/>
<rect x="67.5" y="67.5" width="3.75" height="3.75" fill="#E5C7AF"/>
<rect x="67.5" y="63.75" width="3.75" height="3.75" fill="#DAB090"/>
<rect x="67.5" y="60" width="3.75" height="3.75" fill="#F0D7C2"/>
<rect x="67.5" y="56.25" width="3.75" height="3.75" fill="#B7916B"/>
<rect x="67.5" y="52.5" width="3.75" height="3.75" fill="#F0D7C2"/>
<rect x="33.75" y="78.75" width="3.75" height="3.75" fill="#D1BB89"/>
<rect x="33.75" y="75" width="3.75" height="3.75" fill="#E2C3AC"/>
<rect x="33.75" y="71.25" width="3.75" height="3.75" fill="#EBCEB7"/>
<rect x="33.75" y="67.5" width="3.75" height="3.75" fill="#F0D7C2"/>
<rect x="33.75" y="63.75" width="3.75" height="3.75" fill="#DAB090"/>
<rect x="33.75" y="60" width="3.75" height="3.75" fill="#F0D7C2"/>
<rect x="33.75" y="56.25" width="3.75" height="3.75" fill="#E5C7AF"/>
<rect x="33.75" y="52.5" width="3.75" height="3.75" fill="#D5B59C"/>
<rect x="60" y="78.75" width="3.75" height="3.75" fill="#DDC286"/>
<rect x="60" y="75" width="3.75" height="3.75" fill="#E2C3AC"/>
<rect x="60" y="71.25" width="3.75" height="3.75" fill="#F0D7C2"/>
<rect x="60" y="67.5" width="3.75" height="3.75" fill="#E5C7AF"/>
<rect x="60" y="63.75" width="3.75" height="3.75" fill="#DAB090"/>
<rect x="60" y="60" width="3.75" height="3.75" fill="#F0D7C2"/>
<rect x="60" y="56.25" width="3.75" height="3.75" fill="#EBCEB7"/>
<rect x="60" y="52.5" width="3.75" height="3.75" fill="#B7916B"/>
<rect x="60" y="48.75" width="3.75" height="3.75" fill="#F0D7C2"/>
<rect x="26.25" y="78.75" width="3.75" height="3.75" fill="#D1BB89"/>
<rect x="26.25" y="75" width="3.75" height="3.75" fill="#E2C3AC"/>
<rect x="26.25" y="71.25" width="3.75" height="3.75" fill="#EBCEB7"/>
<rect x="26.25" y="67.5" width="3.75" height="3.75" fill="#F0D7C2"/>
<rect x="26.25" y="63.75" width="3.75" height="3.75" fill="#DAB090"/>
<rect x="26.25" y="60" width="3.75" height="3.75" fill="#DAB090"/>
<rect x="26.25" y="56.25" width="3.75" height="3.75" fill="#EBCEB7"/>
<rect x="26.25" y="52.5" width="3.75" height="3.75" fill="#F0D7C2"/>
<rect x="26.25" y="48.75" width="3.75" height="3.75" fill="#D5B59C"/>
<rect x="52.5" y="78.75" width="3.75" height="3.75" fill="#DDC286"/>
<rect x="52.5" y="75" width="3.75" height="3.75" fill="#E2C3AC"/>
<rect x="52.5" y="71.25" width="3.75" height="3.75" fill="#F0D7C2"/>
<rect x="52.5" y="67.5" width="3.75" height="3.75" fill="#DAB090"/>
<rect x="52.5" y="63.75" width="3.75" height="3.75" fill="#EBCEB7"/>
<rect x="52.5" y="60" width="3.75" height="3.75" fill="#E6C7AF"/>
<rect x="52.5" y="56.25" width="3.75" height="3.75" fill="#F0D7C2"/>
<rect x="52.5" y="52.5" width="3.75" height="3.75" fill="#E5C7AF"/>
<rect x="52.5" y="48.75" width="3.75" height="3.75" fill="#B7916B"/>
<rect x="18.75" y="78.75" width="3.75" height="3.75" fill="#D1BB89"/>
<rect x="18.75" y="75" width="3.75" height="3.75" fill="#DDC286"/>
<rect x="18.75" y="71.25" width="3.75" height="3.75" fill="#E2C3AC"/>
<rect x="18.75" y="67.5" width="3.75" height="3.75" fill="#F0D7C2"/>
<rect x="18.75" y="63.75" width="3.75" height="3.75" fill="#EBCEB7"/>
<rect x="18.75" y="60" width="3.75" height="3.75" fill="#DAB090"/>
<rect x="18.75" y="56.25" width="3.75" height="3.75" fill="#DAB090"/>
<rect x="18.75" y="52.5" width="3.75" height="3.75" fill="#E2C4AC"/>
<rect x="45" y="78.75" width="3.75" height="3.75" fill="#DDC286"/>
<rect x="45" y="75" width="3.75" height="3.75" fill="#E2C3AC"/>
<rect x="45" y="71.25" width="3.75" height="3.75" fill="#EBCEB7"/>
<rect x="45" y="67.5" width="3.75" height="3.75" fill="#DAB090"/>
<rect x="45" y="63.75" width="3.75" height="3.75" fill="#F0D7C2"/>
<rect x="45" y="60" width="3.75" height="3.75" fill="#E5C7AF"/>
<rect x="45" y="56.25" width="3.75" height="3.75" fill="#B7916B"/>
<rect x="45" y="52.5" width="3.75" height="3.75" fill="#F0D7C2"/>
<rect x="45" y="48.75" width="3.75" height="3.75" fill="#D5B59C"/>
<rect x="11.25" y="78.75" width="3.75" height="3.75" fill="#D1BB89"/>
<rect x="11.25" y="75" width="3.75" height="3.75" fill="#DDC286"/>
<rect x="11.25" y="71.25" width="3.75" height="3.75" fill="#D1BB89"/>
<rect x="11.25" y="67.5" width="3.75" height="3.75" fill="#E2C4AC"/>
<rect x="11.25" y="63.75" width="3.75" height="3.75" fill="#E2C4AC"/>
<rect x="7.5" y="78.75" width="3.75" height="3.75" fill="#CA996B"/>
<rect x="7.5" y="75" width="3.75" height="3.75" fill="#D1BB89"/>
<rect x="7.5" y="71.25" width="3.75" height="3.75" fill="#DDC286"/>
<rect x="7.5" y="67.5" width="3.75" height="3.75" fill="#DDC286"/>
<rect x="3.75" y="75" width="3.75" height="3.75" fill="#CA996B"/>
<rect x="3.75" y="71.25" width="3.75" height="3.75" fill="#CA996B"/>
<rect x="3.75" y="67.5" width="3.75" height="3.75" fill="#D5B59C"/>
<rect x="7.5" y="63.75" width="3.75" height="3.75" fill="#D5B59C"/>
<rect x="78.75" y="82.5" width="3.75" height="3.75" fill="#CA996B"/>
<rect x="71.25" y="82.5" width="3.75" height="3.75" fill="#CA996B"/>
<rect x="37.5" y="82.5" width="3.75" height="3.75" fill="#CA996B"/>
<rect x="63.75" y="82.5" width="3.75" height="3.75" fill="#CA996B"/>
<rect x="30" y="82.5" width="3.75" height="3.75" fill="#CA996B"/>
<rect x="56.25" y="82.5" width="3.75" height="3.75" fill="#CA996B"/>
<rect x="22.5" y="82.5" width="3.75" height="3.75" fill="#CA996B"/>
<rect x="48.75" y="82.5" width="3.75" height="3.75" fill="#CA996B"/>
<rect x="15" y="82.5" width="3.75" height="3.75" fill="#CA996B"/>
<rect x="41.25" y="82.5" width="3.75" height="3.75" fill="#CA996B"/>
<rect x="11.25" y="60" width="3.75" height="3.75" fill="#D5B59C"/>
<rect x="15" y="56.25" width="3.75" height="3.75" fill="#DAB090"/>
<rect x="15" y="52.5" width="3.75" height="3.75" fill="#D5B59C"/>
<rect x="18.75" y="48.75" width="3.75" height="3.75" fill="#D5B59C"/>
<rect x="22.5" y="45" width="3.75" height="3.75" fill="#D5B59C"/>
<rect x="22.5" y="48.75" width="3.75" height="3.75" fill="#E2C4AC"/>
<rect x="18.75" y="45" width="3.75" height="3.75" fill="#D5B59C"/>
<rect x="18.75" y="41.25" width="3.75" height="3.75" fill="#D5B59C"/>
<rect x="15" y="41.25" width="3.75" height="3.75" fill="#D5B59C"/>
<rect x="78.75" y="78.75" width="3.75" height="3.75" fill="#D1BB89"/>
<rect x="78.75" y="75" width="3.75" height="3.75" fill="#E2C3AC"/>
<rect x="78.75" y="71.25" width="3.75" height="3.75" fill="#F0D7C2"/>
<rect x="78.75" y="67.5" width="3.75" height="3.75" fill="#EBCEB7"/>
<rect x="78.75" y="63.75" width="3.75" height="3.75" fill="#F0D7C2"/>
<rect x="78.75" y="60" width="3.75" height="3.75" fill="#836648"/>
<rect x="71.25" y="78.75" width="3.75" height="3.75" fill="#D1BB89"/>
<rect x="71.25" y="75" width="3.75" height="3.75" fill="#E2C3AC"/>
<rect x="71.25" y="71.25" width="3.75" height="3.75" fill="#EBCEB7"/>
<rect x="71.25" y="67.5" width="3.75" height="3.75" fill="#F0D7C2"/>
<rect x="71.25" y="63.75" width="3.75" height="3.75" fill="#DAB090"/>
<rect x="71.25" y="60" width="3.75" height="3.75" fill="#DAB090"/>
<rect x="71.25" y="56.25" width="3.75" height="3.75" fill="#836648"/>
<rect x="71.25" y="52.5" width="3.75" height="3.75" fill="#B7916B"/>
<rect x="37.5" y="78.75" width="3.75" height="3.75" fill="#DDC286"/>
<rect x="37.5" y="75" width="3.75" height="3.75" fill="#E2C3AC"/>
<rect x="37.5" y="71.25" width="3.75" height="3.75" fill="#F0D7C2"/>
<rect x="37.5" y="67.5" width="3.75" height="3.75" fill="#DAB090"/>
<rect x="37.5" y="63.75" width="3.75" height="3.75" fill="#F0D7C2"/>
<rect x="37.5" y="60" width="3.75" height="3.75" fill="#EBCEB7"/>
<rect x="37.5" y="56.25" width="3.75" height="3.75" fill="#F0D7C2"/>
<rect x="37.5" y="52.5" width="3.75" height="3.75" fill="#D5B59C"/>
<rect x="63.75" y="78.75" width="3.75" height="3.75" fill="#D1BB89"/>
<rect x="63.75" y="75" width="3.75" height="3.75" fill="#E2C3AC"/>
<rect x="63.75" y="71.25" width="3.75" height="3.75" fill="#F0D7C2"/>
<rect x="63.75" y="67.5" width="3.75" height="3.75" fill="#F0D7C2"/>
<rect x="63.75" y="63.75" width="3.75" height="3.75" fill="#DAB090"/>
<rect x="63.75" y="60" width="3.75" height="3.75" fill="#E5C7AF"/>
<rect x="63.75" y="56.25" width="3.75" height="3.75" fill="#F0D7C2"/>
<rect x="63.75" y="52.5" width="3.75" height="3.75" fill="#836648"/>
<rect x="63.75" y="48.75" width="3.75" height="3.75" fill="#B7916B"/>
<rect x="60" y="45" width="3.75" height="3.75" fill="#D5B59C"/>
<rect x="56.25" y="45" width="3.75" height="3.75" fill="#B7916B"/>
<rect x="56.25" y="41.25" width="3.75" height="3.75" fill="#D5B59C"/>
<rect x="56.25" y="37.5" width="3.75" height="3.75" fill="#D5B59C"/>
<rect x="56.25" y="33.75" width="3.75" height="3.75" fill="#D5B59C"/>
<rect x="52.5" y="37.5" width="3.75" height="3.75" fill="#D5B59C"/>
<rect x="52.5" y="41.25" width="3.75" height="3.75" fill="#F0D7C2"/>
<rect x="52.5" y="45" width="3.75" height="3.75" fill="#F0D7C2"/>
<rect x="48.75" y="45" width="3.75" height="3.75" fill="#E5C7AF"/>
<rect x="45" y="45" width="3.75" height="3.75" fill="#D5B59C"/>
<rect x="48.75" y="41.25" width="3.75" height="3.75" fill="#D5B59C"/>
<rect x="30" y="78.75" width="3.75" height="3.75" fill="#DDC286"/>
<rect x="30" y="75" width="3.75" height="3.75" fill="#E2C3AC"/>
<rect x="30" y="71.25" width="3.75" height="3.75" fill="#F0D7C2"/>
<rect x="30" y="67.5" width="3.75" height="3.75" fill="#E5C7AF"/>
<rect x="30" y="63.75" width="3.75" height="3.75" fill="#DAB090"/>
<rect x="30" y="60" width="3.75" height="3.75" fill="#E5C7AF"/>
<rect x="30" y="56.25" width="3.75" height="3.75" fill="#EBCEB7"/>
<rect x="30" y="52.5" width="3.75" height="3.75" fill="#D5B59C"/>
<rect x="56.25" y="78.75" width="3.75" height="3.75" fill="#D1BB89"/>
<rect x="56.25" y="75" width="3.75" height="3.75" fill="#E2C3AC"/>
<rect x="56.25" y="71.25" width="3.75" height="3.75" fill="#EBCEB7"/>
<rect x="56.25" y="67.5" width="3.75" height="3.75" fill="#DAB090"/>
<rect x="56.25" y="63.75" width="3.75" height="3.75" fill="#F0D7C2"/>
<rect x="56.25" y="60" width="3.75" height="3.75" fill="#EBCEB7"/>
<rect x="56.25" y="56.25" width="3.75" height="3.75" fill="#F0D7C2"/>
<rect x="56.25" y="52.5" width="3.75" height="3.75" fill="#F0D7C2"/>
<rect x="56.25" y="48.75" width="3.75" height="3.75" fill="#836648"/>
<rect x="22.5" y="78.75" width="3.75" height="3.75" fill="#DDC286"/>
<rect x="22.5" y="75" width="3.75" height="3.75" fill="#E2C3AC"/>
<rect x="22.5" y="71.25" width="3.75" height="3.75" fill="#F0D7C2"/>
<rect x="22.5" y="67.5" width="3.75" height="3.75" fill="#E5C7AF"/>
<rect x="22.5" y="63.75" width="3.75" height="3.75" fill="#F0D7C2"/>
<rect x="22.5" y="60" width="3.75" height="3.75" fill="#DAB090"/>
<rect x="22.5" y="56.25" width="3.75" height="3.75" fill="#F0D7C2"/>
<rect x="22.5" y="52.5" width="3.75" height="3.75" fill="#E2C4AC"/>
<rect x="48.75" y="78.75" width="3.75" height="3.75" fill="#D1BB89"/>
<rect x="48.75" y="75" width="3.75" height="3.75" fill="#E2C3AC"/>
<rect x="48.75" y="71.25" width="3.75" height="3.75" fill="#F0D7C2"/>
<rect x="48.75" y="67.5" width="3.75" height="3.75" fill="#DAB090"/>
<rect x="48.75" y="63.75" width="3.75" height="3.75" fill="#F0D7C2"/>
<rect x="48.75" y="60" width="3.75" height="3.75" fill="#F0D7C2"/>
<rect x="48.75" y="56.25" width="3.75" height="3.75" fill="#EBCEB7"/>
<rect x="48.75" y="52.5" width="3.75" height="3.75" fill="#EBCEB7"/>
<rect x="48.75" y="48.75" width="3.75" height="3.75" fill="#F0D7C2"/>
<rect x="15" y="78.75" width="3.75" height="3.75" fill="#DDC286"/>
<rect x="15" y="75" width="3.75" height="3.75" fill="#D1BB89"/>
<rect x="15" y="71.25" width="3.75" height="3.75" fill="#E2C3AC"/>
<rect x="15" y="67.5" width="3.75" height="3.75" fill="#F0D7C2"/>
<rect x="15" y="63.75" width="3.75" height="3.75" fill="#E2C4AC"/>
<rect x="15" y="60" width="3.75" height="3.75" fill="#E2C4AC"/>
<rect x="41.25" y="78.75" width="3.75" height="3.75" fill="#D1BB89"/>
<rect x="41.25" y="75" width="3.75" height="3.75" fill="#E2C3AC"/>
<rect x="41.25" y="71.25" width="3.75" height="3.75" fill="#E5C7AF"/>
<rect x="41.25" y="67.5" width="3.75" height="3.75" fill="#DAB090"/>
<rect x="41.25" y="63.75" width="3.75" height="3.75" fill="#EBCEB7"/>
<rect x="41.25" y="60" width="3.75" height="3.75" fill="#F0D7C2"/>
<rect x="41.25" y="56.25" width="3.75" height="3.75" fill="#836648"/>
<rect x="41.25" y="52.5" width="3.75" height="3.75" fill="#B7916B"/>
<rect x="82.5" y="78.75" width="3.75" height="3.75" fill="#DDC286"/>
<rect x="82.5" y="75" width="3.75" height="3.75" fill="#D1BB89"/>
<rect x="82.5" y="71.25" width="3.75" height="3.75" fill="#E2C3AC"/>
<rect x="82.5" y="67.5" width="3.75" height="3.75" fill="#F0D7C2"/>
<rect x="82.5" y="63.75" width="3.75" height="3.75" fill="#E3C5AC"/>
</svg>
