<svg width="120" height="120" viewBox="0 0 120 120" fill="none" xmlns="http://www.w3.org/2000/svg">
<rect x="5.62501" y="76.875" width="3.75" height="3.75" fill="#E0E0E0"/>
<rect x="5.62501" y="73.125" width="3.75" height="3.75" fill="#E0E0E0"/>
<rect x="5.62501" y="69.375" width="3.75" height="3.75" fill="#1F1F23"/>
<rect x="5.62501" y="65.625" width="3.75" height="3.75" fill="#D0D0D0"/>
<rect x="5.62501" y="61.875" width="3.75" height="3.75" fill="#D0D0D0"/>
<rect x="9.375" y="80.625" width="3.75" height="3.75" fill="#1F1F23"/>
<rect x="31.875" y="80.625" width="3.75" height="3.75" fill="#EAEAEA"/>
<rect x="54.375" y="80.625" width="3.75" height="3.75" fill="#1F1F23"/>
<rect x="76.875" y="80.625" width="3.75" height="3.75" fill="#1F1F23"/>
<rect x="16.875" y="80.625" width="3.75" height="3.75" fill="#1F1F23"/>
<rect x="39.375" y="80.625" width="3.75" height="3.75" fill="#1F1F23"/>
<rect x="61.875" y="80.625" width="3.75" height="3.75" fill="#1F1F23"/>
<rect x="84.375" y="80.625" width="3.75" height="3.75" fill="#1F1F23"/>
<rect x="24.375" y="80.625" width="3.75" height="3.75" fill="#1F1F23"/>
<rect x="46.875" y="80.625" width="3.75" height="3.75" fill="#1F1F23"/>
<rect x="69.375" y="80.625" width="3.75" height="3.75" fill="#1F1F23"/>
<rect x="91.875" y="80.625" width="3.75" height="3.75" fill="#1F1F23"/>
<rect x="13.125" y="80.625" width="3.75" height="3.75" fill="#1F1F23"/>
<rect x="35.625" y="80.625" width="3.75" height="3.75" fill="#EAEAEA"/>
<rect x="58.125" y="80.625" width="3.75" height="3.75" fill="#1F1F23"/>
<rect x="80.625" y="80.625" width="3.75" height="3.75" fill="#1F1F23"/>
<rect x="20.625" y="80.625" width="3.75" height="3.75" fill="#1F1F23"/>
<rect x="43.125" y="80.625" width="3.75" height="3.75" fill="#1F1F23"/>
<rect x="65.625" y="80.625" width="3.75" height="3.75" fill="#1F1F23"/>
<rect x="88.125" y="80.625" width="3.75" height="3.75" fill="#1F1F23"/>
<rect x="28.125" y="80.625" width="3.75" height="3.75" fill="#1F1F23"/>
<rect x="50.625" y="80.625" width="3.75" height="3.75" fill="#1F1F23"/>
<rect x="73.125" y="80.625" width="3.75" height="3.75" fill="#1F1F23"/>
<rect x="9.375" y="76.875" width="3.75" height="3.75" fill="#E0E0E0"/>
<rect x="9.375" y="73.125" width="3.75" height="3.75" fill="#EAEAEA"/>
<rect x="9.375" y="69.375" width="3.75" height="3.75" fill="#1F1F23"/>
<rect x="9.375" y="65.625" width="3.75" height="3.75" fill="#E0E0E0"/>
<rect x="9.375" y="61.875" width="3.75" height="3.75" fill="#E0E0E0"/>
<rect x="31.875" y="76.875" width="3.75" height="3.75" fill="#EAEAEA"/>
<rect x="31.875" y="73.125" width="3.75" height="3.75" fill="#1F1F23"/>
<rect x="31.875" y="69.375" width="3.75" height="3.75" fill="#D3D3D3"/>
<rect x="31.875" y="65.625" width="3.75" height="3.75" fill="#D8D8D8"/>
<rect x="31.875" y="61.875" width="3.75" height="3.75" fill="#D3D3D3"/>
<rect x="54.375" y="76.875" width="3.75" height="3.75" fill="#EAEAEA"/>
<rect x="54.375" y="73.125" width="3.75" height="3.75" fill="#D8D8D8"/>
<rect x="54.375" y="69.375" width="3.75" height="3.75" fill="#D3D3D3"/>
<rect x="54.375" y="65.625" width="3.75" height="3.75" fill="#D8D8D8"/>
<rect x="54.375" y="61.875" width="3.75" height="3.75" fill="#AEAEAE"/>
<rect x="76.875" y="76.875" width="3.75" height="3.75" fill="#EAEAEA"/>
<rect x="76.875" y="73.125" width="3.75" height="3.75" fill="#ADADAD"/>
<rect x="76.875" y="69.375" width="3.75" height="3.75" fill="#ADADAD"/>
<rect x="76.875" y="65.625" width="3.75" height="3.75" fill="#D8D8D8"/>
<rect x="76.875" y="61.875" width="3.75" height="3.75" fill="#D3D3D3"/>
<rect x="13.125" y="76.875" width="3.75" height="3.75" fill="#1F1F23"/>
<rect x="13.125" y="73.125" width="3.75" height="3.75" fill="#EAEAEA"/>
<rect x="13.125" y="69.375" width="3.75" height="3.75" fill="#1F1F23"/>
<rect x="13.125" y="65.625" width="3.75" height="3.75" fill="#1F1F23"/>
<rect x="13.125" y="61.875" width="3.75" height="3.75" fill="#E0E0E0"/>
<rect x="35.625" y="76.875" width="3.75" height="3.75" fill="#EAEAEA"/>
<rect x="35.625" y="73.125" width="3.75" height="3.75" fill="#1F1F23"/>
<rect x="35.625" y="69.375" width="3.75" height="3.75" fill="#D8D8D8"/>
<rect x="35.625" y="65.625" width="3.75" height="3.75" fill="#D3D3D3"/>
<rect x="35.625" y="61.875" width="3.75" height="3.75" fill="#D8D8D8"/>
<rect x="58.125" y="76.875" width="3.75" height="3.75" fill="#EAEAEA"/>
<rect x="58.125" y="73.125" width="3.75" height="3.75" fill="#D3D3D3"/>
<rect x="58.125" y="69.375" width="3.75" height="3.75" fill="#D8D8D8"/>
<rect x="58.125" y="65.625" width="3.75" height="3.75" fill="#AEAEAE"/>
<rect x="58.125" y="61.875" width="3.75" height="3.75" fill="#D0D0D0"/>
<rect x="80.625" y="76.875" width="3.75" height="3.75" fill="#EAEAEA"/>
<rect x="80.625" y="73.125" width="3.75" height="3.75" fill="#ADADAD"/>
<rect x="80.625" y="69.375" width="3.75" height="3.75" fill="#ADADAD"/>
<rect x="80.625" y="65.625" width="3.75" height="3.75" fill="#ADADAD"/>
<rect x="80.625" y="61.875" width="3.75" height="3.75" fill="#D8D8D8"/>
<rect x="16.875" y="76.875" width="3.75" height="3.75" fill="#1F1F23"/>
<rect x="16.875" y="73.125" width="3.75" height="3.75" fill="#EAEAEA"/>
<rect x="16.875" y="69.375" width="3.75" height="3.75" fill="#1F1F23"/>
<rect x="16.875" y="65.625" width="3.75" height="3.75" fill="#1F1F23"/>
<rect x="16.875" y="61.875" width="3.75" height="3.75" fill="#E0E0E0"/>
<rect x="39.375" y="76.875" width="3.75" height="3.75" fill="#EAEAEA"/>
<rect x="39.375" y="73.125" width="3.75" height="3.75" fill="#1F1F23"/>
<rect x="39.375" y="69.375" width="3.75" height="3.75" fill="#D3D3D3"/>
<rect x="39.375" y="65.625" width="3.75" height="3.75" fill="#D8D8D8"/>
<rect x="39.375" y="61.875" width="3.75" height="3.75" fill="#AEAEAE"/>
<rect x="61.875" y="76.875" width="3.75" height="3.75" fill="#EAEAEA"/>
<rect x="61.875" y="73.125" width="3.75" height="3.75" fill="#D8D8D8"/>
<rect x="61.875" y="69.375" width="3.75" height="3.75" fill="#D3D3D3"/>
<rect x="61.875" y="65.625" width="3.75" height="3.75" fill="#D8D8D8"/>
<rect x="61.875" y="61.875" width="3.75" height="3.75" fill="#AEAEAE"/>
<rect x="84.375" y="76.875" width="3.75" height="3.75" fill="#EAEAEA"/>
<rect x="84.375" y="73.125" width="3.75" height="3.75" fill="#ADADAD"/>
<rect x="84.375" y="69.375" width="3.75" height="3.75" fill="#ADADAD"/>
<rect x="84.375" y="65.625" width="3.75" height="3.75" fill="#EAEAEA"/>
<rect x="84.375" y="61.875" width="3.75" height="3.75" fill="#EAEAEA"/>
<rect x="24.375" y="76.875" width="3.75" height="3.75" fill="#EAEAEA"/>
<rect x="24.375" y="73.125" width="3.75" height="3.75" fill="#1F1F23"/>
<rect x="24.375" y="69.375" width="3.75" height="3.75" fill="#1F1F23"/>
<rect x="24.375" y="65.625" width="3.75" height="3.75" fill="#D8D8D8"/>
<rect x="24.375" y="61.875" width="3.75" height="3.75" fill="#D3D3D3"/>
<rect x="46.875" y="76.875" width="3.75" height="3.75" fill="#1F1F23"/>
<rect x="46.875" y="73.125" width="3.75" height="3.75" fill="#D8D8D8"/>
<rect x="46.875" y="69.375" width="3.75" height="3.75" fill="#D3D3D3"/>
<rect x="46.875" y="65.625" width="3.75" height="3.75" fill="#D8D8D8"/>
<rect x="46.875" y="61.875" width="3.75" height="3.75" fill="#AEAEAE"/>
<rect x="69.375" y="76.875" width="3.75" height="3.75" fill="#EAEAEA"/>
<rect x="69.375" y="73.125" width="3.75" height="3.75" fill="#D8D8D8"/>
<rect x="69.375" y="69.375" width="3.75" height="3.75" fill="#D3D3D3"/>
<rect x="69.375" y="65.625" width="3.75" height="3.75" fill="#D8D8D8"/>
<rect x="69.375" y="61.875" width="3.75" height="3.75" fill="#D3D3D3"/>
<rect x="91.875" y="76.875" width="3.75" height="3.75" fill="#EAEAEA"/>
<rect x="91.875" y="73.125" width="3.75" height="3.75" fill="#EAEAEA"/>
<rect x="91.875" y="69.375" width="3.75" height="3.75" fill="#ADADAD"/>
<rect x="91.875" y="65.625" width="3.75" height="3.75" fill="#EAEAEA"/>
<rect x="91.875" y="61.875" width="3.75" height="3.75" fill="#EAEAEA"/>
<rect x="20.625" y="76.875" width="3.75" height="3.75" fill="#EAEAEA"/>
<rect x="20.625" y="73.125" width="3.75" height="3.75" fill="#EAEAEA"/>
<rect x="20.625" y="69.375" width="3.75" height="3.75" fill="#1F1F23"/>
<rect x="20.625" y="65.625" width="3.75" height="3.75" fill="#1F1F23"/>
<rect x="20.625" y="61.875" width="3.75" height="3.75" fill="#D8D8D8"/>
<rect x="43.125" y="76.875" width="3.75" height="3.75" fill="#EAEAEA"/>
<rect x="43.125" y="73.125" width="3.75" height="3.75" fill="#D3D3D3"/>
<rect x="43.125" y="69.375" width="3.75" height="3.75" fill="#D8D8D8"/>
<rect x="43.125" y="65.625" width="3.75" height="3.75" fill="#D3D3D3"/>
<rect x="43.125" y="61.875" width="3.75" height="3.75" fill="#AEAEAE"/>
<rect x="65.625" y="76.875" width="3.75" height="3.75" fill="#EAEAEA"/>
<rect x="65.625" y="73.125" width="3.75" height="3.75" fill="#D3D3D3"/>
<rect x="65.625" y="69.375" width="3.75" height="3.75" fill="#D8D8D8"/>
<rect x="65.625" y="65.625" width="3.75" height="3.75" fill="#D3D3D3"/>
<rect x="65.625" y="61.875" width="3.75" height="3.75" fill="#D8D8D8"/>
<rect x="88.125" y="76.875" width="3.75" height="3.75" fill="#EAEAEA"/>
<rect x="88.125" y="73.125" width="3.75" height="3.75" fill="#ADADAD"/>
<rect x="88.125" y="69.375" width="3.75" height="3.75" fill="#ADADAD"/>
<rect x="88.125" y="65.625" width="3.75" height="3.75" fill="#EAEAEA"/>
<rect x="88.125" y="61.875" width="3.75" height="3.75" fill="#EAEAEA"/>
<rect x="28.125" y="76.875" width="3.75" height="3.75" fill="#EAEAEA"/>
<rect x="28.125" y="73.125" width="3.75" height="3.75" fill="#1F1F23"/>
<rect x="28.125" y="69.375" width="3.75" height="3.75" fill="#1F1F23"/>
<rect x="28.125" y="65.625" width="3.75" height="3.75" fill="#D3D3D3"/>
<rect x="28.125" y="61.875" width="3.75" height="3.75" fill="#D8D8D8"/>
<rect x="50.625" y="76.875" width="3.75" height="3.75" fill="#1F1F23"/>
<rect x="50.625" y="73.125" width="3.75" height="3.75" fill="#D3D3D3"/>
<rect x="50.625" y="69.375" width="3.75" height="3.75" fill="#D8D8D8"/>
<rect x="50.625" y="65.625" width="3.75" height="3.75" fill="#D3D3D3"/>
<rect x="50.625" y="61.875" width="3.75" height="3.75" fill="#AEAEAE"/>
<rect x="73.125" y="76.875" width="3.75" height="3.75" fill="#EAEAEA"/>
<rect x="73.125" y="73.125" width="3.75" height="3.75" fill="#ADADAD"/>
<rect x="73.125" y="69.375" width="3.75" height="3.75" fill="#D8D8D8"/>
<rect x="73.125" y="65.625" width="3.75" height="3.75" fill="#D3D3D3"/>
<rect x="73.125" y="61.875" width="3.75" height="3.75" fill="#D8D8D8"/>
<rect x="95.625" y="76.875" width="3.75" height="3.75" fill="#1F1F23"/>
<rect x="95.625" y="73.125" width="3.75" height="3.75" fill="#EAEAEA"/>
<rect x="95.625" y="69.375" width="3.75" height="3.75" fill="#ADADAD"/>
<rect x="95.625" y="65.625" width="3.75" height="3.75" fill="#EAEAEA"/>
<rect x="95.625" y="61.875" width="3.75" height="3.75" fill="#EAEAEA"/>
<rect x="99.375" y="76.875" width="3.75" height="3.75" fill="#1F1F23"/>
<rect x="99.375" y="73.125" width="3.75" height="3.75" fill="#EAEAEA"/>
<rect x="99.375" y="69.375" width="3.75" height="3.75" fill="#ADADAD"/>
<rect x="99.375" y="65.625" width="3.75" height="3.75" fill="#ADADAD"/>
<rect x="99.375" y="61.875" width="3.75" height="3.75" fill="#EAEAEA"/>
<rect x="103.125" y="76.875" width="3.75" height="3.75" fill="#1F1F23"/>
<rect x="103.125" y="73.125" width="3.75" height="3.75" fill="#EAEAEA"/>
<rect x="103.125" y="69.375" width="3.75" height="3.75" fill="#EAEAEA"/>
<rect x="103.125" y="65.625" width="3.75" height="3.75" fill="#ADADAD"/>
<rect x="103.125" y="61.875" width="3.75" height="3.75" fill="#EAEAEA"/>
<rect x="106.875" y="73.125" width="3.75" height="3.75" fill="#1F1F23"/>
<rect x="110.625" y="73.125" width="3.75" height="3.75" fill="#1F1F23"/>
<rect x="110.625" y="69.375" width="3.75" height="3.75" fill="#E2E2E2"/>
<rect x="106.875" y="69.375" width="3.75" height="3.75" fill="#EAEAEA"/>
<rect x="110.625" y="65.625" width="3.75" height="3.75" fill="#C2C2C2"/>
<rect x="106.875" y="65.625" width="3.75" height="3.75" fill="#ADADAD"/>
<rect x="106.875" y="61.875" width="3.75" height="3.75" fill="#C2C2C2"/>
<rect x="103.125" y="61.875" width="3.75" height="3.75" fill="#E2E2E2"/>
<rect x="99.375" y="58.125" width="3.75" height="3.75" fill="#E2E2E2"/>
<rect x="69.375" y="58.125" width="3.75" height="3.75" fill="#D8D8D8"/>
<rect x="69.375" y="54.375" width="3.75" height="3.75" fill="#AEAEAE"/>
<rect x="69.375" y="50.625" width="3.75" height="3.75" fill="#C4C4C4"/>
<rect x="39.375" y="58.125" width="3.75" height="3.75" fill="#D0D0D0"/>
<rect x="39.375" y="54.375" width="3.75" height="3.75" fill="#D0D0D0"/>
<rect x="39.375" y="50.625" width="3.75" height="3.75" fill="#D0D0D0"/>
<rect x="84.375" y="58.125" width="3.75" height="3.75" fill="#D8D8D8"/>
<rect x="54.375" y="58.125" width="3.75" height="3.75" fill="#D0D0D0"/>
<rect x="54.375" y="54.375" width="3.75" height="3.75" fill="#1F1F23"/>
<rect x="54.375" y="50.625" width="3.75" height="3.75" fill="#D0D0D0"/>
<rect x="54.375" y="46.875" width="3.75" height="3.75" fill="#D0D0D0"/>
<rect x="24.375" y="58.125" width="3.75" height="3.75" fill="#AEAEAE"/>
<rect x="24.375" y="54.375" width="3.75" height="3.75" fill="#D0D0D0"/>
<rect x="24.375" y="50.625" width="3.75" height="3.75" fill="#1F1F23"/>
<rect x="95.625" y="58.125" width="3.75" height="3.75" fill="#E2E2E2"/>
<rect x="65.625" y="58.125" width="3.75" height="3.75" fill="#AEAEAE"/>
<rect x="65.625" y="54.375" width="3.75" height="3.75" fill="#D0D0D0"/>
<rect x="65.625" y="50.625" width="3.75" height="3.75" fill="#D0D0D0"/>
<rect x="35.625" y="58.125" width="3.75" height="3.75" fill="#AEAEAE"/>
<rect x="35.625" y="54.375" width="3.75" height="3.75" fill="#D0D0D0"/>
<rect x="35.625" y="50.625" width="3.75" height="3.75" fill="#D0D0D0"/>
<rect x="80.625" y="58.125" width="3.75" height="3.75" fill="#D8D8D8"/>
<rect x="50.625" y="58.125" width="3.75" height="3.75" fill="#D0D0D0"/>
<rect x="50.625" y="54.375" width="3.75" height="3.75" fill="#D0D0D0"/>
<rect x="50.625" y="50.625" width="3.75" height="3.75" fill="#1F1F23"/>
<rect x="50.625" y="46.875" width="3.75" height="3.75" fill="#D0D0D0"/>
<rect x="20.625" y="58.125" width="3.75" height="3.75" fill="#C7C7C7"/>
<rect x="20.625" y="54.375" width="3.75" height="3.75" fill="#1F1F23"/>
<rect x="20.625" y="50.625" width="3.75" height="3.75" fill="#1F1F23"/>
<rect x="91.875" y="58.125" width="3.75" height="3.75" fill="#E2E2E2"/>
<rect x="61.875" y="58.125" width="3.75" height="3.75" fill="#D0D0D0"/>
<rect x="61.875" y="54.375" width="3.75" height="3.75" fill="#D0D0D0"/>
<rect x="61.875" y="50.625" width="3.75" height="3.75" fill="#C3C3C3"/>
<rect x="61.875" y="46.875" width="3.75" height="3.75" fill="#E0E0E0"/>
<rect x="31.875" y="58.125" width="3.75" height="3.75" fill="#AEAEAE"/>
<rect x="31.875" y="54.375" width="3.75" height="3.75" fill="#D0D0D0"/>
<rect x="31.875" y="50.625" width="3.75" height="3.75" fill="#1F1F23"/>
<rect x="76.875" y="58.125" width="3.75" height="3.75" fill="#C4C4C4"/>
<rect x="46.875" y="58.125" width="3.75" height="3.75" fill="#D0D0D0"/>
<rect x="46.875" y="54.375" width="3.75" height="3.75" fill="#D0D0D0"/>
<rect x="46.875" y="50.625" width="3.75" height="3.75" fill="#1F1F23"/>
<rect x="46.875" y="46.875" width="3.75" height="3.75" fill="#D0D0D0"/>
<rect x="16.875" y="58.125" width="3.75" height="3.75" fill="#E0E0E0"/>
<rect x="16.875" y="54.375" width="3.75" height="3.75" fill="#1F1F23"/>
<rect x="16.875" y="50.625" width="3.75" height="3.75" fill="#EAEAEA"/>
<rect x="88.125" y="58.125" width="3.75" height="3.75" fill="#E2E2E2"/>
<rect x="58.125" y="58.125" width="3.75" height="3.75" fill="#D0D0D0"/>
<rect x="58.125" y="54.375" width="3.75" height="3.75" fill="#D0D0D0"/>
<rect x="58.125" y="50.625" width="3.75" height="3.75" fill="#D0D0D0"/>
<rect x="58.125" y="46.875" width="3.75" height="3.75" fill="#C3C3C3"/>
<rect x="28.125" y="58.125" width="3.75" height="3.75" fill="#AEAEAE"/>
<rect x="28.125" y="54.375" width="3.75" height="3.75" fill="#D0D0D0"/>
<rect x="73.125" y="58.125" width="3.75" height="3.75" fill="#D3D3D3"/>
<rect x="73.125" y="54.375" width="3.75" height="3.75" fill="#C4C4C4"/>
<rect x="43.125" y="58.125" width="3.75" height="3.75" fill="#D0D0D0"/>
<rect x="43.125" y="54.375" width="3.75" height="3.75" fill="#1F1F23"/>
<rect x="43.125" y="50.625" width="3.75" height="3.75" fill="#D0D0D0"/>
<rect x="43.125" y="46.875" width="3.75" height="3.75" fill="#D0D0D0"/>
<rect x="13.125" y="58.125" width="3.75" height="3.75" fill="#E0E0E0"/>
<rect x="13.125" y="54.375" width="3.75" height="3.75" fill="#E0E0E0"/>
<rect x="13.125" y="50.625" width="3.75" height="3.75" fill="#E0E0E0"/>
<rect x="13.125" y="46.875" width="3.75" height="3.75" fill="#DEDEDE"/>
<rect x="9.375" y="58.125" width="3.75" height="3.75" fill="#E0E0E0"/>
<rect x="9.375" y="54.375" width="3.75" height="3.75" fill="#D0D0D0"/>
<rect x="9.375" y="50.625" width="3.75" height="3.75" fill="#DEDEDE"/>
<rect x="9.375" y="46.875" width="3.75" height="3.75" fill="#DEDEDE"/>
<rect x="13.125" y="43.125" width="3.75" height="3.75" fill="#DEDEDE"/>
<rect x="16.875" y="46.875" width="3.75" height="3.75" fill="#EAEAEA"/>
<rect x="20.625" y="46.875" width="3.75" height="3.75" fill="#1F1F23"/>
<rect x="24.375" y="46.875" width="3.75" height="3.75" fill="#1F1F23"/>
<rect x="28.125" y="50.625" width="3.75" height="3.75" fill="#1F1F23"/>
<rect x="31.875" y="46.875" width="3.75" height="3.75" fill="#1F1F23"/>
<rect x="35.625" y="46.875" width="3.75" height="3.75" fill="#1F1F23"/>
<rect x="39.375" y="46.875" width="3.75" height="3.75" fill="#D0D0D0"/>
<rect x="16.875" y="43.125" width="3.75" height="3.75" fill="#EAEAEA"/>
<rect x="5.62501" y="58.125" width="3.75" height="3.75" fill="#D0D0D0"/>
<rect x="84.375" y="54.375" width="3.75" height="3.75" fill="#E0E0E0"/>
<rect x="80.625" y="54.375" width="3.75" height="3.75" fill="#C4C4C4"/>
<rect x="76.875" y="54.375" width="3.75" height="3.75" fill="#E0E0E0"/>
<rect x="73.125" y="50.625" width="3.75" height="3.75" fill="#E0E0E0"/>
<rect x="76.875" y="50.625" width="3.75" height="3.75" fill="#C4C4C4"/>
<rect x="69.375" y="46.875" width="3.75" height="3.75" fill="#E0E0E0"/>
<rect x="65.625" y="46.875" width="3.75" height="3.75" fill="#C4C4C4"/>
<rect x="61.875" y="43.125" width="3.75" height="3.75" fill="#C4C4C4"/>
<rect x="58.125" y="43.125" width="3.75" height="3.75" fill="#E0E0E0"/>
<rect x="58.125" y="39.375" width="3.75" height="3.75" fill="#C4C4C4"/>
<rect x="54.375" y="39.375" width="3.75" height="3.75" fill="#E0E0E0"/>
<rect x="50.625" y="35.625" width="3.75" height="3.75" fill="#E0E0E0"/>
<rect x="46.875" y="35.625" width="3.75" height="3.75" fill="#7D7D7D"/>
<rect x="43.125" y="39.375" width="3.75" height="3.75" fill="#7D7D7D"/>
<rect x="43.125" y="43.125" width="3.75" height="3.75" fill="#D0D0D0"/>
<rect x="46.875" y="39.375" width="3.75" height="3.75" fill="#E0E0E0"/>
<rect x="50.625" y="39.375" width="3.75" height="3.75" fill="#C3C3C3"/>
<rect x="50.625" y="43.125" width="3.75" height="3.75" fill="#D0D0D0"/>
<rect x="54.375" y="43.125" width="3.75" height="3.75" fill="#C4C4C4"/>
<rect x="46.875" y="43.125" width="3.75" height="3.75" fill="#D0D0D0"/>
</svg>
